<svg width="18" height="16" viewBox="0 0 18 16" fill="none" xmlns="http://www.w3.org/2000/svg">
<path d="M4.5 6.5C4.5 5.8775 5.0025 5.375 5.625 5.375C6.2475 5.375 6.75 5.8775 6.75 6.5C6.75 7.1225 6.2475 7.625 5.625 7.625C5.0025 7.625 4.5 7.1225 4.5 6.5ZM8.25 12.5C9.9975 12.5 11.4825 11.405 12.0825 9.875H4.4175C5.0175 11.405 6.5025 12.5 8.25 12.5ZM10.875 7.625C11.4975 7.625 12 7.1225 12 6.5C12 5.8775 11.4975 5.375 10.875 5.375C10.2525 5.375 9.75 5.8775 9.75 6.5C9.75 7.1225 10.2525 7.625 10.875 7.625ZM15.75 0.125H14.25V1.625H12.75V3.125H14.25V4.625H15.75V3.125H17.25V1.625H15.75V0.125ZM14.25 8.375C14.25 11.69 11.565 14.375 8.25 14.375C4.935 14.375 2.25 11.69 2.25 8.375C2.25 5.06 4.935 2.375 8.25 2.375C9.345 2.375 10.365 2.675 11.25 3.185V1.505C10.3275 1.1 9.315 0.875 8.2425 0.875C4.1025 0.875 0.75 4.235 0.75 8.375C0.75 12.515 4.1025 15.875 8.2425 15.875C12.39 15.875 15.75 12.515 15.75 8.375C15.75 7.5875 15.6225 6.8375 15.3975 6.125H13.8C14.085 6.8225 14.25 7.58 14.25 8.375Z" fill="#8842A1"/>
</svg>
