<svg width="37" height="41" viewBox="0 0 37 41" fill="none" xmlns="http://www.w3.org/2000/svg">
<path d="M27.3512 15.613C27.0207 15.7747 26.7157 15.9837 26.4451 16.2332C25.8872 15.7029 25.1796 15.3561 24.4182 15.2392C23.657 15.1222 22.8776 15.2409 22.1852 15.5793C21.6886 15.821 21.2516 16.1697 20.9059 16.6003C19.8459 16.0589 18.5914 16.0486 17.5213 16.5724C17.2679 16.6959 17.0297 16.8476 16.8108 17.0249L15.7151 14.7863C17.3947 12.6903 18.0265 9.94468 17.4305 7.32898C16.8346 4.71364 15.0762 2.51435 12.6553 1.35574C10.234 0.197233 7.41479 0.206383 4.998 1.38054C2.58161 2.55459 0.831857 4.76543 0.246348 7.38468C-0.339162 10.0039 0.302971 12.7455 1.99073 14.8305C3.6785 16.9155 6.22738 18.1162 8.91275 18.0911L13.3816 27.2214C12.1119 26.8473 10.7511 26.9235 9.52972 27.4376C8.30893 27.9518 7.30272 28.8719 6.68242 30.0418C6.29859 30.7916 6.21663 31.6597 6.45404 32.4671C6.69103 33.2747 7.22916 33.9603 7.95749 34.3831L16.0578 39.1051C19.4711 41.0919 23.6552 41.2395 27.2056 39.4986L29.5795 38.3367C31.6609 37.3225 33.3982 35.719 34.5739 33.7258C35.7502 31.7328 36.3129 29.4389 36.1926 27.1297C36.1244 25.6398 35.7495 24.1805 35.0913 22.8423L32.4038 17.3514C31.9645 16.452 31.1858 15.7642 30.2385 15.4382C29.2917 15.1124 28.2533 15.1753 27.3513 15.6131L27.3512 15.613ZM3.57342 11.8919C2.68752 10.0912 2.78515 7.96166 3.83268 6.24717C4.88021 4.53267 6.73173 3.47104 8.74099 3.43355C10.7502 3.39607 12.6382 4.38744 13.7447 6.06195C14.8514 7.73589 15.0236 9.86035 14.2009 11.6931L13.869 11.0148C13.2761 9.80351 12.0809 9.0009 10.7339 8.90959C9.38637 8.81816 8.09175 9.45181 7.33757 10.5719C6.58293 11.6918 6.48356 13.1281 7.07645 14.3395L7.38971 14.9795C5.72496 14.5606 4.32934 13.4315 3.57353 11.8919L3.57342 11.8919ZM32.4533 24.1332C32.9362 25.116 33.2096 26.1882 33.2573 27.2819C33.3487 29.0166 32.9263 30.7407 32.043 32.2383C31.1596 33.7363 29.8545 34.9412 28.2905 35.7031L25.9166 36.865C23.2474 38.1733 20.1023 38.0626 17.5357 36.57L9.43078 31.8453C9.26847 31.7476 9.20953 31.5414 9.2957 31.3726C9.61301 30.7459 10.1633 30.268 10.8288 30.0407C11.494 29.8135 12.2212 29.8556 12.8553 30.1577L15.8746 31.5836C16.4379 31.849 17.1081 31.73 17.5462 31.2865C17.9843 30.8434 18.0949 30.1727 17.8221 29.6135L9.71437 13.0486C9.50973 12.6305 9.68342 12.1251 10.1022 11.9201C10.521 11.7152 11.0266 11.888 11.2313 12.3061L16.8062 23.6962C17.162 24.4233 18.0413 24.7239 18.7696 24.3674C19.4979 24.0109 19.7999 23.1322 19.444 22.4051L18.4321 20.3378C18.2275 19.9197 18.4012 19.4143 18.82 19.2093C19.2388 19.0043 19.7444 19.1772 19.9491 19.5953L21.47 22.7028C21.8261 23.4303 22.7048 23.7307 23.4334 23.374C24.1617 23.0176 24.4639 22.1392 24.1079 21.4117L23.0895 19.3311C22.8867 18.9167 23.0587 18.4162 23.4741 18.2129C23.8892 18.0097 24.39 18.1809 24.5928 18.5953L26.114 21.7032C26.4698 22.4303 27.3491 22.7309 28.0774 22.3744C28.806 22.0178 29.1077 21.1392 28.7518 20.4121L28.249 19.3848C28.0444 18.9667 28.218 18.4613 28.6368 18.2564C29.0556 18.0514 29.5613 18.2243 29.7659 18.6424L32.4533 24.1332Z" fill="#FB707F"/>
</svg>
