<svg width="30" height="27" viewBox="0 0 30 27" fill="none" xmlns="http://www.w3.org/2000/svg">
<path d="M17.7264 1.61123C17.1558 0.614171 16.101 0 14.9597 0C13.8184 0 12.7637 0.614231 12.1931 1.61123L0.42801 22.1665C0.0524573 22.8226 -0.0818504 23.5912 0.0485141 24.3374C0.178879 25.0834 0.565798 25.7591 1.14105 26.2463C1.71633 26.7333 2.44357 27 3.19441 27H26.7245C27.4754 27 28.2026 26.7333 28.7779 26.2463C29.3531 25.7591 29.7401 25.0834 29.8704 24.3374C30.0008 23.5912 29.8665 22.8226 29.4909 22.1665L17.7264 1.61123ZM27.7634 24.3826C27.6597 24.5682 27.5087 24.7221 27.3259 24.8284C27.1434 24.9348 26.9355 24.9898 26.7247 24.9877H3.19455C2.76611 24.9877 2.37013 24.757 2.15582 24.3826C1.94171 24.0084 1.94171 23.5473 2.15582 23.1729L13.9209 2.61702C14.0619 2.37063 14.2844 2.18227 14.5493 2.08493C14.8144 1.98759 15.1048 1.98759 15.3699 2.08493C15.6348 2.18227 15.8573 2.37063 15.9983 2.61702L27.7634 23.1729C27.8708 23.3561 27.9274 23.5648 27.9274 23.7778C27.9274 23.9904 27.8708 24.1994 27.7634 24.3826Z" fill="#586AF6"/>
<path d="M14.9593 18.2433C15.2495 18.2433 15.528 18.1365 15.7334 17.9469C15.9386 17.7573 16.0539 17.4999 16.0539 17.2315V8.30898C16.0539 7.94762 15.8455 7.61355 15.5066 7.43287C15.1681 7.25219 14.7506 7.25219 14.412 7.43287C14.0732 7.61355 13.8647 7.94762 13.8647 8.30898V17.2315C13.8647 17.4999 13.9801 17.7573 14.1852 17.9469C14.3907 18.1365 14.6691 18.2433 14.9593 18.2433Z" fill="#586AF6"/>
<path d="M14.9593 20.4324C14.669 20.4324 14.3905 20.5478 14.1854 20.753C13.98 20.9583 13.8647 21.2366 13.8647 21.5268C13.8647 21.8171 13.98 22.0956 14.1854 22.301C14.3905 22.5061 14.6691 22.6216 14.9593 22.6216C15.2496 22.6213 15.5282 22.5061 15.7333 22.3007C15.9387 22.0956 16.0539 21.8171 16.0539 21.5269C16.0539 21.2366 15.9387 20.9583 15.7333 20.753C15.5282 20.5476 15.2496 20.4324 14.9593 20.4324Z" fill="#586AF6"/>
</svg>
