<svg width="20" height="19" viewBox="0 0 20 19" fill="none" xmlns="http://www.w3.org/2000/svg">
<rect width="20" height="19" fill="#424242"/>
<g id="Editor 7" clip-path="url(#clip0_0_1)">
<rect width="1440" height="2290" transform="translate(-1062 -36)" fill="#F6F8FF"/>
<g id="Rectangle 3998" filter="url(#filter0_d_0_1)">
<rect x="-1062" y="-36" width="1440" height="100" fill="white"/>
</g>
<g id="Group 131244">
<path id="Vector" d="M1.56832 0.108143C0.917707 0.334146 0.362974 0.861485 0.123274 1.47786C0.00684856 1.77919 0 2.16956 0 7.62101V13.4423L0.19176 13.8327C0.465702 14.3942 1.01359 14.8736 1.58887 15.0517C1.95184 15.1613 2.22578 15.1887 3.05446 15.1887H4.07489V16.1749C4.07489 17.209 4.12283 17.4418 4.36938 17.7089C4.71181 18.0788 5.33503 18.1952 5.75964 17.976C5.86922 17.9212 6.66365 17.2706 7.51972 16.531L9.08804 15.1887H13.4232C17.5803 15.1887 17.7789 15.1818 18.2035 15.0517C18.7788 14.8736 19.3266 14.3942 19.6006 13.8327L19.7923 13.4423V7.58677V1.73125L19.6143 1.35458C19.3883 0.875182 18.9637 0.450571 18.4706 0.210872L18.0802 0.0191119L9.9989 0.00541475C2.43124 -0.00828237 1.89705 -0.00143381 1.56832 0.108143ZM17.8884 1.22446C18.1487 1.32034 18.4569 1.61483 18.5664 1.88192C18.6486 2.06683 18.6623 3.08042 18.6623 7.57992C18.6623 11.2918 18.6418 13.1204 18.587 13.2505C18.498 13.4902 18.2788 13.7299 18.0117 13.8737C17.8268 13.9765 17.32 13.997 13.2862 14.0244C9.14283 14.0587 8.74561 14.0655 8.547 14.1819C8.42373 14.2436 7.6293 14.8873 6.78007 15.5996L5.23915 16.9008V15.9831C5.23915 14.9969 5.17751 14.7093 4.90357 14.4079C4.59538 14.0724 4.38993 14.0244 3.20513 14.0244C2.30112 14.0244 2.07511 14.0039 1.84911 13.8943C1.53408 13.7505 1.30807 13.5245 1.20535 13.2505C1.10262 12.9834 1.10262 2.19011 1.20535 1.92301C1.30123 1.66961 1.59571 1.36143 1.84911 1.245C2.01348 1.16967 3.49277 1.15597 9.87562 1.14912C15.238 1.14912 17.7583 1.16967 17.8884 1.22446Z" fill="#192339"/>
<path id="Vector_2" d="M3.80098 3.56687C3.42431 3.75863 3.36268 4.21063 3.67771 4.50512C3.82838 4.64209 3.89686 4.64209 9.8962 4.64209C15.8955 4.64209 15.964 4.64209 16.1147 4.50512C16.4297 4.21063 16.3681 3.75863 15.9914 3.56687C15.7449 3.44359 4.04753 3.44359 3.80098 3.56687Z" fill="#192339"/>
<path id="Vector_3" d="M3.63669 6.63496C3.40384 6.90891 3.41069 7.14176 3.65724 7.38831L3.85584 7.58691H9.89627H15.9367L16.1353 7.38831C16.3956 7.12806 16.3956 6.88151 16.1353 6.62127L15.9367 6.42266H9.87573H3.81475L3.63669 6.63496Z" fill="#192339"/>
<path id="Vector_4" d="M3.68438 9.47019C3.49947 9.60031 3.43098 9.90165 3.52686 10.1482C3.67068 10.5317 3.75286 10.5386 7.40315 10.518L10.7315 10.4975L10.8959 10.3057C11.1082 10.0523 11.1082 9.75098 10.8891 9.53867L10.7247 9.36746H7.27987C4.3213 9.36746 3.80765 9.38115 3.68438 9.47019Z" fill="#192339"/>
</g>
</g>
<defs>
<filter id="filter0_d_0_1" x="-1075" y="-54" width="1466" height="126" filterUnits="userSpaceOnUse" color-interpolation-filters="sRGB">
<feFlood flood-opacity="0" result="BackgroundImageFix"/>
<feColorMatrix in="SourceAlpha" type="matrix" values="0 0 0 0 0 0 0 0 0 0 0 0 0 0 0 0 0 0 127 0" result="hardAlpha"/>
<feOffset dy="-5"/>
<feGaussianBlur stdDeviation="6.5"/>
<feComposite in2="hardAlpha" operator="out"/>
<feColorMatrix type="matrix" values="0 0 0 0 0 0 0 0 0 0 0 0 0 0 0 0 0 0 0.25 0"/>
<feBlend mode="normal" in2="BackgroundImageFix" result="effect1_dropShadow_0_1"/>
<feBlend mode="normal" in="SourceGraphic" in2="effect1_dropShadow_0_1" result="shape"/>
</filter>
<clipPath id="clip0_0_1">
<rect width="1440" height="2290" fill="white" transform="translate(-1062 -36)"/>
</clipPath>
</defs>
</svg>
