<svg width="16" height="14" viewBox="0 0 16 14" fill="none" xmlns="http://www.w3.org/2000/svg">
<path d="M8.23061 0.256724C8.14935 0.256644 8.06904 0.274206 7.99523 0.308197C7.92142 0.342188 7.85587 0.391798 7.80311 0.453599L7.74686 0.494099C6.05373 -0.00315058 4.13336 0.381599 2.79348 1.64947C1.60436 2.77335 1.14986 4.3281 1.42886 5.78272L1.41198 5.79847L0.657106 6.51285C0.503304 6.65475 0.38056 6.82697 0.296607 7.01866C0.212654 7.21034 0.169312 7.41734 0.169312 7.6266C0.169312 7.83586 0.212654 8.04286 0.296607 8.23454C0.38056 8.42623 0.503304 8.59845 0.657106 8.74035C1.04186 9.10597 1.57061 9.25447 2.07123 9.18585C2.14323 9.44797 2.28836 9.6966 2.50548 9.90247C2.79911 10.1803 3.17598 10.3322 3.56073 10.3592C3.58886 10.7226 3.74973 11.0792 4.04448 11.3571C4.33698 11.635 4.71386 11.7868 5.09861 11.8138C5.12673 12.1772 5.28761 12.5338 5.58236 12.8117C5.87578 13.0829 6.25366 13.2447 6.65239 13.2699C7.05113 13.2951 7.44638 13.1822 7.77161 12.9501L8.14286 13.3011C8.79536 13.9198 9.85623 13.9198 10.5099 13.3011C10.8024 13.0232 10.9644 12.67 10.9936 12.3077C11.3761 12.2796 11.7496 12.1277 12.0421 11.851C12.3346 11.5742 12.4966 11.2198 12.5259 10.8576C12.9027 10.8272 13.2706 10.6753 13.5609 10.402C13.787 10.1871 13.9355 9.92497 14.003 9.64935C14.498 9.70897 15.0144 9.55935 15.3935 9.2016C15.5473 9.0597 15.67 8.88748 15.754 8.69579C15.8379 8.50411 15.8813 8.29711 15.8813 8.08785C15.8813 7.87859 15.8379 7.67159 15.754 7.47991C15.67 7.28822 15.5473 7.116 15.3935 6.9741L14.7252 6.34185L14.8524 5.86935C15.1472 4.77468 14.998 3.60788 14.4372 2.6226C13.6104 1.15785 12.0095 0.260099 10.286 0.260099H9.1396C9.08789 0.257716 9.03613 0.256591 8.98436 0.256724H8.23061ZM13.1491 6.39585L13.6959 6.93585C13.73 6.96904 13.7681 6.99777 13.8095 7.02135L14.5756 7.74585C14.6227 7.78926 14.6603 7.84196 14.686 7.90063C14.7118 7.9593 14.725 8.02266 14.725 8.08672C14.725 8.15078 14.7118 8.21415 14.686 8.27282C14.6603 8.33149 14.6227 8.38419 14.5756 8.4276C14.4775 8.51805 14.349 8.56826 14.2156 8.56826C14.0822 8.56826 13.9537 8.51805 13.8556 8.4276L12.5731 7.21597C12.4619 7.11327 12.3161 7.05623 12.1647 7.05623C12.0134 7.05623 11.8676 7.11327 11.7564 7.21597L11.7429 7.22722C11.6897 7.27671 11.6473 7.3366 11.6183 7.40319C11.5894 7.46977 11.5744 7.54161 11.5744 7.61422C11.5744 7.68684 11.5894 7.75868 11.6183 7.82526C11.6473 7.89184 11.6897 7.95174 11.7429 8.00122L12.743 8.94622C12.7899 8.98972 12.8274 9.04245 12.853 9.10111C12.8787 9.15977 12.8919 9.22309 12.8919 9.2871C12.8919 9.35111 12.8787 9.41443 12.853 9.47309C12.8274 9.53175 12.7899 9.58448 12.743 9.62797C12.6537 9.71061 12.5388 9.76015 12.4174 9.76834C12.296 9.77653 12.1754 9.74287 12.0759 9.67297C11.9626 9.59299 11.8253 9.55447 11.687 9.5639C11.5487 9.57332 11.4178 9.63012 11.3165 9.72472C11.2185 9.81596 11.159 9.94118 11.1502 10.0748C11.1415 10.2084 11.184 10.3403 11.2692 10.4436C11.3441 10.5351 11.3811 10.6518 11.3728 10.7698C11.3644 10.8877 11.3113 10.998 11.2242 11.0781C11.1337 11.1619 11.0169 11.2116 10.8938 11.2188C10.7707 11.226 10.6489 11.1902 10.5492 11.1175C10.4367 11.035 10.2991 10.9941 10.1598 11.0016C10.0206 11.0092 9.88822 11.0649 9.78536 11.1591C9.68575 11.2502 9.62503 11.3762 9.61582 11.5109C9.6066 11.6456 9.64959 11.7786 9.73586 11.8825C9.89336 12.0737 9.87873 12.3516 9.69198 12.5282C9.5923 12.6199 9.4618 12.6708 9.32636 12.6708C9.19091 12.6708 9.06041 12.6199 8.96073 12.5282L8.59848 12.1862L8.69298 12.0973C8.84678 11.9554 8.96953 11.7832 9.05348 11.5915C9.13743 11.3999 9.18078 11.1929 9.18078 10.9836C9.18078 10.7743 9.13743 10.5673 9.05348 10.3757C8.96953 10.184 8.84678 10.0118 8.69298 9.86985C8.40486 9.5998 8.03181 9.43833 7.63773 9.4131C7.60662 9.03177 7.43407 8.67585 7.15398 8.41523C6.86626 8.14508 6.49367 7.98324 6.09986 7.95735C6.06874 7.57602 5.8962 7.2201 5.61611 6.95947C5.4284 6.78467 5.20404 6.65396 4.9594 6.57689C4.71475 6.49982 4.45599 6.47832 4.20198 6.51397C4.12562 6.24015 3.97539 5.99261 3.76773 5.79847C3.60193 5.64332 3.40695 5.52266 3.19413 5.44347C2.98131 5.36429 2.75488 5.32818 2.52798 5.33722C2.4675 4.80055 2.53392 4.25717 2.7219 3.75088C2.90988 3.24458 3.21417 2.78951 3.61023 2.42235C3.99768 2.06054 4.45503 1.78178 4.95417 1.60321C5.45331 1.42464 5.9837 1.35004 6.51273 1.38397L5.28086 2.27272C5.09181 2.40693 4.93237 2.57856 4.81241 2.77696C4.69246 2.97536 4.61456 3.19629 4.58355 3.42605C4.55253 3.6558 4.56907 3.88948 4.63212 4.11258C4.69518 4.33568 4.80341 4.54344 4.95011 4.72297C5.246 5.08543 5.66856 5.32193 6.13225 5.38459C6.59594 5.44725 7.06611 5.3314 7.44761 5.06047L8.96298 3.96922H10.583L13.1491 6.39585ZM5.93898 3.18397L8.43986 1.38172H8.98548C9.03238 1.38125 9.07928 1.38238 9.12611 1.3851H10.2849C11.6259 1.3851 12.8409 2.0826 13.4574 3.1761C13.8545 3.87697 13.9726 4.6836 13.7971 5.45535L11.3075 3.0051C11.2023 2.902 11.061 2.84425 10.9137 2.84422H8.7796C8.66173 2.84418 8.54682 2.88118 8.45111 2.94997L6.79061 4.1481C6.6427 4.25088 6.46165 4.29449 6.28317 4.27033C6.10469 4.24617 5.94174 4.156 5.82648 4.0176C5.77568 3.95701 5.73808 3.88648 5.7161 3.81052C5.69411 3.73457 5.68823 3.65486 5.69882 3.5765C5.70941 3.49814 5.73624 3.42285 5.77759 3.35545C5.81895 3.28806 5.87392 3.23003 5.93898 3.1851V3.18397ZM7.15623 10.6405C7.25458 10.5503 7.38326 10.5005 7.51667 10.5009C7.65008 10.5013 7.77844 10.552 7.87623 10.6427C7.92334 10.6861 7.96095 10.7388 7.98667 10.7975C8.01239 10.8562 8.02567 10.9195 8.02567 10.9836C8.02567 11.0477 8.01239 11.111 7.98667 11.1697C7.96095 11.2284 7.92334 11.2811 7.87623 11.3245L7.12023 12.0388C7.02216 12.1293 6.89364 12.1795 6.76023 12.1795C6.62682 12.1795 6.4983 12.1293 6.40023 12.0388C6.35312 11.9954 6.31551 11.9427 6.28979 11.8841C6.26407 11.8254 6.25079 11.762 6.25079 11.698C6.25079 11.6339 6.26407 11.5705 6.28979 11.5119C6.31551 11.4532 6.35312 11.4005 6.40023 11.3571L7.15623 10.6416V10.6405ZM6.33948 9.8676L5.58236 10.5842C5.48422 10.675 5.35547 10.7254 5.22179 10.7254C5.08812 10.7254 4.95936 10.675 4.86123 10.5842C4.81516 10.5417 4.7782 10.4903 4.75257 10.4331C4.72694 10.3759 4.71319 10.3141 4.71214 10.2514C4.71109 10.1887 4.72276 10.1265 4.74645 10.0684C4.77015 10.0104 4.80536 9.95776 4.84998 9.91372L4.86123 9.90247L5.61611 9.1881L5.62736 9.17685C5.72621 9.09078 5.8534 9.04432 5.98445 9.0464C6.1155 9.04847 6.24116 9.09894 6.33723 9.1881C6.38413 9.23133 6.4216 9.28377 6.44729 9.34215C6.47299 9.40053 6.48636 9.46358 6.48658 9.52736C6.48679 9.59114 6.47383 9.65428 6.44852 9.71282C6.42321 9.77137 6.38609 9.82406 6.33948 9.8676ZM4.79823 8.41523L4.04448 9.12848L4.03211 9.13972C3.93333 9.22548 3.80637 9.27175 3.67558 9.26967C3.54479 9.2676 3.41936 9.21732 3.32336 9.12848C3.27624 9.08507 3.23864 9.03237 3.21292 8.97369C3.1872 8.91502 3.17392 8.85166 3.17392 8.7876C3.17392 8.72354 3.1872 8.66017 3.21292 8.6015C3.23864 8.54283 3.27624 8.49013 3.32336 8.44672L4.07711 7.73348C4.1753 7.64239 4.30429 7.59177 4.43823 7.59177C4.57217 7.59177 4.70116 7.64239 4.79936 7.73348C4.84542 7.77599 4.88239 7.82741 4.90801 7.88462C4.93364 7.94183 4.9474 8.00364 4.94845 8.06632C4.9495 8.129 4.93783 8.19124 4.91413 8.24927C4.89044 8.30731 4.85522 8.35994 4.81061 8.40397L4.79936 8.41523H4.79823ZM2.95098 7.2531L2.19611 7.96747C2.09804 8.05792 1.96952 8.10814 1.83611 8.10814C1.7027 8.10814 1.57417 8.05792 1.47611 7.96747C1.42899 7.92407 1.39139 7.87137 1.36567 7.8127C1.33995 7.75403 1.32667 7.69066 1.32667 7.6266C1.32667 7.56254 1.33995 7.49917 1.36567 7.4405C1.39139 7.38183 1.42899 7.32913 1.47611 7.28572L2.22986 6.57135C2.32799 6.48058 2.45674 6.43016 2.59042 6.43016C2.72409 6.43016 2.85285 6.48058 2.95098 6.57135C2.99809 6.61476 3.0357 6.66746 3.06142 6.72613C3.08714 6.7848 3.10042 6.84816 3.10042 6.91222C3.10042 6.97628 3.08714 7.03965 3.06142 7.09832C3.0357 7.15699 2.99809 7.20969 2.95098 7.2531Z" fill="#192339"/>
</svg>
