<svg width="15" height="16" viewBox="0 0 15 16" fill="none" xmlns="http://www.w3.org/2000/svg">
<path d="M1.5 15.5C1.0875 15.5 0.734251 15.353 0.440251 15.059C0.146251 14.765 -0.000498727 14.412 1.27335e-06 14V2C1.27335e-06 1.5875 0.147001 1.23425 0.441001 0.940251C0.735001 0.646251 1.088 0.499501 1.5 0.500001H7.5L12 5V8H10.5V5.75H6.75V2H1.5V14H6V15.5H1.5ZM10.725 9.89375L11.5313 10.7L8.625 13.5875V14.375H9.4125L12.3188 11.4875L13.1063 12.275L9.88125 15.5H7.5V13.1188L10.725 9.89375ZM13.1063 12.275L10.725 9.89375L11.8125 8.80625C11.95 8.66875 12.125 8.6 12.3375 8.6C12.55 8.6 12.725 8.66875 12.8625 8.80625L14.1938 10.1375C14.3313 10.275 14.4 10.45 14.4 10.6625C14.4 10.875 14.3313 11.05 14.1938 11.1875L13.1063 12.275Z" fill="#ffffff"/>
</svg>
