<svg width="14" height="18" viewBox="0 0 14 18" fill="none" xmlns="http://www.w3.org/2000/svg">
<path d="M1.66667 0.666687C1.22464 0.666687 0.800716 0.842282 0.488155 1.15484C0.175595 1.4674 0 1.89133 0 2.33335V15.6667C0 16.1087 0.175595 16.5326 0.488155 16.8452C0.800716 17.1578 1.22464 17.3334 1.66667 17.3334H11.6667C12.1087 17.3334 12.5326 17.1578 12.8452 16.8452C13.1577 16.5326 13.3333 16.1087 13.3333 15.6667V5.66669L8.33333 0.666687H1.66667ZM1.66667 2.33335H7.5V6.50002H11.6667V15.6667H1.66667V2.33335ZM3.33333 9.00002V10.6667H10V9.00002H3.33333ZM3.33333 12.3334V14H7.5V12.3334H3.33333Z" fill="#192339"/>
</svg>
