<svg width="24" height="28" viewBox="0 0 24 28" fill="none" xmlns="http://www.w3.org/2000/svg">
<path d="M13.2819 24.5767H1.32472C0.592969 24.5767 0 23.9805 0 23.2488V1.32787C0 0.596123 0.592969 0 1.32472 0H15.3793C15.802 0 16.1994 0.164013 16.499 0.466805L21.4383 5.40611C21.738 5.70575 21.9051 6.10316 21.9051 6.52581V16.2719H20.6435V6.52581C20.6435 6.4375 20.6088 6.35865 20.5489 6.29556L15.6096 1.35626C15.5497 1.29633 15.4645 1.26164 15.3793 1.26164H1.32472C1.29002 1.26164 1.26164 1.29318 1.26164 1.32787V23.2488C1.26164 23.2866 1.29002 23.315 1.32472 23.315H13.2819V24.5767Z" fill="#192339"/>
<path d="M20.9206 6.41523H16.8171C16.0854 6.41523 15.4893 5.8191 15.4893 5.08736V0.983887H16.7509V5.08736C16.7509 5.12521 16.7793 5.15359 16.8171 5.15359H20.9206V6.41523Z" fill="#192339"/>
<path d="M7.15232 11.416C5.9443 11.416 4.96338 10.435 4.96338 9.22703C4.96338 8.01901 5.9443 7.03809 7.15232 7.03809C8.36033 7.03809 9.34125 8.01901 9.34125 9.22703C9.34125 10.435 8.36033 11.416 7.15232 11.416ZM7.15232 8.29972C6.64135 8.29972 6.22501 8.71606 6.22501 9.22703C6.22501 9.73799 6.64135 10.1543 7.15232 10.1543C7.66328 10.1543 8.07962 9.73799 8.07962 9.22703C8.07962 8.71606 7.66328 8.29972 7.15232 8.29972Z" fill="#192339"/>
<path d="M13.265 20.9712H3.56934V17.1548L6.5878 14.1616L8.96914 16.5271L14.8862 10.6416L18.3336 14.0575V16.5587H17.072V14.5811L14.8862 12.4205L8.96914 18.306L6.5878 15.9405L4.83097 17.6784V19.7096H13.265V20.9712Z" fill="#192339"/>
<path d="M15.5775 27.2446H12.313V23.9958L20.3118 15.9718C20.5641 15.7195 20.8953 15.5776 21.2422 15.5744C21.5986 15.5681 21.933 15.7069 22.1853 15.9592L23.6141 17.3786C24.1345 17.899 24.1282 18.7222 23.5983 19.2489L15.5775 27.2446ZM13.5746 25.9829H15.0539L22.7057 18.3563C22.7183 18.3437 22.753 18.3027 22.7215 18.2712L21.2927 16.8518C21.2548 16.814 21.2107 16.855 21.2012 16.8644L13.5746 24.5194V25.9829Z" fill="#192339"/>
<path d="M22.0117 19.9273L19.6304 17.5493L18.7389 18.4421L21.1203 20.8201L22.0117 19.9273Z" fill="#192339"/>
</svg>
