<svg width="241" height="241" viewBox="0 0 241 241" fill="none" xmlns="http://www.w3.org/2000/svg">
<path d="M200.19 1.88231C196.519 2.82371 194.824 3.62391 191.576 5.78914C189.505 7.15418 82.2318 113.863 80.4432 116.357C79.4547 117.722 64.957 169.17 64.957 171.335C64.957 173.971 68.0166 176.984 70.6996 176.984C72.7707 176.984 124.266 162.439 125.584 161.498C126.29 160.98 151.143 136.268 180.844 106.52C220.242 67.0747 235.304 51.6827 236.717 49.4704C240.2 44.0102 241.659 36.7614 240.576 30.3128C240.247 28.477 239.164 25.3704 238.082 23.064C236.387 19.4866 235.493 18.404 229.515 12.4261C223.537 6.44813 222.454 5.60086 218.877 3.85926C212.522 0.79969 206.639 0.187776 200.19 1.88231ZM213.84 14.6854C216.429 15.9563 225.985 25.5587 227.397 28.2417C228.338 30.0304 228.526 31.0659 228.526 34.8315C228.526 40.527 227.679 42.3628 222.313 47.9641L218.453 52.0122L204.191 37.7499L189.929 23.4876L194.071 19.5337C196.377 17.3684 199.154 15.1561 200.284 14.5913C204.379 12.6143 209.839 12.6614 213.84 14.6854ZM195.813 46.3638L209.698 60.2495L165.782 104.119L121.912 148.036L108.026 134.15C100.401 126.525 94.1406 120.076 94.1406 119.793C94.1406 119.182 180.844 32.478 181.456 32.478C181.738 32.478 188.187 38.7384 195.813 46.3638ZM110.05 153.872C108.309 154.437 79.7842 162.298 79.69 162.251C79.643 162.204 81.1021 156.838 82.8908 150.389C84.6795 143.893 86.6094 136.974 87.1742 134.903L88.1627 131.232L99.3654 142.434C105.579 148.648 110.333 153.778 110.05 153.872Z" fill="black"/>
<path d="M22.5938 25.2294C12.7561 27.8654 5.17773 34.9259 1.69453 44.7165L0.235352 48.7175V132.267C0.235352 211.957 0.282422 215.958 1.08262 218.594C2.82422 224.243 4.70703 227.396 8.94336 231.633C11.9088 234.598 13.8387 236.104 16.3334 237.328C23.2057 240.764 16.4746 240.576 115.793 240.435L204.991 240.294L208.145 239.07C217.418 235.445 223.961 228.809 227.02 219.818C228.056 216.806 228.056 216.335 228.197 186.398C228.338 159.144 228.291 155.897 227.585 154.579C226.596 152.696 224.572 151.566 222.219 151.566C220.666 151.566 219.913 151.896 218.5 153.167L216.759 154.767L216.523 184.61C216.288 214.311 216.288 214.405 215.205 217.088C213.276 221.889 209.651 225.514 204.85 227.443L202.167 228.526L115.84 228.667C58.8379 228.714 28.6188 228.62 26.8771 228.291C21.2287 227.255 16.1922 223.395 13.8387 218.265L12.4736 215.346V132.503V49.6589L13.8387 46.6935C15.5803 42.9279 19.5813 39.1152 23.3939 37.5619L26.124 36.4792L55.7783 36.2439C88.9158 35.9615 87.033 36.1968 88.7275 32.6195C89.8102 30.3601 89.3395 28.1478 87.2684 26.1238L85.6209 24.4763L55.4018 24.5234C30.3133 24.5234 24.759 24.6646 22.5938 25.2294Z" fill="black"/>
</svg>
