<svg width="30" height="31" viewBox="0 0 30 31" fill="none" xmlns="http://www.w3.org/2000/svg">
<path d="M19.8742 9.479H9.93526C9.55563 9.479 9.24512 9.78954 9.24512 10.1691V20.1426C9.24512 20.5222 9.55565 20.8327 9.93526 20.8327H19.9087C20.2883 20.8327 20.5988 20.5222 20.5988 20.1426V10.1691C20.5644 9.78952 20.2538 9.479 19.8742 9.479ZM19.184 19.4179H10.6255V10.8594H19.2185V19.4179H19.184Z" fill="#586AF6"/>
<path d="M2.82565 1.67965L7.24294 1.99018C7.62256 2.02461 7.96777 1.71407 7.96777 1.33443C8.0022 0.954809 7.72609 0.644292 7.34647 0.609597L1.06564 0.161133H1.03122H0.927705H0.893281C0.858858 0.161133 0.824193 0.161133 0.789769 0.195556H0.755346C0.754865 0.229979 0.720441 0.229979 0.686018 0.264644H0.651595C0.616931 0.299067 0.582507 0.333732 0.547843 0.368156C0.51342 0.402579 0.478995 0.437243 0.444331 0.471667V0.50609C0.409908 0.540754 0.409908 0.575178 0.375243 0.609602V0.644025C0.375243 0.678448 0.34082 0.713113 0.34082 0.747537V0.816625V0.885713V0.920136L0.789525 7.20097C0.823948 7.58059 1.13472 7.85672 1.47966 7.85672H1.51409C1.89371 7.8223 2.16984 7.51152 2.16984 7.13189L1.85931 2.7146L7.17373 8.02902C7.31167 8.16696 7.48427 8.23605 7.65686 8.23605C7.82946 8.23605 8.00206 8.16696 8.13999 8.02902C8.4161 7.75291 8.4161 7.33888 8.13999 7.06274L2.82565 1.67965Z" fill="#586AF6"/>
<path d="M29.4672 0.747537C29.4672 0.713114 29.4672 0.678449 29.4328 0.644025V0.609602C29.4328 0.575179 29.3984 0.540514 29.3984 0.506091V0.471667L29.1914 0.264644H29.1569C29.1225 0.230221 29.0879 0.230221 29.0534 0.195556H29.019C28.9846 0.195556 28.9499 0.161133 28.9155 0.161133H28.8811H28.7776H28.7431L22.4617 0.609357C22.0821 0.644021 21.8059 0.954556 21.8059 1.33419C21.8404 1.71381 22.1511 1.98994 22.5308 1.98994L26.9824 1.67941L21.668 6.95945C21.3919 7.23556 21.3919 7.64959 21.668 7.92573C21.806 8.06366 21.9786 8.13275 22.1512 8.13275C22.3237 8.13275 22.4963 8.06366 22.6343 7.92573L27.9487 2.6113L27.6382 7.02859C27.6037 7.40821 27.9143 7.75343 28.2939 7.75343H28.3283C28.6735 7.75343 28.9841 7.47731 29.0185 7.09767L29.4672 0.816842V0.782419V0.713331V0.747754L29.4672 0.747537Z" fill="#586AF6"/>
<path d="M7.13938 22.3162L1.85934 27.6307L2.16987 23.2134C2.2043 22.8338 1.89376 22.4885 1.51412 22.4885C1.1345 22.4541 0.789285 22.7647 0.789285 23.1443L0.34082 29.3906V29.425V29.4941V29.5632C0.34082 29.5976 0.34082 29.6323 0.375243 29.6667V29.7012C0.375243 29.7356 0.409667 29.7702 0.409667 29.8047V29.8391L0.61669 30.0461C0.651113 30.0461 0.651113 30.0805 0.685778 30.0805C0.720201 30.0805 0.720201 30.115 0.754866 30.115C0.789289 30.115 0.823954 30.1494 0.858377 30.1494H0.892801H1.03074H1.06516L7.34599 29.7007C7.72561 29.6663 8.00174 29.3555 8.00174 28.9758C7.96732 28.5962 7.65654 28.3201 7.27691 28.3201L2.82548 28.5967L8.13991 23.2823C8.41602 23.0061 8.41602 22.5921 8.13991 22.316C7.86404 22.0399 7.41532 22.0399 7.13924 22.316L7.13938 22.3162Z" fill="#586AF6"/>
<path d="M29.4326 29.6673V29.6329C29.4326 29.5984 29.467 29.5638 29.467 29.5294V29.4603V29.3912V29.3568L29.0183 23.0759C28.9839 22.6963 28.6731 22.4202 28.2935 22.4202C27.9139 22.4546 27.6377 22.7654 27.6377 23.145L27.9483 27.5623L22.6685 22.3167C22.3924 22.0406 21.9783 22.0406 21.7022 22.3167C21.4261 22.5928 21.4261 23.0068 21.7022 23.283L26.9822 28.5974L22.565 28.2869C22.1853 28.2525 21.8401 28.563 21.8057 28.9426C21.7713 29.3223 22.0818 29.6675 22.4615 29.6675L28.7423 30.1162H28.7767H28.9147H28.9491C28.9835 30.1162 29.0182 30.1162 29.0526 30.0817C29.087 30.0817 29.087 30.0473 29.1217 30.0473C29.1561 30.0473 29.1561 30.0129 29.1908 30.0129C29.2252 29.9785 29.2599 29.9438 29.2943 29.9094L29.3978 29.8059V29.7715C29.3978 29.7363 29.3978 29.7019 29.4325 29.6675L29.4326 29.6673Z" fill="#586AF6"/>
</svg>
