<svg width="16" height="18" viewBox="0 0 16 18" fill="none" xmlns="http://www.w3.org/2000/svg">
<path d="M13 17.3333C12.3056 17.3333 11.7153 17.0903 11.2292 16.6042C10.7431 16.118 10.5 15.5278 10.5 14.8333C10.5 14.7361 10.5069 14.6353 10.5208 14.5308C10.5347 14.4264 10.5556 14.3328 10.5833 14.25L4.70833 10.8333C4.47222 11.0417 4.20833 11.205 3.91667 11.3233C3.625 11.4417 3.31944 11.5005 3 11.5C2.30556 11.5 1.71528 11.2569 1.22917 10.7708C0.743056 10.2847 0.5 9.69443 0.5 8.99999C0.5 8.30555 0.743056 7.71527 1.22917 7.22916C1.71528 6.74305 2.30556 6.49999 3 6.49999C3.31944 6.49999 3.625 6.55916 3.91667 6.67749C4.20833 6.79582 4.47222 6.95888 4.70833 7.16666L10.5833 3.74999C10.5556 3.66666 10.5347 3.57305 10.5208 3.46916C10.5069 3.36527 10.5 3.26443 10.5 3.16666C10.5 2.47221 10.7431 1.88193 11.2292 1.39582C11.7153 0.909712 12.3056 0.666656 13 0.666656C13.6944 0.666656 14.2847 0.909712 14.7708 1.39582C15.2569 1.88193 15.5 2.47221 15.5 3.16666C15.5 3.8611 15.2569 4.45138 14.7708 4.93749C14.2847 5.4236 13.6944 5.66666 13 5.66666C12.6806 5.66666 12.375 5.60777 12.0833 5.48999C11.7917 5.37221 11.5278 5.20888 11.2917 4.99999L5.41667 8.41666C5.44444 8.49999 5.46528 8.59388 5.47917 8.69832C5.49306 8.80277 5.5 8.90332 5.5 8.99999C5.5 9.09721 5.49306 9.19804 5.47917 9.30249C5.46528 9.40693 5.44444 9.50054 5.41667 9.58332L11.2917 13C11.5278 12.7917 11.7917 12.6286 12.0833 12.5108C12.375 12.393 12.6806 12.3339 13 12.3333C13.6944 12.3333 14.2847 12.5764 14.7708 13.0625C15.2569 13.5486 15.5 14.1389 15.5 14.8333C15.5 15.5278 15.2569 16.118 14.7708 16.6042C14.2847 17.0903 13.6944 17.3333 13 17.3333ZM13 3.99999C13.2361 3.99999 13.4342 3.91999 13.5942 3.75999C13.7542 3.59999 13.8339 3.40221 13.8333 3.16666C13.8333 2.93055 13.7533 2.73249 13.5933 2.57249C13.4333 2.41249 13.2356 2.33277 13 2.33332C12.7639 2.33332 12.5658 2.41332 12.4058 2.57332C12.2458 2.73332 12.1661 2.9311 12.1667 3.16666C12.1667 3.40277 12.2467 3.60082 12.4067 3.76082C12.5667 3.92082 12.7644 4.00055 13 3.99999ZM3 9.83332C3.23611 9.83332 3.43417 9.75332 3.59417 9.59332C3.75417 9.43332 3.83389 9.23555 3.83333 8.99999C3.83333 8.76388 3.75333 8.56582 3.59333 8.40582C3.43333 8.24582 3.23556 8.1661 3 8.16666C2.76389 8.16666 2.56583 8.24666 2.40583 8.40666C2.24583 8.56666 2.16611 8.76443 2.16667 8.99999C2.16667 9.2361 2.24667 9.43416 2.40667 9.59416C2.56667 9.75416 2.76444 9.83388 3 9.83332ZM13 15.6667C13.2361 15.6667 13.4342 15.5867 13.5942 15.4267C13.7542 15.2667 13.8339 15.0689 13.8333 14.8333C13.8333 14.5972 13.7533 14.3992 13.5933 14.2392C13.4333 14.0792 13.2356 13.9994 13 14C12.7639 14 12.5658 14.08 12.4058 14.24C12.2458 14.4 12.1661 14.5978 12.1667 14.8333C12.1667 15.0694 12.2467 15.2675 12.4067 15.4275C12.5667 15.5875 12.7644 15.6672 13 15.6667Z" fill="#192339"/>
</svg>
