<svg width="21" height="20" viewBox="0 0 21 20" fill="none" xmlns="http://www.w3.org/2000/svg">
<path fill-rule="evenodd" clip-rule="evenodd" d="M14.9247 11.8264C14.767 11.9594 14.6496 12.1336 14.5861 12.3298C14.5225 12.5258 14.5151 12.7357 14.5649 12.9357L15.9182 18.4564L11.0828 15.4624C10.9078 15.3532 10.7057 15.2954 10.4995 15.2954C10.2932 15.2954 10.0911 15.3532 9.91609 15.4624L5.0795 18.4554L6.43286 12.9347C6.48281 12.735 6.47554 12.5253 6.41199 12.3294C6.34829 12.1336 6.23093 11.9595 6.07306 11.8271L1.72808 8.15598L7.40264 7.73649H7.40249C7.60829 7.72197 7.80587 7.65015 7.97287 7.52921C8.13986 7.40812 8.26959 7.24285 8.34721 7.05195L10.4995 1.79103L12.6507 7.05274C12.7284 7.24381 12.8581 7.40938 13.0251 7.53064C13.1922 7.65173 13.3898 7.72371 13.5958 7.73822L19.2703 8.15771L14.9247 11.8264ZM20.5442 7.26418L13.6675 6.75631C13.6199 6.75631 13.5778 6.72558 13.5635 6.68032L10.9544 0.304742C10.8787 0.120319 10.6988 0 10.4994 0C10.2999 0 10.1201 0.120323 10.0443 0.304742L7.43652 6.68032C7.42075 6.72542 7.37838 6.75585 7.3306 6.75631L0.455899 7.26418C0.256593 7.27885 0.0860473 7.41261 0.0242114 7.60228C-0.0376364 7.79211 0.0214284 8.00046 0.173727 8.1296L5.43742 12.5776C5.47577 12.6058 5.49169 12.6552 5.47716 12.7004L3.83571 19.3899H3.83555C3.78762 19.5842 3.8623 19.7882 4.02434 19.9059C4.18638 20.0236 4.40362 20.0315 4.57386 19.926L10.4341 16.2981C10.4732 16.2705 10.5254 16.2705 10.5646 16.2981L16.4264 19.9246C16.5964 20.0298 16.8134 20.0218 16.9751 19.9041C17.1367 19.7864 17.2109 19.5825 17.1628 19.3885L15.5213 12.699H15.5212C15.5067 12.6539 15.5226 12.6043 15.5609 12.5762L20.8246 8.12981C20.9777 8.0013 21.0377 7.79294 20.9761 7.60297C20.9148 7.41283 20.7441 7.27907 20.5446 7.2644L20.5442 7.26418Z" fill="#192339"/>
</svg>
