<svg width="15" height="15" viewBox="0 0 15 15" fill="none" xmlns="http://www.w3.org/2000/svg">
<path d="M13.3438 10.7619V8.03125C13.3438 7.74946 13.2318 7.47921 13.0326 7.27995C12.8333 7.08069 12.563 6.96875 12.2813 6.96875H8.03126V4.23813C8.53204 4.10882 8.96848 3.80132 9.25876 3.37325C9.54904 2.94518 9.67324 2.42593 9.60807 1.91284C9.5429 1.39976 9.29283 0.928048 8.90475 0.586142C8.51667 0.244235 8.01722 0.055603 7.50001 0.055603C6.98279 0.055603 6.48334 0.244235 6.09526 0.586142C5.70718 0.928048 5.45711 1.39976 5.39194 1.91284C5.32677 2.42593 5.45097 2.94518 5.74125 3.37325C6.03153 3.80132 6.46797 4.10882 6.96876 4.23813V6.96875H2.71876C2.43696 6.96875 2.16671 7.08069 1.96745 7.27995C1.7682 7.47921 1.65626 7.74946 1.65626 8.03125V10.7619C1.15547 10.8912 0.719029 11.1987 0.428748 11.6268C0.138466 12.0548 0.0142713 12.5741 0.0794421 13.0872C0.144613 13.6002 0.394675 14.072 0.782757 14.4139C1.17084 14.7558 1.67029 14.9444 2.18751 14.9444C2.70472 14.9444 3.20417 14.7558 3.59225 14.4139C3.98033 14.072 4.2304 13.6002 4.29557 13.0872C4.36074 12.5741 4.23654 12.0548 3.94626 11.6268C3.65598 11.1987 3.21954 10.8912 2.71876 10.7619V8.03125H12.2813V10.7619C11.7805 10.8912 11.344 11.1987 11.0537 11.6268C10.7635 12.0548 10.6393 12.5741 10.7044 13.0872C10.7696 13.6002 11.0197 14.072 11.4078 14.4139C11.7958 14.7558 12.2953 14.9444 12.8125 14.9444C13.3297 14.9444 13.8292 14.7558 14.2173 14.4139C14.6053 14.072 14.8554 13.6002 14.9206 13.0872C14.9857 12.5741 14.8615 12.0548 14.5713 11.6268C14.281 11.1987 13.8445 10.8912 13.3438 10.7619ZM3.25001 12.8125C3.25001 13.0226 3.18769 13.2281 3.07094 13.4028C2.95419 13.5775 2.78825 13.7137 2.59411 13.7941C2.39996 13.8745 2.18633 13.8956 1.98022 13.8546C1.77412 13.8136 1.5848 13.7124 1.4362 13.5638C1.28761 13.4152 1.18642 13.2259 1.14542 13.0198C1.10442 12.8137 1.12546 12.6 1.20588 12.4059C1.2863 12.2118 1.42248 12.0458 1.59721 11.9291C1.77194 11.8123 1.97736 11.75 2.18751 11.75C2.4693 11.75 2.73955 11.8619 2.93881 12.0612C3.13806 12.2605 3.25001 12.5307 3.25001 12.8125ZM6.43751 2.1875C6.43751 1.97736 6.49982 1.77193 6.61657 1.59721C6.73332 1.42248 6.89926 1.2863 7.0934 1.20588C7.28755 1.12546 7.50118 1.10442 7.70729 1.14542C7.91339 1.18641 8.10271 1.28761 8.25131 1.4362C8.3999 1.58479 8.50109 1.77411 8.54209 1.98022C8.58309 2.18632 8.56205 2.39996 8.48163 2.5941C8.40121 2.78825 8.26503 2.95419 8.0903 3.07094C7.91557 3.18769 7.71015 3.25 7.50001 3.25C7.21821 3.25 6.94796 3.13806 6.7487 2.9388C6.54945 2.73954 6.43751 2.46929 6.43751 2.1875ZM12.8125 13.875C12.6024 13.875 12.3969 13.8127 12.2222 13.6959C12.0475 13.5792 11.9113 13.4132 11.8309 13.2191C11.7505 13.025 11.7294 12.8113 11.7704 12.6052C11.8114 12.3991 11.9126 12.2098 12.0612 12.0612C12.2098 11.9126 12.3991 11.8114 12.6052 11.7704C12.8113 11.7294 13.025 11.7505 13.2191 11.8309C13.4133 11.9113 13.5792 12.0475 13.6959 12.2222C13.8127 12.3969 13.875 12.6024 13.875 12.8125C13.875 13.0943 13.7631 13.3645 13.5638 13.5638C13.3645 13.7631 13.0943 13.875 12.8125 13.875Z" fill="#ffffff"/>
</svg>
