<svg width="20" height="28" viewBox="0 0 20 28" fill="none" xmlns="http://www.w3.org/2000/svg">
<path d="M9.16729 0.102637C9.0415 0.168262 8.91572 0.294043 8.8501 0.425293C8.75166 0.622168 8.74072 0.747949 8.74072 1.9292C8.74072 3.11592 8.75166 3.23623 8.8501 3.43311C8.97588 3.6792 9.2876 3.87061 9.56104 3.87061C9.83447 3.87061 10.1462 3.6792 10.272 3.43311C10.3704 3.23623 10.3813 3.11592 10.3813 1.9292C10.3813 0.74248 10.3704 0.622168 10.272 0.425293C10.0696 0.0260739 9.57744 -0.116114 9.16729 0.102637Z" fill="#EAF7EE"/>
<path d="M0.417251 2.78232C0.0508452 2.97373 -0.107749 3.46045 0.0781889 3.83232C0.198501 4.07295 1.94303 5.82295 2.18913 5.9542C2.30397 6.00889 2.46803 6.05811 2.561 6.05811C2.83444 6.05811 3.14616 5.8667 3.27194 5.62061C3.40866 5.35264 3.40866 5.12842 3.27741 4.86592C3.14616 4.61982 1.39616 2.87529 1.15553 2.75498C0.925845 2.64014 0.663345 2.64561 0.417251 2.78232Z" fill="#EAF7EE"/>
<path d="M17.9556 2.75502C17.7149 2.8808 15.9704 4.62533 15.8446 4.86596C15.7899 4.9808 15.7407 5.14486 15.7407 5.23783C15.7407 5.51127 15.9321 5.82299 16.1782 5.94877C16.4462 6.08549 16.6704 6.08549 16.9329 5.95424C17.179 5.82299 18.9235 4.07299 19.0438 3.83236C19.3774 3.15971 18.6173 2.41049 17.9556 2.75502Z" fill="#EAF7EE"/>
<path d="M8.76807 5.76825C6.18682 6.0745 4.054 7.36513 2.67588 9.45419C1.76807 10.8159 1.33057 12.2815 1.33057 13.9331C1.33057 15.8636 1.82275 17.0448 3.6876 19.5933C4.50244 20.7034 4.59541 20.8456 4.85244 21.3542C5.20791 22.0597 5.24072 22.2729 5.24072 24.0558C5.24072 24.9198 5.26807 25.7565 5.29541 25.9151C5.42119 26.5768 5.8915 27.2495 6.47666 27.605C7.05635 27.955 7.26963 27.9823 9.51182 27.9823C10.6384 27.9878 11.6446 27.9659 11.8087 27.9331C12.7821 27.7526 13.6462 26.8886 13.8267 25.9151C13.854 25.7565 13.8813 24.9198 13.8813 24.0558C13.8813 21.7753 13.9196 21.6604 15.3415 19.719C16.8837 17.6081 17.3868 16.6675 17.6876 15.3003C17.8243 14.6987 17.8243 13.255 17.6876 12.5386C17.0259 8.98388 14.2149 6.29325 10.6548 5.812C10.1298 5.74091 9.17822 5.71903 8.76807 5.76825ZM10.5454 7.44716C13.236 7.85732 15.4235 9.89716 16.0196 12.5659C16.1618 13.2112 16.211 14.0808 16.129 14.644C15.9485 15.869 15.5384 16.6729 14.0235 18.7401C13.0282 20.1018 12.4978 21.0589 12.3774 21.7097L12.3392 21.9175H11.3603H10.3813L10.3868 20.2604V18.6089L10.7259 18.4503C11.9782 17.8597 12.6017 15.9292 11.6938 15.4643C11.579 15.4042 11.404 15.355 11.311 15.355C10.8954 15.355 10.4907 15.7597 10.4907 16.1753C10.4907 16.7331 9.93291 17.187 9.36963 17.0831C8.99229 17.012 8.63135 16.5636 8.63135 16.1753C8.63135 15.9018 8.43994 15.5901 8.19385 15.4643C7.92041 15.3276 7.70166 15.3276 7.42822 15.4643C7.02354 15.6722 6.90322 16.137 7.07275 16.8042C7.25869 17.5042 7.78369 18.155 8.40713 18.4503L8.73525 18.6089V20.2604L8.74072 21.9175H7.76182H6.78291L6.74463 21.7097C6.62432 21.0643 6.09385 20.1018 5.10947 18.7565C3.6165 16.7058 3.22822 15.9729 3.02588 14.8245C2.7251 13.0854 3.354 11.0018 4.59541 9.64013C6.17588 7.90107 8.31416 7.11357 10.5454 7.44716ZM12.2407 24.5698C12.2407 25.68 12.2134 25.8222 11.9345 26.0847C11.847 26.1667 11.7048 26.2597 11.6228 26.287C11.5243 26.3253 10.7751 26.3472 9.55557 26.3472C7.47744 26.3472 7.42822 26.3417 7.14385 26.0409C6.90869 25.7839 6.88135 25.6362 6.88135 24.5643V23.5581H9.56104H12.2407V24.5698Z" fill="#EAF7EE"/>
</svg>
