<svg width="20" height="28" viewBox="0 0 20 28" fill="none" xmlns="http://www.w3.org/2000/svg">
<path d="M9.60625 0.114844C9.48047 0.180469 9.35469 0.30625 9.28906 0.4375C9.19062 0.634375 9.17969 0.760156 9.17969 1.94141C9.17969 3.12812 9.19062 3.24844 9.28906 3.44531C9.41484 3.69141 9.72656 3.88281 10 3.88281C10.2734 3.88281 10.5852 3.69141 10.7109 3.44531C10.8094 3.24844 10.8203 3.12812 10.8203 1.94141C10.8203 0.754687 10.8094 0.634375 10.7109 0.4375C10.5086 0.038281 10.0164 -0.103907 9.60625 0.114844Z" fill="#586AF6"/>
<path d="M0.856216 2.79453C0.48981 2.98594 0.331216 3.47266 0.517154 3.84453C0.637466 4.08516 2.382 5.83516 2.62809 5.96641C2.74293 6.02109 2.907 6.07031 2.99997 6.07031C3.2734 6.07031 3.58512 5.87891 3.7109 5.63281C3.84762 5.36484 3.84762 5.14062 3.71637 4.87813C3.58512 4.63203 1.83512 2.8875 1.5945 2.76719C1.36481 2.65234 1.10231 2.65781 0.856216 2.79453Z" fill="#586AF6"/>
<path d="M18.3945 2.76718C18.1539 2.89296 16.4094 4.63749 16.2836 4.87812C16.2289 4.99296 16.1797 5.15702 16.1797 5.24999C16.1797 5.52343 16.3711 5.83515 16.6172 5.96093C16.8852 6.09765 17.1094 6.09765 17.3719 5.9664C17.618 5.83515 19.3625 4.08515 19.4828 3.84452C19.8164 3.17187 19.0563 2.42265 18.3945 2.76718Z" fill="#586AF6"/>
<path d="M9.20703 5.78046C6.62578 6.08671 4.49297 7.37733 3.11484 9.4664C2.20703 10.8281 1.76953 12.2937 1.76953 13.9453C1.76953 15.8758 2.26172 17.057 4.12656 19.6055C4.94141 20.7156 5.03437 20.8578 5.29141 21.3664C5.64687 22.0719 5.67969 22.2851 5.67969 24.068C5.67969 24.932 5.70703 25.7687 5.73438 25.9273C5.86016 26.5891 6.33047 27.2617 6.91563 27.6172C7.49531 27.9672 7.70859 27.9945 9.95078 27.9945C11.0773 28 12.0836 27.9781 12.2477 27.9453C13.2211 27.7648 14.0852 26.9008 14.2656 25.9273C14.293 25.7687 14.3203 24.932 14.3203 24.068C14.3203 21.7875 14.3586 21.6726 15.7805 19.7312C17.3227 17.6203 17.8258 16.6797 18.1266 15.3125C18.2633 14.7109 18.2633 13.2672 18.1266 12.5508C17.4648 8.99609 14.6539 6.30546 11.0938 5.82421C10.5687 5.75312 9.61719 5.73124 9.20703 5.78046ZM10.9844 7.45937C13.675 7.86952 15.8625 9.90937 16.4586 12.5781C16.6008 13.2234 16.65 14.093 16.568 14.6562C16.3875 15.8812 15.9773 16.6851 14.4625 18.7523C13.4672 20.1141 12.9367 21.0711 12.8164 21.7219L12.7781 21.9297H11.7992H10.8203L10.8258 20.2726V18.6211L11.1648 18.4625C12.4172 17.8719 13.0406 15.9414 12.1328 15.4766C12.018 15.4164 11.843 15.3672 11.75 15.3672C11.3344 15.3672 10.9297 15.7719 10.9297 16.1875C10.9297 16.7453 10.3719 17.1992 9.80859 17.0953C9.43125 17.0242 9.07031 16.5758 9.07031 16.1875C9.07031 15.9141 8.87891 15.6023 8.63281 15.4766C8.35938 15.3398 8.14062 15.3398 7.86719 15.4766C7.4625 15.6844 7.34219 16.1492 7.51172 16.8164C7.69766 17.5164 8.22266 18.1672 8.84609 18.4625L9.17422 18.6211V20.2726L9.17969 21.9297H8.20078H7.22187L7.18359 21.7219C7.06328 21.0766 6.53281 20.1141 5.54844 18.7687C4.05547 16.718 3.66719 15.9851 3.46484 14.8367C3.16406 13.0976 3.79297 11.0141 5.03437 9.65234C6.61484 7.91327 8.75312 7.12577 10.9844 7.45937ZM12.6797 24.582C12.6797 25.6922 12.6523 25.8344 12.3734 26.0969C12.2859 26.1789 12.1438 26.2719 12.0617 26.2992C11.9633 26.3375 11.2141 26.3594 9.99453 26.3594C7.91641 26.3594 7.86719 26.3539 7.58281 26.0531C7.34766 25.7961 7.32031 25.6484 7.32031 24.5766V23.5703H10H12.6797V24.582Z" fill="#586AF6"/>
</svg>
