<svg width="24" height="24" viewBox="0 0 24 24" fill="none" xmlns="http://www.w3.org/2000/svg">
<path d="M4.47637 0.0658226C4.08262 0.164261 3.7873 0.33301 3.4873 0.633009C3.18262 0.937696 2.99512 1.27051 2.91074 1.67832C2.83574 2.03457 2.83574 19.9705 2.91074 20.3221C3.08418 21.1283 3.73105 21.7752 4.5373 21.9486C4.88887 22.0236 19.1061 22.0236 19.4623 21.9486C20.2592 21.7799 20.9201 21.1143 21.0889 20.3221C21.1264 20.1439 21.1404 19.7674 21.1404 14.1283C21.1404 6.94707 21.1311 6.16895 21.0654 6.03301C20.9623 5.82676 15.3467 0.201759 15.1311 0.0892601C14.9623 0.00488472 14.8123 0.000196457 9.83418 0.00488472C5.90137 0.00957298 4.65449 0.0236359 4.47637 0.0658226ZM14.1092 3.25801C14.1092 4.45801 14.1279 5.19395 14.1607 5.35332C14.3342 6.15957 14.9811 6.80645 15.7873 6.97988C15.9467 7.0127 16.6826 7.03145 17.8826 7.03145H19.7342V14.5314C19.7342 21.9611 19.7342 20.0361 19.6404 20.2189C19.5795 20.3408 19.4811 20.4393 19.3592 20.5002C19.1764 20.5939 19.0967 20.5939 11.9951 20.5939H4.81855L4.63105 20.4908C4.51855 20.4252 4.40605 20.3127 4.35449 20.2096C4.27012 20.0408 4.26543 21.7643 4.26543 11.9908C4.27012 2.40957 4.2748 1.93613 4.35449 1.78613C4.40137 1.70176 4.51855 1.57989 4.62168 1.51895L4.80449 1.40645H9.45918H14.1092V3.25801ZM17.3857 5.61582C16.0967 5.6252 16.0686 5.6252 15.8811 5.52207C15.5295 5.3252 15.5154 5.2502 15.5154 3.74082V2.41426L17.1092 4.00801L18.7029 5.60176L17.3857 5.61582Z" fill="#192339"/>
<path d="M7.44351 10.0359C7.24194 10.1391 7.07788 10.4156 7.07788 10.6406C7.07788 10.875 7.24194 11.1422 7.45288 11.25C7.63101 11.3438 7.72007 11.3438 11.9998 11.3438C16.2794 11.3438 16.3685 11.3438 16.5466 11.25C16.7576 11.1422 16.9216 10.875 16.9216 10.6406C16.9216 10.4062 16.7576 10.1391 16.5466 10.0312C16.3685 9.9375 16.2841 9.9375 11.9904 9.9375C7.72944 9.94219 7.61226 9.94219 7.44351 10.0359Z" fill="#192339"/>
<path d="M7.44351 12.8484C7.24194 12.9516 7.07788 13.2281 7.07788 13.4531C7.07788 13.6875 7.24194 13.9547 7.45288 14.0625C7.63101 14.1562 7.72007 14.1562 11.9998 14.1562C16.2794 14.1562 16.3685 14.1562 16.5466 14.0625C16.7576 13.9547 16.9216 13.6875 16.9216 13.4531C16.9216 13.2187 16.7576 12.9516 16.5466 12.8438C16.3685 12.75 16.2841 12.75 11.9904 12.75C7.72944 12.7547 7.61226 12.7547 7.44351 12.8484Z" fill="#192339"/>
<path d="M7.44351 15.6609C7.24194 15.7641 7.07788 16.0406 7.07788 16.2656C7.07788 16.5 7.24194 16.7672 7.45288 16.875C7.63101 16.9688 7.72007 16.9688 11.9998 16.9688C16.2794 16.9688 16.3685 16.9688 16.5466 16.875C16.7576 16.7672 16.9216 16.5 16.9216 16.2656C16.9216 16.0312 16.7576 15.7641 16.5466 15.6562C16.3685 15.5625 16.2841 15.5625 11.9904 15.5625C7.72944 15.5672 7.61226 15.5672 7.44351 15.6609Z" fill="#192339"/>
</svg>
