<svg width="22" height="12" viewBox="0 0 22 12" fill="none" xmlns="http://www.w3.org/2000/svg">
<path fill-rule="evenodd" clip-rule="evenodd" d="M18.4243 0L18.5037 0.00383701C18.9219 0.0437419 19.2488 0.395981 19.2488 0.824577L19.2485 8.18476L20.5852 6.84376L20.6478 6.78697C20.9712 6.52222 21.4493 6.54026 21.7521 6.84184L21.7593 6.84913L21.8157 6.91206C22.079 7.23552 22.0602 7.71246 21.7593 8.01447L19.0228 10.7598L18.9599 10.8166C18.8091 10.9402 18.6245 11.0019 18.4396 11.0023H18.4246L18.3437 10.9996C18.1549 10.9843 17.9703 10.9045 17.8261 10.7598L15.0895 8.01446C14.7684 7.69216 14.7684 7.17147 15.0895 6.84919L15.0968 6.8419C15.4195 6.52036 15.9421 6.52113 16.2637 6.84382L17.5998 8.18482L17.6001 0.824635L17.604 0.745209C17.6439 0.326976 17.9961 0 18.4243 0ZM12.9266 8.80246C13.382 8.80246 13.7515 9.17196 13.7515 9.62741C13.7515 10.0564 13.4242 10.409 13.006 10.4489L12.9266 10.4528H0.824954C0.369503 10.4528 0 10.0833 0 9.62742C0 9.19882 0.327294 8.84621 0.745527 8.8063L0.824953 8.80246H12.9266ZM12.9266 4.95204C13.382 4.95204 13.7515 5.32116 13.7515 5.77699C13.7515 6.20597 13.4242 6.55821 13.006 6.5985L12.9266 6.60195H3.57503C3.11958 6.60195 2.75007 6.23283 2.75007 5.777C2.75007 5.34802 3.07737 4.99579 3.4956 4.95588L3.57503 4.95204H12.9266ZM6.3254 1.10123H12.9266C13.382 1.10123 13.7515 1.47073 13.7515 1.92656C13.7515 2.35554 13.4242 2.70778 13.006 2.74769L12.9266 2.75152H6.3254C5.86995 2.75152 5.50044 2.38241 5.50044 1.92657C5.50044 1.49759 5.82774 1.14536 6.24597 1.10506L6.3254 1.10123Z" fill="#9196A2"/>
</svg>
