<svg width="20" height="18" viewBox="0 0 20 18" fill="none" xmlns="http://www.w3.org/2000/svg">
<path d="M9.40542 0.742867C8.08253 0.981615 6.98664 1.99531 6.63047 3.30647C6.51306 3.737 6.50131 4.54326 6.6109 4.96987C6.83008 5.8231 7.33889 6.57066 8.0199 7.04424C8.29388 7.2321 8.81443 7.46694 9.15885 7.55696C9.60112 7.67437 10.3996 7.67437 10.8418 7.55696C11.1862 7.46694 11.7068 7.2321 11.9808 7.04424C12.6618 6.57066 13.1706 5.8231 13.3898 4.96987C13.4994 4.54326 13.4876 3.737 13.3702 3.30647C13.0493 2.11664 12.1882 1.22819 10.9788 0.840714C10.7009 0.750695 10.56 0.731125 10.1178 0.719384C9.82812 0.71547 9.50718 0.723298 9.40542 0.742867ZM10.5444 1.9366C10.9397 2.03054 11.3115 2.2458 11.6285 2.56283C12.9201 3.86224 12.2547 6.06185 10.4504 6.43758C9.9338 6.54717 9.47979 6.48064 8.95924 6.22623C7.8203 5.66263 7.37411 4.28494 7.95337 3.12251C8.22734 2.57457 8.84574 2.08533 9.43673 1.94052C9.74202 1.86615 10.2352 1.86615 10.5444 1.9366Z" fill="#192339"/>
<path d="M3.28756 4.00708C2.77875 4.13232 2.36779 4.38281 1.98423 4.79377C0.954879 5.89357 1.10752 7.69005 2.30126 8.59416C2.57915 8.80551 2.99402 9.00512 3.30713 9.0834C3.5811 9.14993 4.20341 9.14993 4.4813 9.0834C4.78658 9.00903 5.28365 8.76246 5.54979 8.55111C5.94901 8.23408 6.31691 7.64309 6.44216 7.12254C6.51261 6.82117 6.50478 6.21843 6.4265 5.90923C6.19167 4.99338 5.42063 4.22626 4.51652 4.01099C4.21515 3.94054 3.56153 3.94054 3.28756 4.00708ZM4.30126 5.17342C4.69656 5.27909 5.11535 5.68222 5.25233 6.08536C5.34235 6.36324 5.33061 6.7742 5.22494 7.06383C5.09969 7.38868 4.74353 7.74485 4.42259 7.86618C3.90987 8.05796 3.33844 7.95228 2.94314 7.5922C2.16427 6.88379 2.39128 5.62352 3.36975 5.2243C3.63198 5.11471 4.01163 5.09514 4.30126 5.17342Z" fill="#192339"/>
<path d="M15.4641 4.01099C14.5678 4.238 13.8085 5.00121 13.5737 5.90923C13.4954 6.21843 13.4876 6.82117 13.5581 7.12254C13.6833 7.64309 14.0512 8.23408 14.4504 8.55111C14.7166 8.76246 15.2136 9.00903 15.5189 9.0834C15.7968 9.14993 16.4191 9.14993 16.6931 9.0834C17.0062 9.00512 17.4211 8.80551 17.699 8.59416C18.6735 7.85835 18.9788 6.4924 18.423 5.36129C18.3134 5.13428 18.1999 4.98555 17.926 4.71549C17.5698 4.35933 17.3467 4.21843 16.8692 4.05013C16.5992 3.95228 15.7811 3.93271 15.4641 4.01099ZM16.5992 5.20864C17.5933 5.58046 17.8438 6.87205 17.0571 7.5922C16.6618 7.95228 16.0903 8.05796 15.5776 7.86618C15.2567 7.74485 14.9005 7.38868 14.7753 7.06383C14.6696 6.7742 14.6579 6.36324 14.7479 6.08536C14.877 5.69788 15.3037 5.27909 15.6716 5.17733C15.9299 5.10297 16.3565 5.11862 16.5992 5.20864Z" fill="#192339"/>
<path d="M7.58904 8.05812C6.83757 8.24208 6.12916 8.75871 5.76517 9.38493C5.6908 9.51801 5.62818 9.58454 5.59296 9.5728C5.39335 9.49452 4.7593 9.46713 3.65166 9.47887C2.52446 9.49452 2.40313 9.50626 2.13307 9.58454C1.62427 9.73718 1.25636 9.95636 0.861057 10.3517C0.469667 10.7391 0.258317 11.0875 0.0900196 11.6237C0 11.9133 0 11.9329 0 13.8742C0 16.0268 0 16.0425 0.238748 16.4417C0.465753 16.8213 0.841487 17.111 1.2681 17.2362C1.45988 17.291 2.34051 17.2988 10 17.2988C17.6595 17.2988 18.5401 17.291 18.7319 17.2362C19.1585 17.111 19.5342 16.8213 19.7613 16.4417C20 16.0425 20 16.0268 20 13.8742C20 11.9329 20 11.9133 19.91 11.6237C19.7417 11.0875 19.5303 10.7391 19.1389 10.3517C18.7436 9.95636 18.3757 9.73718 17.8669 9.58454C17.5969 9.50626 17.4755 9.49452 16.3483 9.47887C15.2407 9.46713 14.6067 9.49452 14.407 9.5728C14.3718 9.58454 14.3092 9.51801 14.2348 9.38493C13.9648 8.91918 13.5029 8.50822 12.9628 8.25773C12.3796 7.98767 12.3366 7.98376 9.9726 7.98767C8.10567 7.98767 7.83562 7.9955 7.58904 8.05812ZM12.1957 9.22055C12.5284 9.3184 12.7397 9.44364 12.9706 9.67065C13.1977 9.90157 13.3229 10.1129 13.4207 10.4456C13.4755 10.6335 13.4834 10.9935 13.4834 13.3928V16.1247H10H6.51663V13.3928C6.51663 10.4339 6.51272 10.4887 6.7319 10.0581C6.84149 9.84286 7.18591 9.49061 7.39726 9.38102C7.82387 9.16184 7.82387 9.16184 9.98434 9.16184C11.7104 9.15793 12.0117 9.16576 12.1957 9.22055ZM5.2955 10.6961C5.33072 10.7196 5.34247 11.3106 5.34247 13.428V16.1247H3.44814H1.55773L1.42466 16.0346C1.1546 15.8546 1.1546 15.8703 1.1546 13.9877C1.1546 13.0014 1.17025 12.2108 1.19374 12.0894C1.32681 11.3888 1.90998 10.8057 2.60274 10.6883C2.86106 10.6452 5.22505 10.653 5.2955 10.6961ZM17.3581 10.6883C18.0822 10.8018 18.6693 11.3693 18.8063 12.0894C18.8297 12.2108 18.8454 13.0014 18.8454 13.9877C18.8454 15.8703 18.8454 15.8546 18.5753 16.0346L18.4423 16.1247H16.5479H14.6575L14.6654 13.4123L14.6771 10.7039L14.8141 10.6804C15.0489 10.6374 17.092 10.6452 17.3581 10.6883Z" fill="#192339"/>
</svg>
