<svg width="18" height="19" viewBox="0 0 18 19" fill="none" xmlns="http://www.w3.org/2000/svg">
<path d="M17.445 12.9372H13.9094V9.40163C13.9094 9.09518 13.6609 8.84668 13.3545 8.84668C13.048 8.84668 12.7995 9.0952 12.7995 9.40163V12.9372H9.26394C8.95749 12.9372 8.70898 13.1857 8.70898 13.4922C8.70898 13.7986 8.9575 14.0471 9.26394 14.0471H12.7995V17.5827C12.7995 17.8892 13.048 18.1377 13.3545 18.1377C13.6609 18.1377 13.9094 17.8891 13.9094 17.5827V14.0471H17.445C17.7515 14.0471 18 13.7986 18 13.4922C18 13.1857 17.7514 12.9372 17.445 12.9372Z" fill="#192339"/>
<path d="M10.8556 16.6219H1.10977V13.77C1.10977 11.6674 2.82035 9.95659 4.92322 9.95659H10.8556C11.1621 9.95659 11.4106 9.70807 11.4106 9.40163C11.4106 9.0952 11.1621 8.84668 10.8556 8.84668H4.92322C2.2086 8.84668 0 11.0552 0 13.7699V17.1767C0 17.4831 0.248517 17.7316 0.554953 17.7316L10.8555 17.7318C11.162 17.7318 11.4105 17.4832 11.4105 17.1768C11.4105 16.8704 11.162 16.6219 10.8555 16.6219L10.8556 16.6219Z" fill="#192339"/>
<path d="M7.88936 7.91738C10.0722 7.91738 11.848 6.14155 11.848 3.95869C11.8482 1.77587 10.0722 0 7.88936 0C5.70653 0 3.93066 1.77597 3.93066 3.95869C3.93066 6.14151 5.70664 7.91738 7.88936 7.91738ZM7.88936 1.10977C9.46008 1.10977 10.7382 2.38776 10.7382 3.95866C10.7382 5.52955 9.46025 6.80755 7.88936 6.80755C6.31863 6.80755 5.04047 5.52955 5.04047 3.95866C5.0406 2.3878 6.3186 1.10977 7.88936 1.10977Z" fill="#192339"/>
</svg>
