<svg width="20" height="20" viewBox="0 0 20 20" fill="none" xmlns="http://www.w3.org/2000/svg">
<path d="M9.06541 0.0515454C7.50465 0.274499 6.15481 1.19369 5.31116 2.60964C4.72061 3.60315 4.46751 4.8822 4.64008 6.0439C4.83182 7.38162 5.47989 8.56289 6.47693 9.40776C6.6495 9.55249 6.661 9.57204 6.59198 9.59942C5.90939 9.84193 5.06957 10.2526 4.49052 10.6242C3.91914 10.988 3.44363 11.3713 2.89909 11.9072C1.54541 13.2293 0.605894 14.8682 0.122713 16.7496C0.0230086 17.1407 0 17.2972 0 17.6531C0 18.0247 0.0153391 18.1264 0.107374 18.3963C0.356634 19.1277 0.885833 19.6636 1.60677 19.91L1.8752 20H6.94094H12.0028L12.1601 19.8944C12.3978 19.734 12.4975 19.5424 12.4975 19.2373C12.4975 18.9322 12.3978 18.7405 12.1601 18.5801L12.0028 18.4745L7.03681 18.455C2.45426 18.4354 2.05927 18.4315 1.94807 18.3689C1.6988 18.232 1.5109 17.9191 1.5109 17.6414C1.5109 17.5045 1.69114 16.8043 1.84069 16.3623C2.10913 15.5722 2.66133 14.5592 3.19437 13.8786C3.70439 13.2293 4.45984 12.5291 5.15394 12.0636C6.51912 11.1484 7.91497 10.6985 9.56393 10.6438C10.8409 10.6008 11.9722 10.8276 13.299 11.3948C13.5713 11.5121 13.6748 11.5356 13.8052 11.52C14.2922 11.4652 14.6182 10.9723 14.4686 10.5108C14.3612 10.1861 14.1388 10.0336 13.3412 9.73241C13.1533 9.6581 12.9807 9.58769 12.9654 9.57595C12.95 9.56031 13.0344 9.46643 13.1571 9.36474C13.2798 9.25913 13.5061 9.03617 13.6595 8.86016C15.5155 6.76753 15.435 3.55622 13.4754 1.55746C12.3135 0.372285 10.6913 -0.179231 9.06541 0.0515454ZM10.4958 1.6396C11.2359 1.79215 11.8533 2.12853 12.3863 2.66831C12.9194 3.21592 13.2453 3.83784 13.3987 4.6084C13.6825 6.01261 13.0612 7.5772 11.8955 8.39469C10.8179 9.14961 9.41054 9.26695 8.23709 8.69979C7.8076 8.49248 7.60436 8.35167 7.28224 8.04266C6.36572 7.17041 5.94006 5.83269 6.18933 4.6084C6.34272 3.83784 6.66867 3.21592 7.20171 2.66831C8.0837 1.77259 9.30316 1.38927 10.4958 1.6396Z" fill="#9196A2"/>
<path d="M16.2481 13.0325C16.0815 13.0806 15.8481 13.3284 15.8 13.4985C15.7741 13.5836 15.7593 14.068 15.7593 14.7004V15.7618L14.6185 15.7729L13.4741 15.784L13.3259 15.8839C13.0963 16.0355 13 16.2167 13 16.5052C13 16.7936 13.0963 16.9748 13.3259 17.1265L13.4741 17.2263L14.6148 17.2374L15.7556 17.2485L15.7667 18.3839C15.7778 19.5044 15.7778 19.5192 15.8667 19.6598C15.9148 19.7374 16.0222 19.8447 16.1037 19.9001C16.2296 19.9852 16.2963 20 16.5 20C16.7037 20 16.7704 19.9852 16.8963 19.9001C16.9778 19.8447 17.0852 19.7374 17.1333 19.6598C17.2222 19.5192 17.2222 19.5044 17.2333 18.3839L17.2444 17.2485L18.3815 17.2374C19.5037 17.2263 19.5185 17.2263 19.6593 17.1376C19.737 17.0895 19.8444 16.9822 19.9 16.9009C19.9852 16.7751 20 16.7086 20 16.5052C20 16.3018 19.9852 16.2352 19.9 16.1095C19.8444 16.0281 19.737 15.9208 19.6593 15.8728C19.5185 15.784 19.5037 15.784 18.3815 15.7729L17.2444 15.7618L17.2333 14.6265C17.2222 13.5059 17.2222 13.4911 17.1333 13.3506C16.9593 13.0695 16.5741 12.9327 16.2481 13.0325Z" fill="#9196A2"/>
</svg>
