<svg width="19" height="18" viewBox="0 0 19 18" fill="none" xmlns="http://www.w3.org/2000/svg">
<path d="M1.5 4V14.3C1.5 14.81 2.09 15.11 2.5 14.8L4.63 13.19C4.73 13.1 4.86 13.06 5 13.06H13.07C14.45 13.06 15.57 11.94 15.57 10.56V4C15.57 2.62 14.45 1.5 13.07 1.5H4C2.62 1.5 1.5 2.62 1.5 4Z" stroke="white" stroke-width="1.2" stroke-miterlimit="10" stroke-linecap="round" stroke-linejoin="round"/>
<path d="M9.27018 5.85999H6.18018" stroke="white" stroke-width="1.2" stroke-miterlimit="10" stroke-linecap="round" stroke-linejoin="round"/>
<path d="M10.8902 8.58997H6.18018" stroke="white" stroke-width="1.2" stroke-miterlimit="10" stroke-linecap="round" stroke-linejoin="round"/>
<path d="M18.2399 6.33997V16.83C18.2399 17.27 17.7299 17.53 17.3799 17.26L15.5499 15.87C15.4599 15.8 15.3399 15.76 15.2299 15.76H6.6499" stroke="white" stroke-width="1.2" stroke-miterlimit="10" stroke-linecap="round" stroke-linejoin="round"/>
</svg>
