<svg width="6" height="6" viewBox="0 0 6 6" fill="none" xmlns="http://www.w3.org/2000/svg">
<path d="M0.136877 0.136878C0.31938 -0.0456261 0.615182 -0.0456261 0.797588 0.136878L3 2.33931L5.20241 0.136878C5.38492 -0.0456261 5.68072 -0.0456261 5.86312 0.136878C6.04563 0.319383 6.04563 0.615186 5.86312 0.797593L3.66071 3.00002L5.86312 5.20245C6.04563 5.38495 6.04563 5.68076 5.86312 5.86316C5.68062 6.04567 5.38482 6.04556 5.20241 5.86316L3 3.66073L0.797588 5.86316C0.615084 6.04556 0.319283 6.04556 0.136877 5.86316C-0.0456258 5.68066 -0.0456258 5.38486 0.136877 5.20245L2.33929 3.00002L0.136877 0.797593C-0.0456258 0.615088 -0.0456258 0.319285 0.136877 0.136878Z" fill="#01BEA3"/>
</svg>
