<svg width="8" height="13" viewBox="0 0 8 13" fill="none" xmlns="http://www.w3.org/2000/svg">
<path d="M1.2842 12.7042C1.37716 12.7979 1.48777 12.8723 1.60962 12.9231C1.73148 12.9739 1.86219 13 1.9942 13C2.12621 13 2.25692 12.9739 2.37878 12.9231C2.50064 12.8723 2.61124 12.7979 2.7042 12.7042L7.7042 7.7042C7.79793 7.61124 7.87232 7.50064 7.92309 7.37878C7.97386 7.25692 8 7.12621 8 6.9942C8 6.86219 7.97386 6.73148 7.92309 6.60962C7.87232 6.48777 7.79793 6.37716 7.7042 6.2842L2.7042 1.2842C2.61124 1.19047 2.50064 1.11608 2.37878 1.06531C2.25692 1.01454 2.12621 0.988403 1.9942 0.988403C1.86219 0.988403 1.73148 1.01454 1.60963 1.06531C1.48777 1.11608 1.37717 1.19047 1.2842 1.2842C1.19047 1.37717 1.11608 1.48776 1.06531 1.60962C1.01454 1.73148 0.988404 1.86219 0.988404 1.9942C0.988404 2.12621 1.01454 2.25692 1.06531 2.37878C1.11608 2.50064 1.19047 2.61124 1.2842 2.7042L5.5842 6.9942L1.2842 11.2842C1.19047 11.3772 1.11608 11.4878 1.06531 11.6096C1.01454 11.7315 0.988403 11.8622 0.988403 11.9942C0.988403 12.1262 1.01454 12.2569 1.06531 12.3788C1.11608 12.5006 1.19047 12.6112 1.2842 12.7042Z" fill="#586AF6"/>
</svg>
