<svg width="11" height="10" viewBox="0 0 11 10" fill="none" xmlns="http://www.w3.org/2000/svg">
<path d="M10.1496 4.50872L8.41884 6.0815C7.87073 6.58035 7.14029 6.85564 6.3646 6.85564C5.58891 6.85564 4.85849 6.5809 4.31035 6.0815C4.13113 5.91857 4.13113 5.65434 4.31035 5.49141C4.48958 5.32792 4.78023 5.32904 4.95946 5.49141C5.71129 6.17488 7.02044 6.17488 7.7711 5.49141L9.50181 3.91863C10.2769 3.21404 10.2769 2.06728 9.50181 1.36217C8.72552 0.657007 7.46468 0.658127 6.68965 1.36217L5.82466 2.14908C5.64543 2.31201 5.35478 2.31201 5.17555 2.14908C4.99633 1.98671 4.99633 1.72192 5.17555 1.55899L6.04054 0.772079C7.17356 -0.256799 9.01735 -0.25792 10.1502 0.772079C11.2833 1.80263 11.2833 3.47822 10.1502 4.5081L10.1496 4.50872ZM5.17466 7.85172L4.30967 8.63806C3.53461 9.34155 2.27378 9.34265 1.49751 8.63806C0.722448 7.9329 0.722448 6.78671 1.49751 6.0816L3.22822 4.50882C3.97882 3.82592 5.28921 3.82592 6.03986 4.50882C6.21908 4.67175 6.50974 4.67175 6.68897 4.50882C6.86819 4.34645 6.86819 4.08166 6.68897 3.91873C6.14085 3.41988 5.41041 3.14514 4.63472 3.14514C3.85903 3.14514 3.12862 3.41988 2.58048 3.91873L0.849763 5.49151C-0.283254 6.52205 -0.283254 8.19718 0.849763 9.22753C1.41621 9.74247 2.16078 10 2.90401 10C3.64735 10 4.39302 9.74247 4.95886 9.22753L5.82385 8.44119C6.00307 8.27826 6.00307 8.01403 5.82385 7.8511C5.64462 7.68817 5.35396 7.68817 5.17474 7.8511L5.17466 7.85172Z" fill="#192339"/>
</svg>
