  <svg width="18" height="18" viewBox="0 0 18 18" fill="none" xmlns="http://www.w3.org/2000/svg">
                <path d="M16.1053 11.5113H10.5641C10.0617 11.5113 9.57981 11.7109 9.22442 12.0662C8.86907 12.4216 8.66951 12.9035 8.66951 13.4061V16.1051C8.66951 16.6076 8.86907 17.0895 9.22442 17.4449C9.57978 17.8001 10.0617 17.9998 10.5641 17.9998H16.1053C16.6078 17.9998 17.0897 17.8001 17.4451 17.4449C17.8003 17.0895 18 16.6076 18 16.1051V13.4061C18 12.9035 17.8003 12.4216 17.4451 12.0662C17.0897 11.7109 16.6078 11.5113 16.1053 11.5113ZM17.0525 16.1052C17.0525 16.3565 16.9527 16.5974 16.7751 16.7751C16.5974 16.9527 16.3565 17.0525 16.1052 17.0525H10.5641C10.3129 17.0525 10.0719 16.9527 9.89431 16.7751C9.71655 16.5973 9.61677 16.3565 9.61677 16.1052V13.4062C9.61677 13.1549 9.71655 12.9139 9.89431 12.7363C10.0719 12.5585 10.3129 12.4587 10.5641 12.4587H16.1052C16.3565 12.4587 16.5974 12.5585 16.7751 12.7363C16.9527 12.9139 17.0525 13.1549 17.0525 13.4062V16.1052ZM5.54134 7.72186H1.89492C1.39235 7.72186 0.910474 7.9216 0.55509 8.27679C0.1999 8.63215 0.000169077 9.11406 0.000169077 9.61663V16.1052C0.000169077 16.6078 0.199904 17.0897 0.55509 17.4451C0.910444 17.8003 1.39235 18 1.89492 18H5.54134C6.04373 18 6.52578 17.8003 6.881 17.4451C7.23635 17.0897 7.43609 16.6078 7.43609 16.1052V9.61663C7.43609 9.11406 7.23635 8.63218 6.881 8.27679C6.52581 7.9216 6.04373 7.72186 5.54134 7.72186ZM6.48861 16.1052C6.48861 16.3565 6.38882 16.5974 6.21123 16.7751C6.03347 16.9527 5.7926 17.0525 5.54131 17.0525H1.89489C1.64361 17.0525 1.40273 16.9527 1.22498 16.7751C1.04738 16.5973 0.947598 16.3565 0.947598 16.1052V9.61659C0.947598 9.36531 1.04738 9.12443 1.22498 8.94667C1.40274 8.76907 1.64361 8.66929 1.89489 8.66929H5.54131C5.79259 8.66929 6.03347 8.76907 6.21123 8.94667C6.38882 9.12443 6.48861 9.3653 6.48861 9.61659V16.1052ZM16.1051 0H10.5639C10.0615 0 9.57964 0.199737 9.22426 0.554927C8.8689 0.910286 8.66933 1.3922 8.66933 1.89477V8.38337C8.66933 8.88594 8.8689 9.36782 9.22426 9.72321C9.57961 10.0784 10.0615 10.2781 10.5639 10.2781H16.1051C16.6076 10.2781 17.0895 10.0784 17.4449 9.72321C17.8001 9.36785 17.9998 8.88594 17.9998 8.38337V1.89477C17.9998 1.3922 17.8001 0.910315 17.4449 0.554927C17.0896 0.199733 16.6076 0 16.1051 0ZM17.0523 8.38333C17.0523 8.63461 16.9526 8.87549 16.775 9.05325C16.5972 9.23084 16.3563 9.33063 16.1051 9.33063H10.5639C10.3128 9.33063 10.0717 9.23084 9.89414 9.05325C9.71638 8.87549 9.6166 8.63461 9.6166 8.38333V1.89473C9.6166 1.64345 9.71638 1.40256 9.89414 1.22481C10.0717 1.04721 10.3128 0.947423 10.5639 0.947423H16.1051C16.3563 0.947423 16.5972 1.04721 16.775 1.22481C16.9526 1.40257 17.0523 1.64344 17.0523 1.89473V8.38333ZM5.54117 0H1.89475C1.39219 0 0.910305 0.199737 0.55492 0.554927C0.199731 0.910286 0 1.3922 0 1.89477V4.59374C0 5.09631 0.199735 5.5782 0.55492 5.93359C0.910275 6.28894 1.39219 6.48851 1.89475 6.48851H5.54117C6.04356 6.48851 6.52561 6.28894 6.88083 5.93359C7.23618 5.57823 7.43592 5.09631 7.43592 4.59374V1.89477C7.43592 1.3922 7.23618 0.910315 6.88083 0.554927C6.52564 0.199733 6.04356 0 5.54117 0ZM6.48844 4.59387C6.48844 4.84515 6.38865 5.0862 6.21106 5.26379C6.0333 5.44155 5.79243 5.54134 5.54114 5.54134H1.89472C1.64345 5.54134 1.40256 5.44155 1.22481 5.26379C1.04721 5.08619 0.947429 4.84516 0.947429 4.59387V1.8949C0.947429 1.64362 1.04721 1.40273 1.22481 1.22498C1.40257 1.04738 1.64344 0.947592 1.89472 0.947592H5.54114C5.79242 0.947592 6.0333 1.04738 6.21106 1.22498C6.38865 1.40274 6.48844 1.64361 6.48844 1.8949V4.59387Z" fill="#192339"/>
                </svg>