<svg width="20" height="23" viewBox="0 0 20 23" fill="none" xmlns="http://www.w3.org/2000/svg">
<path d="M2.47637 0.0656395C2.08262 0.164077 1.7873 0.332826 1.4873 0.632826C1.18262 0.937513 0.995117 1.27033 0.910742 1.67814C0.835742 2.03439 0.835742 19.9703 0.910742 20.3219C1.08418 21.1281 1.73105 21.775 2.5373 21.9484C2.88887 22.0234 17.1061 22.0234 17.4623 21.9484C18.2592 21.7797 18.9201 21.1141 19.0889 20.3219C19.1264 20.1438 19.1404 19.7672 19.1404 14.1281C19.1404 6.94689 19.1311 6.16876 19.0654 6.03283C18.9623 5.82658 13.3467 0.201577 13.1311 0.089077C12.9623 0.004702 12.8123 1.41147e-05 7.83418 0.00470161C3.90137 0.00938911 2.65449 0.023452 2.47637 0.0656395ZM12.1092 3.25783C12.1092 4.45783 12.1279 5.19376 12.1607 5.35314C12.3342 6.15939 12.9811 6.80626 13.7873 6.9797C13.9467 7.01251 14.6826 7.03126 15.8826 7.03126H17.7342V14.5313C17.7342 21.9609 17.7342 20.0359 17.6404 20.2188C17.5795 20.3406 17.4811 20.4391 17.3592 20.5C17.1764 20.5938 17.0967 20.5938 9.99512 20.5938H2.81855L2.63105 20.4906C2.51855 20.425 2.40605 20.3125 2.35449 20.2094C2.27012 20.0406 2.26543 21.7641 2.26543 11.9906C2.27012 2.40939 2.2748 1.93595 2.35449 1.78595C2.40137 1.70158 2.51855 1.5797 2.62168 1.51876L2.80449 1.40626H7.45918H12.1092V3.25783ZM15.3857 5.61564C14.0967 5.62501 14.0686 5.62501 13.8811 5.52189C13.5295 5.32501 13.5154 5.25001 13.5154 3.74064V2.41408L15.1092 4.00783L16.7029 5.60158L15.3857 5.61564Z" fill="#9196A2"/>
<path d="M5.44375 10.0359C5.24219 10.1391 5.07812 10.4156 5.07812 10.6406C5.07812 10.875 5.24219 11.1422 5.45313 11.25C5.63125 11.3438 5.72031 11.3438 10 11.3438C14.2797 11.3438 14.3688 11.3438 14.5469 11.25C14.7578 11.1422 14.9219 10.875 14.9219 10.6406C14.9219 10.4062 14.7578 10.1391 14.5469 10.0312C14.3688 9.9375 14.2844 9.9375 9.99063 9.9375C5.72969 9.94219 5.6125 9.94219 5.44375 10.0359Z" fill="#9196A2"/>
<path d="M5.44375 12.8484C5.24219 12.9516 5.07812 13.2281 5.07812 13.4531C5.07812 13.6875 5.24219 13.9547 5.45313 14.0625C5.63125 14.1562 5.72031 14.1562 10 14.1562C14.2797 14.1562 14.3688 14.1562 14.5469 14.0625C14.7578 13.9547 14.9219 13.6875 14.9219 13.4531C14.9219 13.2187 14.7578 12.9516 14.5469 12.8437C14.3688 12.75 14.2844 12.75 9.99063 12.75C5.72969 12.7547 5.6125 12.7547 5.44375 12.8484Z" fill="#9196A2"/>
<path d="M5.44375 15.6609C5.24219 15.7641 5.07812 16.0406 5.07812 16.2656C5.07812 16.5 5.24219 16.7672 5.45313 16.875C5.63125 16.9688 5.72031 16.9688 10 16.9688C14.2797 16.9688 14.3688 16.9688 14.5469 16.875C14.7578 16.7672 14.9219 16.5 14.9219 16.2656C14.9219 16.0312 14.7578 15.7641 14.5469 15.6562C14.3688 15.5625 14.2844 15.5625 9.99063 15.5625C5.72969 15.5672 5.6125 15.5672 5.44375 15.6609Z" fill="#9196A2"/>
</svg>
