<svg width="24" height="26" viewBox="0 0 24 26" fill="none" xmlns="http://www.w3.org/2000/svg">
<path d="M23.9597 4.90983C23.9342 4.84805 23.8966 4.79198 23.8494 4.74479L19.2537 0.149088C19.2065 0.1019 19.1504 0.0645156 19.0888 0.0387563C19.0268 0.0129965 18.9603 -0.000225276 18.8933 2.90389e-06H6.93277C6.31318 0.000914749 5.71933 0.247342 5.28117 0.685477C4.84303 1.12362 4.59663 1.71748 4.5957 2.33707V13.7869H1.35274C0.993931 13.7874 0.650167 13.9301 0.396426 14.1838C0.142931 14.4375 0.000227597 14.7813 0 15.1401V20.6039C0.000227947 20.9627 0.142931 21.3065 0.396426 21.5602C0.65015 21.8139 0.993896 21.9566 1.35274 21.9571H4.5957V23.1945C4.59661 23.814 4.84304 24.4079 5.28117 24.8461C5.71932 25.2842 6.31318 25.5306 6.93277 25.5315H21.6629C22.2825 25.5306 22.8764 25.2842 23.3145 24.8461C23.7527 24.4079 23.9991 23.814 24 23.1945V5.10637C24 5.0389 23.9859 4.97206 23.9597 4.90983ZM19.4039 1.7439L22.2564 4.59569H19.4039V1.7439ZM1.02111 20.6041V15.1403C1.02111 14.9572 1.16952 14.8086 1.35257 14.8084H18.9862C19.1692 14.8086 19.3176 14.9572 19.3176 15.1403V20.6041C19.3176 20.7871 19.1692 20.9358 18.9862 20.936H1.35257C1.16952 20.9358 1.02111 20.7871 1.02111 20.6041ZM21.6624 24.5104H6.93221C6.58342 24.51 6.24901 24.3712 6.00233 24.1245C5.75567 23.8778 5.61684 23.5434 5.61639 23.1946V21.9573H18.9869C19.3458 21.9568 19.6895 21.8141 19.9433 21.5604C20.1968 21.3067 20.3395 20.9629 20.3397 20.6041V15.1403C20.3395 14.7815 20.1968 14.4377 19.9433 14.184C19.6895 13.9303 19.3458 13.7875 18.9869 13.7871H5.61639V2.33724C5.61684 1.98845 5.75567 1.65404 6.00233 1.40736C6.24898 1.1607 6.5834 1.02187 6.93221 1.02142H18.3821V5.10649C18.3821 5.24189 18.4359 5.37183 18.5316 5.46758C18.6274 5.56332 18.7573 5.61712 18.8927 5.61712H22.9778V23.1946C22.9773 23.5434 22.8385 23.8778 22.5918 24.1245C22.3452 24.3711 22.0112 24.51 21.6624 24.5104Z" fill="#9196A2"/>
<path d="M8.17079 6.63839H15.3197C15.6016 6.63839 15.8303 6.40975 15.8303 6.12776C15.8303 5.84577 15.6016 5.61713 15.3197 5.61713H8.17079C7.8888 5.61713 7.66016 5.84577 7.66016 6.12776C7.66016 6.40975 7.8888 6.63839 8.17079 6.63839Z" fill="#9196A2"/>
<path d="M8.17079 4.08523H15.3197C15.6016 4.08523 15.8303 3.85658 15.8303 3.5746C15.8303 3.29261 15.6016 3.06396 15.3197 3.06396H8.17079C7.8888 3.06396 7.66016 3.29261 7.66016 3.5746C7.66016 3.85658 7.8888 4.08523 8.17079 4.08523Z" fill="#9196A2"/>
<path d="M20.426 8.17029H8.17079C7.8888 8.17029 7.66016 8.39894 7.66016 8.68092C7.66016 8.96291 7.8888 9.19155 8.17079 9.19155H20.426C20.708 9.19155 20.9366 8.96291 20.9366 8.68092C20.9366 8.39894 20.708 8.17029 20.426 8.17029Z" fill="#9196A2"/>
<path d="M20.426 10.7234H8.17079C7.8888 10.7234 7.66016 10.9521 7.66016 11.2341C7.66016 11.5161 7.8888 11.7447 8.17079 11.7447H20.426C20.708 11.7447 20.9366 11.5161 20.9366 11.2341C20.9366 10.9521 20.708 10.7234 20.426 10.7234Z" fill="#9196A2"/>
<path d="M4.946 20V18.302H3.512V20H2.336V15.77H3.512V17.36H4.946V15.77H6.122V20H4.946ZM6.56098 16.706V15.77H9.98098V16.706H8.85298V20H7.67698V16.706H6.56098ZM10.4161 20V15.77H11.8381L12.9001 18.518L13.9381 15.77H15.3541V20H14.1781V17.666L13.3801 20H12.3961L11.5921 17.648V20H10.4161ZM16.0235 15.77H17.1995V19.1H18.5135V20H16.0235V15.77Z" fill="#9196A2"/>
</svg>
