<svg width="21" height="21" viewBox="0 0 21 21" fill="none" xmlns="http://www.w3.org/2000/svg">
<path d="M10.5001 0C10.2977 0 10.1159 0.123101 10.0404 0.310716L7.43552 6.79701L0.462487 7.2693C0.260496 7.28278 0.0868943 7.41774 0.0243593 7.61039C-0.0383598 7.80286 0.0225621 8.01419 0.178008 8.14396L5.54177 12.6252L3.83672 19.4036V19.4038C3.78712 19.6 3.86206 19.8069 4.02578 19.926C4.18967 20.045 4.40945 20.0525 4.58088 19.9447L10.4999 16.228L16.4199 19.9447C16.5913 20.0525 16.8111 20.045 16.975 19.926C17.1387 19.8069 17.2136 19.6 17.164 19.4038L15.4581 12.6253L20.8218 8.14414C20.9773 8.01457 21.0382 7.80342 20.9759 7.61094C20.9135 7.41847 20.7403 7.28333 20.5384 7.26949L13.5645 6.7972L10.9594 0.310905C10.8841 0.12329 10.7021 0.00018901 10.4999 0.00018901L10.5001 0Z" fill="#5B61F3"/>
</svg>
