<svg width="15" height="14" viewBox="0 0 15 14" fill="none" xmlns="http://www.w3.org/2000/svg">
<path fill-rule="evenodd" clip-rule="evenodd" d="M10.6605 8.27849C10.5478 8.37158 10.464 8.49354 10.4186 8.63084C10.3732 8.76804 10.3679 8.91498 10.4035 9.05498L11.3702 12.9195L7.91631 10.8237C7.79128 10.7472 7.64694 10.7068 7.49961 10.7068C7.35229 10.7068 7.20795 10.7472 7.08292 10.8237L3.62821 12.9188L4.5949 9.05432C4.63058 8.91452 4.62538 8.76771 4.57999 8.63059C4.53449 8.49349 4.45067 8.37164 4.3379 8.27898L1.23435 5.70919L5.2876 5.41555H5.28749C5.43449 5.40538 5.57562 5.35511 5.69491 5.27045C5.81419 5.18568 5.90685 5.06999 5.96229 4.93637L7.49965 1.25372L9.03625 4.93692C9.09169 5.07066 9.18435 5.18657 9.30363 5.27144C9.42302 5.35621 9.56416 5.40659 9.71127 5.41676L13.7645 5.7104L10.6605 8.27849ZM14.6744 5.08492L9.76252 4.72942C9.7285 4.72942 9.69846 4.7079 9.68819 4.67622L7.82459 0.213319C7.77047 0.0842233 7.64203 0 7.49956 0C7.35709 0 7.22864 0.0842261 7.17453 0.213319L5.3118 4.67622C5.30053 4.70779 5.27027 4.7291 5.23615 4.72942L0.325642 5.08492C0.183281 5.09519 0.0614624 5.18883 0.0172938 5.3216C-0.0268831 5.45448 0.015306 5.60032 0.124091 5.69072L3.88387 8.80429C3.91126 8.82408 3.92264 8.85867 3.91225 8.89025L2.73979 13.5729H2.73968C2.70544 13.7089 2.75879 13.8518 2.87453 13.9342C2.99027 14.0165 3.14544 14.0221 3.26705 13.9482L7.45291 11.4087C7.48085 11.3893 7.51818 11.3893 7.54612 11.4087L11.7331 13.9472C11.8546 14.0209 12.0095 14.0152 12.1251 13.9329C12.2405 13.8505 12.2935 13.7078 12.2591 13.572L11.0867 8.88929H11.0866C11.0762 8.85772 11.0876 8.82301 11.1149 8.80333L14.8747 5.69087C14.9841 5.60091 15.0269 5.45506 14.983 5.32208C14.9391 5.18898 14.8172 5.09535 14.6747 5.08508L14.6744 5.08492Z" fill="#192339"/>
</svg>
