<svg width="13" height="12" viewBox="0 0 13 12" fill="none" xmlns="http://www.w3.org/2000/svg">
<path fill-rule="evenodd" clip-rule="evenodd" d="M9.23908 7.09585C9.14145 7.17564 9.0688 7.28017 9.02946 7.39786C8.99012 7.51546 8.98553 7.64141 9.01635 7.76141L9.85415 11.0738L6.8608 9.27744C6.75245 9.21192 6.62735 9.17725 6.49967 9.17725C6.37199 9.17725 6.24689 9.21191 6.13853 9.27744L3.14445 11.0733L3.98225 7.76084C4.01316 7.64102 4.00867 7.51518 3.96933 7.39765C3.92989 7.28014 3.85724 7.17569 3.75952 7.09627L1.06977 4.89359L4.58259 4.6419H4.58249C4.70989 4.63318 4.83221 4.59009 4.93559 4.51753C5.03896 4.44487 5.11927 4.34571 5.16732 4.23117L6.4997 1.07462L7.83141 4.23165C7.87946 4.34628 7.95977 4.44563 8.06314 4.51838C8.16661 4.59104 8.28894 4.63422 8.41643 4.64293L11.9293 4.89463L9.23908 7.09585ZM12.7178 4.35851L8.46085 4.05379C8.43137 4.05379 8.40533 4.03535 8.39643 4.00819L6.78131 0.182845C6.73441 0.0721914 6.62309 0 6.49962 0C6.37614 0 6.26482 0.0721938 6.21792 0.182845L4.60356 4.00819C4.5938 4.03525 4.56757 4.05351 4.53799 4.05379L0.282223 4.35851C0.158843 4.36731 0.0532674 4.44757 0.014988 4.56137C-0.0232987 4.67527 0.0132652 4.80028 0.107545 4.87776L3.36602 7.54654C3.38976 7.56349 3.39962 7.59315 3.39062 7.62021L2.37448 11.6339H2.37439C2.34472 11.7505 2.39095 11.8729 2.49126 11.9436C2.59157 12.0142 2.72605 12.0189 2.83144 11.9556L6.45919 9.77888C6.4834 9.76229 6.51575 9.76229 6.53997 9.77888L10.1687 11.9548C10.274 12.0179 10.4083 12.0131 10.5084 11.9425C10.6084 11.8718 10.6544 11.7495 10.6246 11.6331L9.60845 7.61939H9.60836C9.59936 7.59233 9.60922 7.56258 9.63295 7.54571L12.8914 4.87789C12.9862 4.80078 13.0233 4.67576 12.9852 4.56178C12.9472 4.4477 12.8416 4.36744 12.7181 4.35864L12.7178 4.35851Z" fill="#192339"/>
</svg>
