<svg width="13" height="12" viewBox="0 0 13 12" fill="none" xmlns="http://www.w3.org/2000/svg">
<path d="M6.50005 0C6.37479 0 6.2622 0.0737844 6.21548 0.186237L4.60294 4.07399L0.286301 4.35707C0.161259 4.36515 0.0537917 4.44604 0.0150795 4.56151C-0.0237466 4.67687 0.013967 4.80354 0.110195 4.88132L3.43062 7.56726L2.37511 11.6301V11.6302C2.34441 11.7478 2.3908 11.8718 2.49215 11.9433C2.59361 12.0146 2.72966 12.0191 2.83578 11.9545L6.49995 9.72672L10.1647 11.9545C10.2708 12.0191 10.4069 12.0146 10.5083 11.9433C10.6097 11.8718 10.6561 11.7479 10.6254 11.6302L9.56929 7.56737L12.8897 4.88143C12.9859 4.80377 13.0237 4.67721 12.9851 4.56184C12.9465 4.44648 12.8392 4.36548 12.7143 4.35719L8.39707 4.0741L6.78442 0.18635C6.7378 0.0738976 6.62511 0.000113289 6.49995 0.000113289L6.50005 0Z" fill="#5B61F3"/>
</svg>
