<svg width="18" height="18" viewBox="0 0 18 18" fill="none" xmlns="http://www.w3.org/2000/svg">
<path d="M7.10407 7.50746C5.29367 7.50746 3.48327 7.50746 1.67287 7.50746C1.4065 7.50746 1.07693 7.55712 0.946002 7.2727C0.860223 7.08308 0.909885 6.77608 0.909885 6.57292C0.909885 5.46681 0.909885 4.36522 0.909885 3.25912C0.909885 2.77153 0.909885 2.28394 0.909885 1.79184C0.909885 1.57062 0.855708 1.22298 1.00921 1.04691C1.17174 0.857293 1.48777 0.906955 1.72253 0.906955C2.19206 0.906955 2.66611 0.906955 3.13564 0.906955C4.25528 0.906955 5.37493 0.906955 6.49007 0.906955C6.70677 0.906955 6.95057 0.879867 7.16276 0.91147C7.52845 0.965646 7.51039 1.31779 7.51039 1.60673C7.51039 2.64512 7.51039 3.68802 7.51039 4.7264C7.51039 5.51196 7.55102 6.31106 7.51039 7.10114C7.50136 7.32687 7.34335 7.49843 7.10407 7.50746C6.52618 7.53003 6.52167 8.43298 7.10407 8.4104C7.89414 8.38331 8.41785 7.7648 8.41785 6.9973C8.41785 6.61355 8.41785 6.2298 8.41785 5.84605C8.41785 4.63611 8.41785 3.42165 8.41785 2.21171C8.41785 1.91825 8.42688 1.62028 8.41785 1.32682C8.39979 0.572867 7.81739 0.0130425 7.06795 0.00401308C6.12437 -0.00501634 5.1808 0.00401308 4.23723 0.00401308C3.28462 0.00401308 2.3275 -0.00501634 1.3749 0.00401308C0.616428 0.00852778 0.0295163 0.563837 0.00694276 1.32231C-0.00208666 1.60674 0.00694276 1.89116 0.00694276 2.17559C0.00694276 3.38553 0.00694276 4.59547 0.00694276 5.80542C0.00694276 6.19819 0.00694276 6.59097 0.00694276 6.98375C0.00694276 7.71062 0.467443 8.33817 1.22591 8.40589C1.48777 8.42846 1.75865 8.4104 2.0205 8.4104C2.58033 8.4104 3.13564 8.4104 3.69546 8.4104C4.76545 8.4104 5.83995 8.4104 6.90993 8.4104C6.97314 8.4104 7.03635 8.4104 7.09955 8.4104C7.68195 8.4104 7.68646 7.50746 7.10407 7.50746Z" fill="#5B61F3"/>
<path d="M7.09662 16.9249C5.28622 16.9249 3.47582 16.9249 1.66543 16.9249C1.39906 16.9249 1.06948 16.9746 0.938558 16.6902C0.852778 16.5006 0.90244 16.1936 0.90244 15.9904C0.90244 14.8843 0.90244 13.7827 0.90244 12.6766C0.90244 12.189 0.90244 11.7014 0.90244 11.2093C0.90244 10.9881 0.848264 10.6405 1.00176 10.4644C1.16429 10.2748 1.48032 10.3244 1.71509 10.3244C2.18462 10.3244 2.65866 10.3244 3.12819 10.3244C4.24784 10.3244 5.36749 10.3244 6.48262 10.3244C6.69933 10.3244 6.94312 10.2973 7.15531 10.3289C7.521 10.3831 7.50295 10.7353 7.50295 11.0242C7.50295 12.0626 7.50295 13.1055 7.50295 14.1439C7.50295 14.9294 7.54358 15.7285 7.50295 16.5186C7.49392 16.7444 7.3359 16.9159 7.09662 16.9249C6.51874 16.9475 6.51422 17.8505 7.09662 17.8279C7.8867 17.8008 8.4104 17.1823 8.4104 16.4148C8.4104 16.031 8.4104 15.6473 8.4104 15.2635C8.4104 14.0536 8.4104 12.8391 8.4104 11.6292C8.4104 11.3357 8.41943 11.0378 8.4104 10.7443C8.39234 9.99035 7.80995 9.43052 7.0605 9.42149C6.11693 9.41246 5.17336 9.42149 4.22978 9.42149C3.27718 9.42149 2.32006 9.41246 1.36746 9.42149C0.613499 9.42601 0.0265866 9.98132 0.00401308 10.7398C-0.00501634 11.0242 0.00401308 11.3086 0.00401308 11.5931C0.00401308 12.803 0.00401308 14.013 0.00401308 15.2229C0.00401308 15.6157 0.00401308 16.0085 0.00401308 16.4012C0.00401308 17.1281 0.464514 17.7556 1.22298 17.8234C1.48484 17.8459 1.75572 17.8279 2.01757 17.8279C2.5774 17.8279 3.13271 17.8279 3.69253 17.8279C4.76252 17.8279 5.83702 17.8279 6.907 17.8279C6.97021 17.8279 7.03342 17.8279 7.09662 17.8279C7.67902 17.8279 7.67902 16.9249 7.09662 16.9249Z" fill="#5B61F3"/>
<path d="M16.6822 7.50746C14.8718 7.50746 13.0614 7.50746 11.251 7.50746C10.9846 7.50746 10.6551 7.55712 10.5241 7.2727C10.4383 7.08308 10.488 6.77608 10.488 6.57292C10.488 5.46681 10.488 4.36522 10.488 3.25912C10.488 2.77153 10.488 2.28394 10.488 1.79184C10.488 1.57062 10.4338 1.22298 10.5873 1.04691C10.7499 0.857293 11.0659 0.906955 11.3007 0.906955C11.7702 0.906955 12.2442 0.906955 12.7138 0.906955C13.8334 0.906955 14.9531 0.906955 16.0682 0.906955C16.2849 0.906955 16.5287 0.879867 16.7409 0.91147C17.1066 0.965646 17.0885 1.31779 17.0885 1.60673C17.0885 2.64512 17.0885 3.68802 17.0885 4.7264C17.0885 5.51196 17.1291 6.31106 17.0885 7.10114C17.0795 7.32687 16.9215 7.49843 16.6822 7.50746C16.1043 7.53003 16.0998 8.43298 16.6822 8.4104C17.4723 8.38331 17.996 7.7648 17.996 6.9973C17.996 6.61355 17.996 6.2298 17.996 5.84605C17.996 4.63611 17.996 3.42165 17.996 2.21171C17.996 1.91825 18.005 1.62028 17.996 1.32682C17.9779 0.572867 17.3955 0.0130425 16.6461 0.00401308C15.7025 -0.00501634 14.7589 0.00401308 13.8154 0.00401308C12.8627 0.00401308 11.9056 -0.00501634 10.953 0.00401308C10.1946 0.00852778 9.60764 0.563837 9.58507 1.32231C9.57604 1.60674 9.58507 1.89116 9.58507 2.17559C9.58507 3.38553 9.58507 4.59547 9.58507 5.80542C9.58507 6.19819 9.58507 6.59097 9.58507 6.98375C9.58507 7.71062 10.0456 8.33817 10.804 8.40589C11.0659 8.42846 11.3368 8.4104 11.5986 8.4104C12.1585 8.4104 12.7138 8.4104 13.2736 8.4104C14.3436 8.4104 15.4181 8.4104 16.4881 8.4104C16.5513 8.4104 16.6145 8.4104 16.6777 8.4104C17.2601 8.4104 17.2601 7.50746 16.6822 7.50746Z" fill="#5B61F3"/>
<path d="M16.6728 16.9252C14.8624 16.9252 13.052 16.9252 11.2416 16.9252C10.9752 16.9252 10.6457 16.9748 10.5147 16.6904C10.429 16.5008 10.4786 16.1938 10.4786 15.9906C10.4786 14.8845 10.4786 13.7829 10.4786 12.6768C10.4786 12.1893 10.4786 11.7017 10.4786 11.2096C10.4786 10.9883 10.4244 10.6407 10.5779 10.4646C10.7405 10.275 11.0565 10.3247 11.2913 10.3247C11.7608 10.3247 12.2348 10.3247 12.7044 10.3247C13.824 10.3247 14.9437 10.3247 16.0588 10.3247C16.2755 10.3247 16.5193 10.2976 16.7315 10.3292C17.0972 10.3834 17.0791 10.7355 17.0791 11.0245C17.0791 12.0628 17.0791 13.1057 17.0791 14.1441C17.0791 14.9297 17.1198 15.7288 17.0791 16.5189C17.0701 16.7446 16.9121 16.9162 16.6728 16.9252C16.0949 16.9478 16.0904 17.8507 16.6728 17.8281C17.4629 17.801 17.9866 17.1825 17.9866 16.415C17.9866 16.0313 17.9866 15.6475 17.9866 15.2638C17.9866 14.0538 17.9866 12.8394 17.9866 11.6294C17.9866 11.336 17.9956 11.038 17.9866 10.7445C17.9685 9.99059 17.3861 9.43077 16.6367 9.42174C15.6931 9.41271 14.7495 9.42174 13.806 9.42174C12.8533 9.42174 11.8962 9.41271 10.9436 9.42174C10.1897 9.42625 9.60276 9.98156 9.58018 10.74C9.57116 11.0245 9.58018 11.3089 9.58018 11.5933C9.58018 12.8033 9.58018 14.0132 9.58018 15.2231C9.58018 15.6159 9.58018 16.0087 9.58018 16.4015C9.58018 17.1283 10.0407 17.7559 10.7992 17.8236C11.061 17.8462 11.3319 17.8281 11.5937 17.8281C12.1536 17.8281 12.7089 17.8281 13.2687 17.8281C14.3387 17.8281 15.4132 17.8281 16.4832 17.8281C16.5464 17.8281 16.6096 17.8281 16.6728 17.8281C17.2552 17.8281 17.2552 16.9252 16.6728 16.9252Z" fill="#5B61F3"/>
</svg>
