<svg width="20" height="18" viewBox="0 0 20 18" fill="none" xmlns="http://www.w3.org/2000/svg">
<path d="M9.40542 0.743111C8.08253 0.981859 6.98664 1.99556 6.63047 3.30671C6.51306 3.73724 6.50131 4.5435 6.6109 4.97012C6.83008 5.82335 7.33889 6.5709 8.0199 7.04448C8.29388 7.23235 8.81443 7.46718 9.15885 7.5572C9.60112 7.67462 10.3996 7.67462 10.8418 7.5572C11.1862 7.46718 11.7068 7.23235 11.9808 7.04448C12.6618 6.5709 13.1706 5.82335 13.3898 4.97012C13.4994 4.5435 13.4876 3.73724 13.3702 3.30671C13.0493 2.11689 12.1882 1.22843 10.9788 0.840958C10.7009 0.750939 10.56 0.731369 10.1178 0.719628C9.82812 0.715714 9.50718 0.723542 9.40542 0.743111ZM10.5444 1.93685C10.9397 2.03078 11.3115 2.24605 11.6285 2.56307C12.9201 3.86248 12.2547 6.06209 10.4504 6.43783C9.9338 6.54742 9.47979 6.48088 8.95924 6.22648C7.8203 5.66288 7.37411 4.28519 7.95337 3.12276C8.22734 2.57481 8.84574 2.08558 9.43673 1.94076C9.74202 1.8664 10.2352 1.8664 10.5444 1.93685Z" fill="#192339"/>
<path d="M3.28756 4.00732C2.77875 4.13257 2.36779 4.38306 1.98423 4.79401C0.954879 5.89382 1.10752 7.6903 2.30126 8.59441C2.57915 8.80576 2.99402 9.00536 3.30713 9.08364C3.5811 9.15018 4.20341 9.15018 4.4813 9.08364C4.78658 9.00928 5.28365 8.7627 5.54979 8.55135C5.94901 8.23433 6.31691 7.64333 6.44216 7.12278C6.51261 6.82141 6.50478 6.21867 6.4265 5.90947C6.19167 4.99362 5.42063 4.2265 4.51652 4.01124C4.21515 3.94079 3.56153 3.94079 3.28756 4.00732ZM4.30126 5.17366C4.69656 5.27934 5.11535 5.68247 5.25233 6.0856C5.34235 6.36349 5.33061 6.77445 5.22494 7.06407C5.09969 7.38893 4.74353 7.74509 4.42259 7.86642C3.90987 8.0582 3.33844 7.95253 2.94314 7.59245C2.16427 6.88403 2.39128 5.62376 3.36975 5.22454C3.63198 5.11495 4.01163 5.09538 4.30126 5.17366Z" fill="white"/>
<path d="M15.4636 4.01124C14.5674 4.23824 13.8081 5.00145 13.5732 5.90947C13.4949 6.21867 13.4871 6.82141 13.5576 7.12278C13.6828 7.64333 14.0507 8.23433 14.4499 8.55135C14.7161 8.7627 15.2131 9.00928 15.5184 9.08364C15.7963 9.15018 16.4186 9.15018 16.6926 9.08364C17.0057 9.00536 17.4206 8.80576 17.6985 8.59441C18.673 7.85859 18.9783 6.49264 18.4225 5.36153C18.313 5.13452 18.1994 4.9858 17.9255 4.71574C17.5693 4.35957 17.3462 4.21867 16.8687 4.05037C16.5987 3.95253 15.7807 3.93296 15.4636 4.01124ZM16.5987 5.20889C17.5928 5.58071 17.8433 6.87229 17.0566 7.59245C16.6613 7.95253 16.0899 8.0582 15.5771 7.86642C15.2562 7.74509 14.9 7.38893 14.7748 7.06407C14.6691 6.77445 14.6574 6.36349 14.7474 6.0856C14.8766 5.69812 15.3032 5.27934 15.6711 5.17758C15.9294 5.10321 16.356 5.11887 16.5987 5.20889Z" fill="#192339"/>
<path d="M7.58904 8.05818C6.83757 8.24214 6.12916 8.75877 5.76517 9.38499C5.6908 9.51807 5.62818 9.5846 5.59296 9.57286C5.39335 9.49458 4.7593 9.46719 3.65166 9.47893C2.52446 9.49458 2.40313 9.50633 2.13307 9.5846C1.62427 9.73725 1.25636 9.95642 0.861057 10.3517C0.469667 10.7392 0.258317 11.0875 0.0900196 11.6237C0 11.9134 0 11.9329 0 13.8742C0 16.0269 0 16.0425 0.238748 16.4417C0.465753 16.8214 0.841487 17.111 1.2681 17.2363C1.45988 17.2911 2.34051 17.2989 10 17.2989C17.6595 17.2989 18.5401 17.2911 18.7319 17.2363C19.1585 17.111 19.5342 16.8214 19.7613 16.4417C20 16.0425 20 16.0269 20 13.8742C20 11.9329 20 11.9134 19.91 11.6237C19.7417 11.0875 19.5303 10.7392 19.1389 10.3517C18.7436 9.95642 18.3757 9.73725 17.8669 9.5846C17.5969 9.50633 17.4755 9.49458 16.3483 9.47893C15.2407 9.46719 14.6067 9.49458 14.407 9.57286C14.3718 9.5846 14.3092 9.51807 14.2348 9.38499C13.9648 8.91924 13.5029 8.50828 12.9628 8.25779C12.3796 7.98773 12.3366 7.98382 9.9726 7.98773C8.10568 7.98773 7.83562 7.99556 7.58904 8.05818ZM12.1957 9.22061C12.5284 9.31846 12.7397 9.4437 12.9706 9.67071C13.1977 9.90163 13.3229 10.113 13.4207 10.4457C13.4755 10.6335 13.4834 10.9936 13.4834 13.3928V16.1247H10H6.51663V13.3928C6.51663 10.4339 6.51272 10.4887 6.7319 10.0582C6.84149 9.84292 7.18591 9.49067 7.39726 9.38108C7.82387 9.1619 7.82387 9.1619 9.98434 9.1619C11.7104 9.15799 12.0117 9.16582 12.1957 9.22061ZM5.2955 10.6961C5.33072 10.7196 5.34247 11.3106 5.34247 13.428V16.1247H3.44814H1.55773L1.42466 16.0347C1.1546 15.8547 1.1546 15.8703 1.1546 13.9877C1.1546 13.0014 1.17025 12.2108 1.19374 12.0895C1.32681 11.3889 1.90998 10.8057 2.60274 10.6883C2.86106 10.6453 5.22505 10.6531 5.2955 10.6961ZM17.3581 10.6883C18.0822 10.8018 18.6693 11.3693 18.8063 12.0895C18.8297 12.2108 18.8454 13.0014 18.8454 13.9877C18.8454 15.8703 18.8454 15.8547 18.5753 16.0347L18.4423 16.1247H16.5479H14.6575L14.6654 13.4124L14.6771 10.704L14.8141 10.6805C15.0489 10.6374 17.092 10.6453 17.3581 10.6883Z" fill="#192339"/>
</svg>
