<svg width="22" height="22" viewBox="0 0 22 22" fill="none" xmlns="http://www.w3.org/2000/svg">
<path d="M8.67673 0.95627L8.67647 0.900011C8.42828 0.901159 8.33141 1.11781 8.29288 1.2202L8.28872 1.23123L8.28725 1.24293L8.04084 3.19937C7.13647 3.53797 6.3033 4.02622 5.5743 4.63439L3.7614 3.8644L3.76141 3.86439L3.7602 3.8639C3.58347 3.79154 3.36545 3.86853 3.27231 4.03489C3.2722 4.03508 3.2721 4.03527 3.27199 4.03546L0.949516 8.08581L0.949491 8.08579L0.948348 8.0879C0.858685 8.25335 0.906743 8.47642 1.05763 8.58952C1.05776 8.58962 1.0579 8.58972 1.05803 8.58982L2.61531 9.77523C2.53584 10.2434 2.47892 10.7282 2.47892 11.2197C2.47892 11.7109 2.53605 12.1881 2.61532 12.6552L1.05819 13.8404C0.901676 13.9546 0.853139 14.1861 0.949568 14.3538L3.27258 18.4051L3.27341 18.4066C3.3702 18.5691 3.58765 18.6405 3.76156 18.5659L3.7614 18.566L3.72232 18.474L3.76177 18.5658L8.67673 0.95627ZM8.67673 0.95627V0.90001H8.67693H13.3225H13.3229V1.00001L8.67673 0.95627ZM5.57426 17.796C6.30401 18.4054 7.13504 18.8919 8.0408 19.231M5.57426 17.796L8.67732 21.5396C8.48547 21.541 8.31111 21.3866 8.28725 21.1966L8.28724 21.1966L8.0408 19.231M5.57426 17.796C5.55847 17.7828 5.54272 17.7696 5.52701 17.7563L5.59167 17.68M5.57426 17.796L5.63076 17.772L5.59167 17.68M8.0408 19.231L8.03325 19.1707L8.13247 19.1583M8.0408 19.231C8.05986 19.2381 8.07895 19.2452 8.09808 19.2522L8.13247 19.1583M18.2382 18.5658C18.2383 18.5658 18.2383 18.5659 18.2384 18.5659C18.4128 18.6407 18.6299 18.5674 18.7264 18.407L18.7274 18.4051L21.0504 14.3538L18.2382 18.5658ZM18.2382 18.5658L18.2777 18.4739L18.2382 18.5658ZM8.13247 19.1583C7.1959 18.8153 6.33908 18.3134 5.59167 17.68M8.13247 19.1583L8.38647 21.1841C8.40409 21.3245 8.53615 21.4408 8.67693 21.4396H13.3231C13.4636 21.4396 13.5959 21.3245 13.6135 21.1841L5.59167 17.68M13.2056 3.52152L13.2056 3.52152L12.9804 1.68395H9.01942L8.79421 3.52152L8.79397 3.52345L8.79396 3.52345C8.77325 3.66889 8.6665 3.79658 8.52656 3.84161C7.54337 4.17514 6.64719 4.70601 5.88465 5.38189L5.88288 5.38345L5.88286 5.38343C5.77291 5.47636 5.6126 5.50082 5.48002 5.44479L5.47978 5.44469L3.78295 4.72225L1.80189 8.18244L3.2564 9.28829L3.25659 9.28843C3.37397 9.37813 3.4325 9.53502 3.40287 9.67976C3.30471 10.1732 3.25962 10.6922 3.25962 11.2204C3.25962 11.7483 3.30491 12.2585 3.40294 12.7521L3.30485 12.7716M13.2056 3.52152L3.30485 9.65997C3.2052 10.1609 3.15962 10.6865 3.15962 11.2204C3.15962 11.754 3.2054 12.2708 3.30485 12.7716M13.2056 3.52152L13.2058 3.52345C13.2265 3.66881 13.333 3.79657 13.4733 3.84163M13.2056 3.52152L13.4733 3.84163M3.30485 12.7716L3.40281 12.7515C3.43256 12.8964 3.37413 13.0536 3.25647 13.1432M3.30485 12.7716C3.32693 12.8792 3.28277 12.9975 3.19588 13.0637M3.25647 13.1432L3.19588 13.0637M3.25647 13.1432L3.25669 13.1431L3.19588 13.0637M3.25647 13.1432L1.80181 14.2577M3.19588 13.0637L1.6715 14.2316M1.80181 14.2577L1.75823 14.1818L1.6715 14.2316M1.80181 14.2577L1.73232 14.311L1.6715 14.2316M1.80181 14.2577L3.78286 17.7091M1.6715 14.2316L3.74033 17.8359M3.74033 17.8359L3.70116 17.7439L3.78286 17.7091M3.74033 17.8359L5.51895 17.0786C5.6184 17.0397 5.73892 17.0617 5.81832 17.1334M3.74033 17.8359L3.82706 17.7861L3.78286 17.7091M3.78286 17.7091L5.47978 16.9866L5.4825 16.9855L5.48252 16.9855C5.61708 16.9329 5.77741 16.9621 5.88491 17.0588M5.81832 17.1334L5.88466 17.0586C5.88474 17.0587 5.88482 17.0588 5.88491 17.0588M5.81832 17.1334C6.59046 17.818 7.49867 18.3468 8.49524 18.6847M5.81832 17.1334L5.88534 17.0592C5.88519 17.0591 5.88505 17.059 5.88491 17.0588M5.88491 17.0588C6.64684 17.7343 7.54312 18.2562 8.5268 18.5898M8.49524 18.6847L8.52609 18.5895C8.52632 18.5896 8.52656 18.5897 8.5268 18.5898M8.49524 18.6847C8.60137 18.7191 8.6828 18.8197 8.69495 18.9311M8.49524 18.6847L8.52735 18.59C8.52716 18.5899 8.52698 18.5898 8.5268 18.5898M8.5268 18.5898C8.67012 18.6366 8.77767 18.7699 8.79429 18.9196L8.79421 18.919L8.69495 18.9311M8.69495 18.9311L8.79436 18.9203M8.69495 18.9311L8.93093 20.8565H13.0689L13.3048 18.9311C13.317 18.8197 13.3986 18.7191 13.5045 18.6847C14.5011 18.3468 15.4091 17.818 16.1815 17.1334C16.2609 17.0617 16.3814 17.0397 16.4808 17.0786L8.79436 18.9203M8.79436 18.9203L9.01942 20.7565H12.9804L13.2054 18.9203C13.2054 18.92 13.2055 18.9198 13.2055 18.9195C13.2221 18.7698 13.3299 18.6366 13.4728 18.5898C14.4565 18.2563 15.3526 17.7344 16.1148 17.0589C16.2223 16.9621 16.3826 16.9329 16.5173 16.9855L16.52 16.9866L16.52 16.9866L18.2169 17.7091M8.79436 18.9203L18.2169 17.7091M18.2169 17.7091L20.198 14.2577L18.7432 13.1431C18.6258 13.0535 18.5673 12.8966 18.5969 12.7519M18.2169 17.7091L18.8039 13.0637C18.717 12.9973 18.6729 12.879 18.6949 12.7716C18.7946 12.2708 18.8402 11.754 18.8402 11.2204C18.8402 10.6865 18.7946 10.1608 18.6949 9.65997M18.5969 12.7519C18.5969 12.7517 18.597 12.7516 18.597 12.7515L18.6949 12.7716L18.5969 12.7521C18.5969 12.752 18.5969 12.7519 18.5969 12.7519ZM18.5969 12.7519C18.6951 12.2583 18.7402 11.7482 18.7402 11.2204C18.7402 10.6923 18.6951 10.1734 18.597 9.67998M18.597 9.67998C18.597 9.68001 18.597 9.68004 18.597 9.68008L18.6949 9.65997M18.597 9.67998C18.5969 9.67981 18.5969 9.67965 18.5969 9.67949L18.6949 9.65997M18.597 9.67998C18.5673 9.53507 18.6257 9.37795 18.7433 9.28834L18.7434 9.28829L20.1979 8.18244M18.6949 9.65997C18.6729 9.55243 18.717 9.43409 18.8039 9.36789L20.3283 8.20893M20.3283 8.20893L20.2415 8.25861L20.1979 8.18244M20.3283 8.20893L18.2594 4.59542M20.3283 8.20893L20.2678 8.12932L20.1979 8.18244M20.1979 8.18244L18.2168 4.72225M18.2594 4.59542L18.2986 4.68742L18.2168 4.72225M18.2594 4.59542L18.1727 4.6451L18.2168 4.72225M18.2594 4.59542L16.4808 5.35268L13.4733 3.84163M18.2168 4.72225L16.52 5.44469L16.5198 5.44479C16.3872 5.50083 16.2269 5.47635 16.1169 5.38343L16.1151 5.38189L16.1151 5.38187C15.3528 4.70582 14.4565 4.17513 13.4733 3.84163M16.3692 17.772L16.4257 17.796C16.4415 17.7828 16.4573 17.7696 16.473 17.7563L16.4083 17.68L16.3692 17.772ZM13.9019 19.2522C13.921 19.2452 13.9401 19.2381 13.9592 19.231L13.9668 19.1707L13.8675 19.1583L13.9019 19.2522ZM13.959 3.19958L13.7126 1.24296L21.0505 14.3537C21.1469 14.186 21.0983 13.9546 20.9418 13.8404C20.9414 13.8402 20.9411 13.8399 20.9407 13.8397L19.3847 12.6554C19.464 12.1884 19.5211 11.7113 19.5211 11.2199C19.5211 10.7284 19.4642 10.2434 19.3847 9.77543L20.9421 8.5899C20.9422 8.58982 20.9424 8.58974 20.9425 8.58965C21.0929 8.4765 21.1415 8.25369 21.0514 8.088L21.0514 8.08798L21.0503 8.08602L18.7278 4.03567C18.7277 4.03545 18.7276 4.03523 18.7274 4.03501C18.6343 3.86871 18.4163 3.79175 18.2396 3.8641L18.2384 3.86461L16.4255 4.6346C15.6965 4.02648 14.8633 3.53821 13.959 3.19958ZM10.9998 6.156C8.2211 6.156 5.9634 8.42715 5.9634 11.2199C5.9634 14.0126 8.22115 16.2838 10.9998 16.2838C13.7784 16.2838 16.0361 14.0126 16.0361 11.2199C16.0361 8.42715 13.7784 6.156 10.9998 6.156ZM10.9998 6.93994C13.353 6.93994 15.2554 8.85222 15.2554 11.2199C15.2554 13.5876 13.353 15.4998 10.9998 15.4998C8.64657 15.4998 6.7441 13.5876 6.7441 11.2199C6.7441 8.85222 8.64657 6.93994 10.9998 6.93994Z" fill="#9196A2" stroke="white" stroke-width="0.2"/>
</svg>
