<svg width="20" height="20" viewBox="0 0 20 20" fill="none" xmlns="http://www.w3.org/2000/svg">
<path d="M10 8.39885e-05C7.34782 8.39885e-05 4.80414 1.05363 2.9289 2.92899C1.05354 4.80451 0 7.34795 0 10.0001C0 12.6522 1.05354 15.1959 2.9289 17.0712C4.80443 18.9465 7.34787 20.0001 10 20.0001C12.6521 20.0001 15.1959 18.9465 17.0711 17.0712C18.9465 15.1957 20 12.6522 20 10.0001C19.9969 7.34887 18.9423 4.80716 17.0677 2.93235C15.193 1.05766 12.6512 0.00310928 9.99992 0L10 8.39885e-05ZM10 18.8239C7.65984 18.8239 5.41549 17.8942 3.76085 16.2394C2.10608 14.5847 1.17644 12.3404 1.17644 10.0003C1.17644 7.66022 2.10608 5.41578 3.76085 3.76114C5.41561 2.10637 7.65993 1.17674 10 1.17674C12.3401 1.17674 14.5845 2.10637 16.2392 3.76114C17.8939 5.41591 18.8236 7.66022 18.8236 10.0003C18.8211 12.3397 17.8906 14.5827 16.2364 16.2369C14.5823 17.8912 12.3393 18.8217 9.99975 18.8241L10 18.8239Z" fill="#9196A2"/>
<path d="M10.0002 3.0564C8.88234 3.05771 7.81057 3.50233 7.02009 4.2928C6.22962 5.08327 5.78487 6.15501 5.78369 7.27309C5.78369 7.5979 6.04696 7.86133 6.37193 7.86133C6.69675 7.86133 6.96018 7.5979 6.96018 7.27309C6.96018 6.18686 7.53955 5.1834 8.4802 4.64028C9.42084 4.09717 10.5796 4.09717 11.5202 4.64028C12.4609 5.1834 13.0403 6.1869 13.0403 7.27309C13.0403 8.49193 12.1884 9.37656 11.2873 10.3154C10.3861 11.2542 9.40491 12.2661 9.40491 13.6614C9.40491 13.9862 9.66834 14.2496 9.99316 14.2496C10.318 14.2496 10.5814 13.9862 10.5814 13.6614C10.5814 12.739 11.2873 11.9955 12.1273 11.132C13.1037 10.1178 14.2097 8.96723 14.2097 7.2754C14.209 6.15833 13.7657 5.08705 12.9767 4.29629C12.1876 3.50535 11.1173 3.05951 10.0002 3.0564Z" fill="#9196A2"/>
<path d="M10.7574 15.5957C10.7574 16.0141 10.4182 16.3533 9.9998 16.3533C9.58144 16.3533 9.24219 16.014 9.24219 15.5957C9.24219 15.1773 9.58144 14.8381 9.9998 14.8381C10.4182 14.8381 10.7574 15.1773 10.7574 15.5957Z" fill="#9196A2"/>
</svg>
