<svg width="12" height="12" viewBox="0 0 12 12" fill="none" xmlns="http://www.w3.org/2000/svg">
<path d="M11.0722 5.41047L9.18419 7.2978C8.58625 7.89642 7.7894 8.22677 6.9432 8.22677C6.09699 8.22677 5.30018 7.89708 4.7022 7.2978C4.50668 7.10229 4.50668 6.78521 4.7022 6.58969C4.89772 6.39351 5.2148 6.39485 5.41032 6.58969C6.2305 7.40986 7.65867 7.40986 8.47756 6.58969L10.3656 4.70236C11.2111 3.85685 11.2111 2.48074 10.3656 1.6346C9.51874 0.788409 8.14329 0.789753 7.2978 1.6346L6.35417 2.5789C6.15866 2.77441 5.84158 2.77441 5.64605 2.5789C5.45054 2.38405 5.45054 2.06631 5.64605 1.87079L6.58968 0.926495C7.8257 -0.308159 9.83711 -0.309504 11.073 0.926495C12.309 2.16315 12.309 4.17387 11.073 5.40972L11.0722 5.41047ZM5.64508 9.42207L4.70146 10.3657C3.85594 11.2099 2.48048 11.2112 1.63365 10.3657C0.788125 9.51948 0.788125 8.14405 1.63365 7.29791L3.5217 5.41058C4.34053 4.5911 5.77004 4.5911 6.58894 5.41058C6.78445 5.6061 7.10153 5.6061 7.29706 5.41058C7.49257 5.21574 7.49257 4.89799 7.29706 4.70248C6.69911 4.10385 5.90227 3.77417 5.05606 3.77417C4.20985 3.77417 3.41304 4.10385 2.81507 4.70248L0.927015 6.58981C-0.309005 7.82646 -0.309005 9.83661 0.927015 11.073C1.54495 11.691 2.35721 12 3.16801 12C3.97892 12 4.79238 11.691 5.40966 11.073L6.35329 10.1294C6.5488 9.93391 6.5488 9.61684 6.35329 9.42132C6.15777 9.2258 5.84069 9.22581 5.64517 9.42132L5.64508 9.42207Z" fill="#192339"/>
</svg>
