<svg width="19" height="17" viewBox="0 0 19 17" fill="none" xmlns="http://www.w3.org/2000/svg">
<path d="M4.51002 0.829185C4.51002 1.28564 4.51002 1.74209 4.51002 2.19854C4.51002 2.80049 4.51002 3.40444 4.51002 4.0064C4.51002 4.04427 4.50803 4.08414 4.51002 4.12201C4.51401 4.19576 4.50803 4.07018 4.51401 4.11005C4.51401 4.11403 4.51202 4.11802 4.51202 4.12201C4.50205 4.15589 4.50205 4.15589 4.516 4.124C4.54192 4.08414 4.51002 4.12201 4.516 4.124C4.51002 4.13397 4.50006 4.14593 4.49607 4.15589C4.48013 4.19576 4.51401 4.12001 4.51999 4.12599C4.52398 4.12998 4.48212 4.15988 4.48411 4.16187C4.47813 4.15589 4.56185 4.11603 4.50404 4.14593C4.49806 4.14792 4.46019 4.17184 4.4582 4.16985C4.46019 4.17383 4.52996 4.12998 4.49209 4.15191C4.49009 4.1539 4.45421 4.15988 4.45421 4.16187C4.45421 4.1539 4.53992 4.15988 4.49408 4.1539C4.4881 4.1539 4.48013 4.1539 4.47415 4.1539C4.31867 4.14991 4.1632 4.1539 4.00972 4.1539C3.34 4.1539 2.66828 4.1539 1.99855 4.1539C1.71152 4.1539 1.4245 4.1539 1.13947 4.1539C1.05974 4.1539 0.980007 4.1539 0.900277 4.1539C0.882338 4.1539 0.864399 4.1539 0.84646 4.1539C0.844467 4.1539 0.842474 4.1539 0.84048 4.1539H0.812575C0.820548 4.15589 0.830514 4.15589 0.838487 4.15789C0.874365 4.16387 0.874365 4.16387 0.838487 4.15589C0.834501 4.1539 0.830514 4.1539 0.826528 4.15191C0.806595 4.14593 0.808589 4.14792 0.836494 4.15988C0.864399 4.17184 0.868386 4.17383 0.848453 4.16586C0.84048 4.16187 0.832508 4.15789 0.826528 4.1539C0.824535 4.1539 0.794636 4.13397 0.794636 4.13397C0.802609 4.12201 0.85842 4.19376 0.816562 4.14792C0.84646 4.2117 0.770717 4.0961 0.816562 4.14792C0.818555 4.15191 0.79065 4.10208 0.792643 4.10208C0.788656 4.10407 0.832507 4.17383 0.810582 4.13596C0.808589 4.13397 0.802609 4.09809 0.800616 4.09809C0.808589 4.09809 0.804602 4.20373 0.806595 4.124C0.806595 4.11403 0.806595 4.10407 0.806595 4.0941C0.806595 4.02235 0.806595 3.95059 0.806595 3.87883C0.806595 3.59181 0.806595 3.30478 0.806595 3.01576C0.806595 2.36996 0.806595 1.72215 0.806595 1.07635C0.806595 1.00459 0.806595 0.932833 0.806595 0.861077C0.806595 0.851111 0.806595 0.841145 0.806595 0.831178V0.803273C0.84048 0.853104 0.780683 0.873036 0.804602 0.831178C0.84048 0.767395 0.762744 0.892969 0.802609 0.829185C0.800616 0.833172 0.828521 0.785334 0.828521 0.785334C0.826528 0.785334 0.780683 0.851111 0.806595 0.817226C0.808589 0.815233 0.834501 0.791314 0.834501 0.791314C0.838487 0.797293 0.748792 0.841145 0.826528 0.80128C0.828521 0.799287 0.860413 0.783341 0.860413 0.783341C0.85842 0.779355 0.788656 0.823206 0.826528 0.80128C0.838487 0.7953 0.900277 0.785334 0.838487 0.7953C0.782677 0.805266 0.824535 0.797294 0.838487 0.797294C0.84048 0.797294 0.842474 0.797294 0.844467 0.797294C0.862406 0.797294 0.880345 0.797294 0.898284 0.797294C0.978014 0.797294 1.05774 0.797294 1.13747 0.797294C1.77929 0.797294 2.42112 0.797294 3.06294 0.797294C3.53135 0.797294 4.00374 0.811246 4.47215 0.797294C4.47415 0.797294 4.47614 0.797294 4.47813 0.797294C4.50803 0.7953 4.52198 0.80128 4.47813 0.7953C4.40438 0.783341 4.47813 0.797294 4.47813 0.797294C4.48212 0.799287 4.48611 0.799287 4.49009 0.80128C4.51002 0.80726 4.50803 0.805267 4.48013 0.793307C4.48013 0.791314 4.44026 0.773375 4.49009 0.80128C4.49209 0.803273 4.52198 0.821212 4.52198 0.821212C4.52198 0.821212 4.4582 0.771381 4.49009 0.799287C4.49209 0.80128 4.518 0.827192 4.516 0.827192C4.49806 0.841145 4.47215 0.751449 4.50006 0.80726C4.50404 0.817226 4.51202 0.831178 4.518 0.841145C4.54391 0.877023 4.49607 0.80726 4.50205 0.805266C4.51002 0.803273 4.51002 0.85709 4.51401 0.855097C4.51401 0.855097 4.50803 0.749456 4.51002 0.829185C4.516 1.03648 4.68942 1.2378 4.90867 1.22783C5.11995 1.21787 5.3133 1.05243 5.30732 0.829185C5.29536 0.446484 5.03026 0.0817225 4.63759 0.017939C4.55188 0.00398635 4.47415 0 4.39043 0C4.15722 0 3.92401 0 3.69081 0C2.97723 0 2.26166 0 1.54808 0C1.32882 0 1.11156 0 0.892304 0C0.746798 0 0.611258 0.0239187 0.477712 0.0837158C0.184706 0.213276 0.0132882 0.520234 0.00531529 0.833172C-0.00664411 1.34942 0.00531529 1.86965 0.00531529 2.3859C0.00531529 2.95397 0.00332206 3.52404 0.00531529 4.09211C0.00730853 4.57049 0.370077 4.94721 0.85244 4.95119C1.03382 4.95319 1.2172 4.95119 1.39859 4.95119C2.10818 4.95119 2.81578 4.95119 3.52537 4.95119C3.79047 4.95119 4.05357 4.95119 4.31867 4.95119C4.3685 4.95119 4.42033 4.95319 4.47215 4.95119C4.77712 4.94521 5.0761 4.78376 5.21364 4.50272C5.32326 4.27549 5.30732 4.04228 5.30732 3.7991C5.30732 3.48019 5.30732 3.15928 5.30732 2.84036C5.30732 2.2085 5.30732 1.57665 5.30732 0.944793C5.30732 0.906921 5.30732 0.867057 5.30732 0.829185C5.30732 0.619896 5.12394 0.420572 4.90867 0.430538C4.6934 0.440505 4.51002 0.605943 4.51002 0.829185Z" fill="#5B61F3"/>
<path d="M0.83686 6.58551C1.2674 6.58551 1.69794 6.58551 2.12848 6.58551C2.78824 6.58551 3.448 6.58551 4.10776 6.58551C4.19945 6.58551 4.29113 6.58551 4.38282 6.58551C4.39877 6.58551 4.49444 6.59747 4.5084 6.58551C4.50042 6.58352 4.49046 6.58352 4.48248 6.58153C4.45259 6.57555 4.44661 6.57555 4.46853 6.58153C4.47053 6.57953 4.5064 6.59349 4.5064 6.59149C4.50441 6.59747 4.4187 6.53967 4.48248 6.58153C4.49046 6.58751 4.5064 6.59947 4.51438 6.60146C4.55623 6.61342 4.4765 6.58751 4.48448 6.57754C4.48448 6.57754 4.51039 6.60146 4.51238 6.60345C4.54228 6.64332 4.4785 6.53568 4.49644 6.58352C4.50242 6.59747 4.51438 6.61541 4.52235 6.62737C4.54826 6.66325 4.50042 6.59349 4.5064 6.59149C4.51438 6.5895 4.51438 6.64332 4.51836 6.64133C4.51039 6.64133 4.51438 6.54764 4.51238 6.61541C4.51238 6.6194 4.51238 6.62339 4.51238 6.62737C4.51039 6.68518 4.51238 6.74497 4.51238 6.80278C4.51238 7.43065 4.51238 8.05851 4.51238 8.68439C4.51238 8.98935 4.51238 9.29631 4.51238 9.60128C4.51238 9.68699 4.51238 9.77469 4.51238 9.8604C4.51238 9.88033 4.51238 9.90026 4.51238 9.9182C4.51238 9.9202 4.51238 9.92418 4.51238 9.92617C4.51637 9.99992 4.51039 9.87435 4.51637 9.91422C4.51637 9.9182 4.51438 9.92219 4.51438 9.92617C4.50441 9.96006 4.50441 9.96006 4.51836 9.92817C4.53032 9.90026 4.53232 9.89628 4.52434 9.91621C4.52036 9.92418 4.51637 9.93216 4.51238 9.93813C4.51238 9.94013 4.49245 9.97003 4.49245 9.97003C4.48049 9.96205 4.55225 9.90624 4.5064 9.9481C4.57019 9.9182 4.45458 9.99395 4.5064 9.9481C4.50042 9.95009 4.46255 9.97401 4.46056 9.97202C4.46255 9.97601 4.53232 9.93216 4.49444 9.95408C4.49245 9.95607 4.45657 9.96205 4.45657 9.96405C4.45657 9.95607 4.56221 9.96006 4.48248 9.95807C4.47252 9.95807 4.46455 9.95807 4.45458 9.95807C4.3888 9.95807 4.32303 9.95807 4.25725 9.95807C3.98617 9.95807 3.7131 9.95807 3.44202 9.95807C2.76033 9.95807 2.07864 9.95807 1.39696 9.95807C1.21757 9.95807 1.04017 9.96006 0.860778 9.95807C0.852805 9.95807 0.814934 9.95408 0.810948 9.95807C0.81892 9.96006 0.828887 9.96006 0.83686 9.96205C0.872738 9.96803 0.872738 9.96803 0.83686 9.96006C0.832873 9.95807 0.828887 9.95807 0.8249 9.95607C0.804968 9.95009 0.806961 9.95209 0.834866 9.96405C0.874731 9.98996 0.83686 9.95807 0.834866 9.96405C0.8249 9.95807 0.812941 9.9481 0.802975 9.94411C0.755137 9.92618 0.864765 9.98996 0.822907 9.96006C0.820914 9.95807 0.796995 9.93215 0.796995 9.93215C0.802975 9.92617 0.83686 10.0019 0.820914 9.96205C0.81892 9.96006 0.789022 9.90624 0.789022 9.90624C0.785036 9.90824 0.828887 9.978 0.806961 9.94013C0.804968 9.93813 0.798988 9.90226 0.796995 9.90226C0.804968 9.90226 0.800981 10.0079 0.802975 9.92817C0.802975 9.92418 0.802975 9.9202 0.802975 9.9182C0.802975 9.89628 0.802975 9.87435 0.802975 9.85442C0.802975 9.27439 0.802975 8.69635 0.802975 8.11632C0.802975 7.62 0.816927 7.12369 0.802975 6.62737C0.802975 6.62538 0.802975 6.62139 0.802975 6.6194C0.800981 6.5895 0.806961 6.57555 0.800981 6.6194C0.789022 6.69315 0.802975 6.6194 0.802975 6.6194C0.804968 6.61541 0.804968 6.61143 0.806961 6.60744C0.812941 6.58751 0.810948 6.5895 0.798988 6.61741C0.804968 6.6194 0.773076 6.65727 0.798988 6.61741C0.796995 6.62139 0.8249 6.57356 0.8249 6.57356C0.8249 6.57356 0.775069 6.63734 0.802975 6.60545C0.804968 6.60345 0.83088 6.57754 0.83088 6.57953C0.844833 6.59747 0.755137 6.62339 0.810948 6.59548C0.820914 6.59149 0.834866 6.58352 0.844832 6.57754C0.880711 6.55163 0.810948 6.59947 0.808954 6.59349C0.806961 6.58551 0.860778 6.58551 0.858785 6.58153C0.862772 6.58153 0.75713 6.58751 0.83686 6.58551C1.04416 6.57954 1.24547 6.40612 1.23551 6.18687C1.22554 5.97559 1.0601 5.78224 0.83686 5.78822C0.454159 5.80018 0.0893967 6.06528 0.0256133 6.45795C0.0116606 6.54565 0.00767419 6.62737 0.00767419 6.71508C0.00767419 6.96622 0.00767419 7.21936 0.00767419 7.47051C0.00767419 8.16615 0.00767419 8.86179 0.00767419 9.55743C0.00767419 9.75077 -0.0122582 9.96405 0.0395659 10.1514C0.135241 10.5122 0.474091 10.7454 0.838853 10.7554C0.880711 10.7574 0.924562 10.7554 0.96642 10.7554C1.58632 10.7554 2.2082 10.7554 2.8281 10.7554C3.37026 10.7554 3.91242 10.7574 4.45259 10.7554C4.93096 10.7534 5.30569 10.3866 5.30968 9.90624C5.31167 9.70692 5.30968 9.5076 5.30968 9.31027C5.30968 8.60267 5.30968 7.89507 5.30968 7.18747C5.30968 7.0021 5.31366 6.81474 5.30968 6.62937C5.29971 6.14302 4.921 5.78822 4.44063 5.78822C3.88252 5.78822 3.32641 5.78822 2.7683 5.78822C2.16037 5.78822 1.55243 5.78822 0.942501 5.78822C0.906623 5.78822 0.872738 5.78822 0.83686 5.78822C0.62757 5.78822 0.428247 5.9716 0.438213 6.18687C0.448179 6.40214 0.613617 6.58551 0.83686 6.58551Z" fill="#5B61F3"/>
<path d="M0.83686 12.3797C1.2674 12.3797 1.69794 12.3797 2.12848 12.3797C2.78824 12.3797 3.448 12.3797 4.10776 12.3797C4.19945 12.3797 4.29113 12.3797 4.38282 12.3797C4.39877 12.3797 4.49444 12.3917 4.5084 12.3797C4.50042 12.3777 4.49046 12.3777 4.48248 12.3757C4.45259 12.3697 4.44661 12.3697 4.46853 12.3757C4.47053 12.3737 4.5064 12.3877 4.5064 12.3857C4.50441 12.3917 4.4187 12.3339 4.48248 12.3757C4.49046 12.3817 4.5064 12.3937 4.51438 12.3956C4.55623 12.4076 4.4765 12.3817 4.48448 12.3717C4.48448 12.3717 4.51039 12.3956 4.51238 12.3976C4.54228 12.4375 4.4785 12.3299 4.49644 12.3777C4.50242 12.3917 4.51438 12.4096 4.52235 12.4216C4.54826 12.4574 4.50042 12.3877 4.5064 12.3857C4.51438 12.3837 4.51438 12.4375 4.51836 12.4355C4.51039 12.4355 4.51438 12.3418 4.51238 12.4096C4.51238 12.4136 4.51238 12.4176 4.51238 12.4216C4.51039 12.4794 4.51238 12.5392 4.51238 12.597C4.51238 13.2248 4.51238 13.8527 4.51238 14.4786C4.51238 14.7835 4.51238 15.0905 4.51238 15.3955C4.51238 15.4812 4.51238 15.5689 4.51238 15.6546C4.51238 15.6745 4.51238 15.6945 4.51238 15.7124C4.51238 15.7144 4.51238 15.7184 4.51238 15.7204C4.51637 15.7941 4.51039 15.6685 4.51637 15.7084C4.51637 15.7124 4.51438 15.7164 4.51438 15.7204C4.50441 15.7542 4.50441 15.7542 4.51836 15.7224C4.53032 15.6945 4.53232 15.6905 4.52434 15.7104C4.52036 15.7184 4.51637 15.7263 4.51238 15.7323C4.51238 15.7343 4.49245 15.7642 4.49245 15.7642C4.48049 15.7562 4.55225 15.7004 4.5064 15.7423C4.57019 15.7124 4.45458 15.7881 4.5064 15.7423C4.50042 15.7443 4.46255 15.7682 4.46056 15.7662C4.46255 15.7702 4.53232 15.7263 4.49444 15.7483C4.49245 15.7503 4.45657 15.7562 4.45657 15.7582C4.45657 15.7503 4.56221 15.7542 4.48248 15.7523C4.47252 15.7523 4.46455 15.7523 4.45458 15.7523C4.3888 15.7523 4.32303 15.7523 4.25725 15.7523C3.98617 15.7523 3.7131 15.7523 3.44202 15.7523C2.76033 15.7523 2.07864 15.7523 1.39696 15.7523C1.21757 15.7523 1.04017 15.7542 0.860778 15.7523C0.852805 15.7523 0.814934 15.7483 0.810948 15.7523C0.81892 15.7542 0.828887 15.7542 0.83686 15.7562C0.872738 15.7622 0.872738 15.7622 0.83686 15.7542C0.832873 15.7523 0.828887 15.7523 0.8249 15.7503C0.804968 15.7443 0.806961 15.7463 0.834866 15.7582C0.874731 15.7841 0.83686 15.7523 0.834866 15.7582C0.8249 15.7523 0.812941 15.7423 0.802975 15.7383C0.755137 15.7204 0.864765 15.7841 0.822907 15.7542C0.820914 15.7523 0.796995 15.7263 0.796995 15.7263C0.802975 15.7204 0.83686 15.7961 0.820914 15.7562C0.81892 15.7523 0.789022 15.7004 0.789022 15.7004C0.785036 15.7024 0.828887 15.7722 0.806961 15.7343C0.804968 15.7323 0.798988 15.6964 0.796995 15.6964C0.804968 15.6964 0.800981 15.8021 0.802975 15.7224C0.802975 15.7184 0.802975 15.7144 0.802975 15.7124C0.802975 15.6905 0.802975 15.6685 0.802975 15.6486C0.802975 15.0686 0.802975 14.4905 0.802975 13.9105C0.802975 13.4142 0.816927 12.9179 0.802975 12.4216C0.802975 12.4196 0.802975 12.4156 0.802975 12.4136C0.800981 12.3837 0.806961 12.3697 0.800981 12.4136C0.789022 12.4873 0.802975 12.4136 0.802975 12.4136C0.804968 12.4096 0.804968 12.4056 0.806961 12.4016C0.812941 12.3817 0.810948 12.3837 0.798988 12.4116C0.804968 12.4136 0.773076 12.4515 0.798988 12.4116C0.796995 12.4156 0.8249 12.3677 0.8249 12.3677C0.8249 12.3677 0.775069 12.4315 0.802975 12.3996C0.804968 12.3976 0.83088 12.3717 0.83088 12.3737C0.844833 12.3917 0.755137 12.4176 0.810948 12.3897C0.820914 12.3857 0.834866 12.3777 0.844832 12.3717C0.880711 12.3458 0.810948 12.3937 0.808954 12.3877C0.806961 12.3797 0.860778 12.3797 0.858785 12.3757C0.862772 12.3777 0.75713 12.3817 0.83686 12.3797C1.04416 12.3737 1.24547 12.2003 1.23551 11.9811C1.22554 11.7698 1.0601 11.5764 0.83686 11.5824C0.454159 11.5944 0.0893967 11.8595 0.0256133 12.2521C0.0116606 12.3398 0.00767419 12.4216 0.00767419 12.5093C0.00767419 12.7604 0.00767419 13.0136 0.00767419 13.2647C0.00767419 13.9603 0.00767419 14.656 0.00767419 15.3516C0.00767419 15.545 -0.0122582 15.7582 0.0395659 15.9456C0.135241 16.3064 0.474091 16.5396 0.838853 16.5495C0.880711 16.5515 0.924562 16.5495 0.96642 16.5495C1.58632 16.5495 2.2082 16.5495 2.8281 16.5495C3.37026 16.5495 3.91242 16.5515 4.45259 16.5495C4.93096 16.5476 5.30569 16.1808 5.30968 15.7004C5.31167 15.5011 5.30968 15.3018 5.30968 15.1045C5.30968 14.3969 5.30968 13.6893 5.30968 12.9817C5.30968 12.7963 5.31366 12.6089 5.30968 12.4236C5.29971 11.9372 4.921 11.5824 4.44063 11.5824C3.88252 11.5824 3.32641 11.5824 2.7683 11.5824C2.16037 11.5824 1.55243 11.5824 0.942501 11.5824C0.906623 11.5824 0.872738 11.5824 0.83686 11.5824C0.62757 11.5824 0.428247 11.7658 0.438213 11.9811C0.448179 12.1963 0.613617 12.3797 0.83686 12.3797Z" fill="#5B61F3"/>
<path d="M18.1962 0.829185C18.1962 1.29162 18.1962 1.75604 18.1962 2.21847C18.1962 2.82043 18.1962 3.42039 18.1962 4.02235C18.1962 4.04826 18.1962 4.07417 18.1962 4.10008C18.1962 4.11802 18.1902 4.17981 18.1982 4.124C18.2101 4.05025 18.1962 4.124 18.1962 4.124C18.1942 4.13197 18.1922 4.13995 18.1882 4.14991C18.1962 4.13397 18.2022 4.11802 18.2101 4.10208C18.2101 4.10208 18.1743 4.16985 18.1723 4.16785C18.1603 4.15988 18.2321 4.10407 18.1862 4.14593C18.1523 4.17582 18.1822 4.14393 18.1882 4.14792C18.1842 4.14593 18.2301 4.12599 18.1882 4.14593C18.1783 4.15191 18.1663 4.15789 18.1543 4.16387C18.1344 4.17383 18.1384 4.17184 18.1663 4.15789C18.1703 4.16785 18.2062 4.12998 18.1643 4.1539C18.1185 4.17981 18.1464 4.11603 18.1922 4.15191H18.1643C18.1623 4.15191 18.1623 4.15191 18.1603 4.15191C18.0985 4.14991 18.0367 4.15191 17.9769 4.15191C17.6241 4.15191 17.2713 4.15191 16.9185 4.15191C16.3385 4.15191 15.7585 4.15191 15.1784 4.15191C14.4728 4.15191 13.7672 4.15191 13.0616 4.15191C12.3321 4.15191 11.6026 4.15191 10.8731 4.15191C10.2213 4.15191 9.56748 4.15191 8.9157 4.15191C8.4433 4.15191 7.96891 4.15191 7.49651 4.15191C7.29918 4.15191 7.10185 4.14393 6.90452 4.15191H6.90253C6.83476 4.1539 6.96432 4.17782 6.90253 4.1539C6.84473 4.12998 6.92047 4.17582 6.92446 4.16785C6.92446 4.16785 6.8826 4.14593 6.87861 4.14393C6.83675 4.12201 6.8806 4.14393 6.87861 4.14593C6.89256 4.13596 6.90452 4.17782 6.87263 4.13397C6.84672 4.10008 6.89256 4.16586 6.89456 4.16586C6.89456 4.16586 6.87462 4.13596 6.87462 4.13397C6.84871 4.08414 6.86665 4.124 6.86665 4.124C6.87064 4.13197 6.87462 4.13995 6.87662 4.14792C6.87462 4.13995 6.87263 4.13197 6.86864 4.12201C6.86864 4.12201 6.85469 4.05025 6.86665 4.12201C6.87462 4.16387 6.86864 4.14991 6.86864 4.12201C6.87064 4.08214 6.86864 4.04228 6.86864 4.00241C6.86864 3.74927 6.86864 3.49813 6.86864 3.24498C6.86864 2.56928 6.86864 1.89158 6.86864 1.21587C6.86864 1.1202 6.86864 1.02253 6.86864 0.926854C6.86864 0.900942 6.86864 0.87503 6.86864 0.851111C6.86864 0.845131 6.86864 0.839151 6.86864 0.835165C6.86864 0.833172 6.86864 0.833172 6.86864 0.831178C6.87064 0.7953 6.87064 0.7953 6.86665 0.831178C6.86067 0.861077 6.86067 0.867057 6.86665 0.845131C6.86466 0.843138 6.87861 0.80726 6.87662 0.80726C6.8826 0.809253 6.82479 0.894962 6.86665 0.831178C6.87263 0.823206 6.88459 0.80726 6.88658 0.799287C6.89854 0.757429 6.87263 0.837158 6.86267 0.829185C6.86466 0.831178 6.89456 0.789321 6.89854 0.793307C6.90452 0.799287 6.82878 0.833172 6.86864 0.817226C6.87861 0.813239 6.89256 0.803273 6.90054 0.797294C6.96033 0.757429 6.84672 0.827192 6.88858 0.803273C6.89057 0.80128 6.92645 0.7953 6.92645 0.793307C6.92645 0.80128 6.84074 0.7953 6.88658 0.80128C6.89854 0.803273 6.89655 0.80128 6.90054 0.80128C6.90253 0.80128 6.90253 0.80128 6.90452 0.80128C6.92446 0.80128 6.94439 0.80128 6.96631 0.80128C7.25135 0.80128 7.53638 0.80128 7.82141 0.80128C8.3536 0.80128 8.8858 0.80128 9.41998 0.80128C10.1037 0.80128 10.7893 0.80128 11.473 0.80128C12.2065 0.80128 12.938 0.80128 13.6716 0.80128C14.3512 0.80128 15.0329 0.80128 15.7126 0.80128C16.2408 0.80128 16.767 0.80128 17.2953 0.80128C17.5683 0.80128 17.8394 0.80128 18.1125 0.80128C18.1284 0.80128 18.1464 0.80128 18.1623 0.80128H18.1643H18.1922C18.1464 0.837158 18.1205 0.773375 18.1643 0.799287C18.2281 0.835165 18.1025 0.757429 18.1663 0.797294C18.1623 0.7953 18.2101 0.823206 18.2101 0.823206C18.2101 0.823206 18.1464 0.773375 18.1783 0.80128C18.1802 0.803273 18.2062 0.829185 18.2042 0.829185C18.1862 0.843138 18.1603 0.753442 18.1882 0.809253C18.1922 0.819219 18.2002 0.833172 18.2062 0.843138C18.2321 0.879016 18.1842 0.809253 18.1902 0.80726C18.1982 0.805266 18.1982 0.859084 18.2022 0.857091C18.1982 0.855097 18.1942 0.749456 18.1962 0.829185C18.2022 1.03648 18.3756 1.2378 18.5948 1.22783C18.8061 1.21787 18.9995 1.05243 18.9935 0.829185C18.9795 0.356789 18.6068 0.00199323 18.1364 0C18.0487 0 17.961 0 17.8713 0C17.4667 0 17.062 0 16.6574 0C16.0335 0 15.4097 0 14.7858 0C14.0543 0 13.3227 0 12.5912 0C11.8537 0 11.1162 0 10.3787 0C9.74887 0 9.11901 0 8.48914 0C8.06857 0 7.64999 0 7.22942 0C7.13375 0 7.03608 0 6.9404 0C6.55969 0 6.21885 0.219256 6.10324 0.59199C6.04544 0.775368 6.06936 0.99861 6.06936 1.18996C6.06936 1.50888 6.06936 1.82979 6.06936 2.14871C6.06936 2.7686 6.06936 3.3885 6.06936 4.01039C6.06936 4.05623 6.06736 4.10407 6.06936 4.14991C6.09128 4.52464 6.35838 4.86748 6.73709 4.93325C6.83675 4.95119 6.92844 4.95119 7.0281 4.95119C7.36297 4.95119 7.69982 4.95119 8.03469 4.95119C8.61671 4.95119 9.19674 4.95119 9.77877 4.95119C10.4923 4.95119 11.2079 4.95119 11.9215 4.95119C12.667 4.95119 13.4144 4.95119 14.1599 4.95119C14.8256 4.95119 15.4894 4.95119 16.1551 4.95119C16.6375 4.95119 17.1179 4.95119 17.6002 4.95119C17.7876 4.95119 17.9749 4.95518 18.1603 4.95119C18.5291 4.94123 18.8699 4.70005 18.9616 4.33329C18.9855 4.23562 18.9895 4.13995 18.9895 4.04228C18.9895 3.7991 18.9895 3.55792 18.9895 3.31475C18.9895 2.6231 18.9895 1.93344 18.9895 1.24178C18.9895 1.10425 18.9895 0.964725 18.9895 0.827192C18.9895 0.617903 18.8061 0.418579 18.5909 0.428545C18.3796 0.440505 18.1962 0.605943 18.1962 0.829185Z" fill="#5B61F3"/>
<path d="M6.90154 6.58517C7.07695 6.58517 7.25434 6.58517 7.42975 6.58517C7.89018 6.58517 8.35261 6.58517 8.81305 6.58517C9.46085 6.58517 10.1087 6.58517 10.7584 6.58517C11.486 6.58517 12.2135 6.58517 12.943 6.58517C13.6526 6.58517 14.3622 6.58517 15.0718 6.58517C15.6618 6.58517 16.2518 6.58517 16.8398 6.58517C17.2105 6.58517 17.5793 6.58517 17.95 6.58517C18.0198 6.58517 18.0896 6.58716 18.1573 6.58517C18.1613 6.58517 18.1633 6.58517 18.1673 6.58517H18.1952C18.2052 6.5772 18.1115 6.59713 18.1553 6.58118C18.1573 6.57919 18.1932 6.59115 18.1932 6.59115C18.1892 6.6071 18.1175 6.5473 18.1693 6.58118C18.1793 6.58716 18.1912 6.59713 18.2012 6.60112C18.241 6.61706 18.1653 6.58318 18.1713 6.5772C18.1753 6.57321 18.2052 6.61507 18.2072 6.61308C18.2012 6.61906 18.1613 6.53534 18.1912 6.59314C18.1932 6.59912 18.2171 6.63699 18.2151 6.63899C18.2191 6.63699 18.1753 6.56723 18.1972 6.6051C18.1992 6.6071 18.2052 6.64297 18.2072 6.64297C18.1992 6.64297 18.2032 6.53733 18.2012 6.61706C18.2012 6.61905 18.2012 6.62304 18.2012 6.62503C18.2012 6.64497 18.2012 6.6649 18.2012 6.68284C18.2012 7.25888 18.2012 7.83493 18.2012 8.41097C18.2012 8.91327 18.1872 9.41756 18.2012 9.91985C18.2012 9.92184 18.2012 9.92583 18.2012 9.92782C18.2032 9.99559 18.2271 9.86603 18.2032 9.92782C18.1793 9.98563 18.2251 9.90988 18.2171 9.9059C18.2171 9.9059 18.1952 9.94776 18.1932 9.95174C18.1713 9.9936 18.1932 9.94975 18.1952 9.95174C18.1852 9.93779 18.2271 9.92583 18.1832 9.95772C18.1494 9.98363 18.2151 9.93779 18.2151 9.9358C18.2151 9.9358 18.1852 9.95573 18.1832 9.95573C18.1334 9.98164 18.1733 9.9637 18.1733 9.9637C18.1813 9.95972 18.1892 9.95573 18.1972 9.95374C18.1892 9.95573 18.1813 9.95772 18.1713 9.96171C18.1713 9.96171 18.0995 9.97566 18.1713 9.9637C18.2131 9.95573 18.1992 9.96171 18.1713 9.96171C18.1593 9.96171 18.1474 9.96171 18.1334 9.96171C18.0417 9.96171 17.952 9.96171 17.8603 9.96171C17.4577 9.96171 17.0531 9.96171 16.6504 9.96171C16.0405 9.96171 15.4306 9.96171 14.8187 9.96171C14.1011 9.96171 13.3835 9.96171 12.666 9.96171C11.9424 9.96171 11.2189 9.96171 10.4973 9.96171C9.86747 9.96171 9.23562 9.96171 8.60576 9.96171C8.17522 9.96171 7.74468 9.96171 7.31414 9.96171C7.20451 9.96171 7.09488 9.96171 6.98326 9.96171C6.95934 9.96171 6.93742 9.96171 6.9135 9.96171C6.90951 9.96171 6.90752 9.96171 6.90353 9.96171C6.83776 9.96569 6.93144 9.94975 6.92945 9.96769C6.92945 9.96769 6.89357 9.95972 6.89157 9.95772C6.85171 9.93978 6.92546 9.97765 6.92546 9.97566C6.92546 9.97566 6.87563 9.94975 6.87961 9.95174C6.93144 9.99759 6.81782 9.92184 6.87961 9.95174C6.83377 9.90988 6.90553 9.9657 6.89357 9.97367C6.89157 9.97367 6.86965 9.9338 6.86766 9.92982C6.87364 9.92782 6.84174 9.88995 6.86766 9.92982C6.87164 9.93779 6.87563 9.94576 6.87762 9.95374C6.87364 9.94178 6.86965 9.92782 6.86766 9.91586C6.87364 9.876 6.86766 10.0036 6.87164 9.92782C6.87164 9.92384 6.87164 9.92184 6.87164 9.91786C6.87164 9.89793 6.87164 9.876 6.87164 9.85607C6.87164 9.76836 6.87164 9.67867 6.87164 9.59097C6.87164 9.28401 6.87164 8.97506 6.87164 8.6681C6.87164 8.04023 6.87164 7.41436 6.87164 6.78649C6.87164 6.73267 6.87364 6.68085 6.87164 6.62703C6.87164 6.62503 6.87164 6.62105 6.87164 6.61905V6.59115C6.90752 6.635 6.84374 6.66291 6.86965 6.61905C6.90553 6.55527 6.82779 6.68085 6.86766 6.61706C6.86566 6.62105 6.89357 6.57321 6.89357 6.57321C6.89357 6.57321 6.84374 6.63699 6.87164 6.6051C6.87364 6.60311 6.89955 6.5772 6.89955 6.57919C6.9135 6.59713 6.8238 6.62304 6.87961 6.59514C6.88958 6.59115 6.90353 6.58318 6.9135 6.5772C6.94938 6.55128 6.87961 6.59912 6.87762 6.59314C6.87563 6.58517 6.92945 6.58517 6.92745 6.58118C6.92745 6.58118 6.82181 6.58716 6.90154 6.58517C7.10884 6.57919 7.31015 6.40578 7.30019 6.18652C7.29022 5.97524 7.12478 5.7819 6.90154 5.78788C6.52283 5.79984 6.16404 6.05696 6.09229 6.44365C6.07435 6.53534 6.07236 6.61905 6.07236 6.70875C6.07236 6.95392 6.07236 7.19709 6.07236 7.44226C6.07236 8.13391 6.07236 8.82557 6.07236 9.51722C6.07236 9.66671 6.06438 9.8182 6.07435 9.96769C6.10624 10.4281 6.47898 10.753 6.93343 10.757C7.19654 10.759 7.45765 10.757 7.72076 10.757C8.25295 10.757 8.78714 10.757 9.31933 10.757C10.015 10.757 10.7086 10.757 11.4043 10.757C12.1497 10.757 12.8972 10.757 13.6427 10.757C14.3383 10.757 15.0339 10.757 15.7316 10.757C16.2658 10.757 16.7999 10.757 17.3361 10.757C17.6012 10.757 17.8663 10.757 18.1314 10.757C18.5301 10.755 18.9068 10.4959 18.9785 10.0873C19.0104 9.9059 18.9965 9.71455 18.9965 9.53117C18.9965 8.84151 18.9965 8.15185 18.9965 7.4602C18.9965 7.21304 18.9965 6.96388 18.9965 6.71672C18.9965 6.64696 18.9965 6.58118 18.9865 6.50943C18.9327 6.10879 18.5998 5.80781 18.1952 5.78788C18.0058 5.77791 17.8145 5.78788 17.6251 5.78788C17.1488 5.78788 16.6704 5.78788 16.194 5.78788C15.5322 5.78788 14.8685 5.78788 14.2067 5.78788C13.4613 5.78788 12.7138 5.78788 11.9683 5.78788C11.2488 5.78788 10.5312 5.78788 9.81166 5.78788C9.22764 5.78788 8.64363 5.78788 8.0616 5.78788C7.72076 5.78788 7.37992 5.78788 7.04107 5.78788C6.99522 5.78788 6.95137 5.78788 6.90553 5.78788C6.69624 5.78788 6.49691 5.97125 6.50688 6.18652C6.51286 6.40179 6.6783 6.58517 6.90154 6.58517Z" fill="#5B61F3"/>
<path d="M6.90154 12.3801C7.07695 12.3801 7.25434 12.3801 7.42975 12.3801C7.89018 12.3801 8.35261 12.3801 8.81305 12.3801C9.46085 12.3801 10.1087 12.3801 10.7584 12.3801C11.486 12.3801 12.2135 12.3801 12.943 12.3801C13.6526 12.3801 14.3622 12.3801 15.0718 12.3801C15.6618 12.3801 16.2518 12.3801 16.8398 12.3801C17.2105 12.3801 17.5793 12.3801 17.95 12.3801C18.0198 12.3801 18.0896 12.3821 18.1573 12.3801C18.1613 12.3801 18.1633 12.3801 18.1673 12.3801H18.1952C18.2052 12.3721 18.1115 12.3921 18.1553 12.3761C18.1573 12.3741 18.1932 12.3861 18.1932 12.3861C18.1892 12.402 18.1175 12.3422 18.1693 12.3761C18.1793 12.3821 18.1912 12.3921 18.2012 12.396C18.241 12.412 18.1653 12.3781 18.1713 12.3721C18.1753 12.3681 18.2052 12.41 18.2072 12.408C18.2012 12.414 18.1613 12.3303 18.1912 12.3881C18.1932 12.394 18.2171 12.4319 18.2151 12.4339C18.2191 12.4319 18.1753 12.3622 18.1972 12.4C18.1992 12.402 18.2052 12.4379 18.2072 12.4379C18.1992 12.4379 18.2032 12.3323 18.2012 12.412C18.2012 12.414 18.2012 12.418 18.2012 12.42C18.2012 12.4399 18.2012 12.4598 18.2012 12.4778C18.2012 13.0538 18.2012 13.6298 18.2012 14.2059C18.2012 14.7082 18.1872 15.2125 18.2012 15.7148C18.2012 15.7168 18.2012 15.7208 18.2012 15.7227C18.2032 15.7905 18.2271 15.661 18.2032 15.7227C18.1793 15.7805 18.2251 15.7048 18.2171 15.7008C18.2171 15.7008 18.1952 15.7427 18.1932 15.7467C18.1713 15.7885 18.1932 15.7447 18.1952 15.7467C18.1852 15.7327 18.2271 15.7208 18.1832 15.7526C18.1494 15.7786 18.2151 15.7327 18.2151 15.7307C18.2151 15.7307 18.1852 15.7507 18.1832 15.7507C18.1334 15.7766 18.1733 15.7586 18.1733 15.7586C18.1813 15.7546 18.1892 15.7507 18.1972 15.7487C18.1892 15.7507 18.1813 15.7526 18.1713 15.7566C18.1713 15.7566 18.0995 15.7706 18.1713 15.7586C18.2131 15.7507 18.1992 15.7566 18.1713 15.7566C18.1593 15.7566 18.1474 15.7566 18.1334 15.7566C18.0417 15.7566 17.952 15.7566 17.8603 15.7566C17.4577 15.7566 17.0531 15.7566 16.6504 15.7566C16.0405 15.7566 15.4306 15.7566 14.8187 15.7566C14.1011 15.7566 13.3835 15.7566 12.666 15.7566C11.9424 15.7566 11.2189 15.7566 10.4973 15.7566C9.86747 15.7566 9.23562 15.7566 8.60576 15.7566C8.17522 15.7566 7.74468 15.7566 7.31414 15.7566C7.20451 15.7566 7.09488 15.7566 6.98326 15.7566C6.95934 15.7566 6.93742 15.7566 6.9135 15.7566C6.90951 15.7566 6.90752 15.7566 6.90353 15.7566C6.83776 15.7606 6.93144 15.7447 6.92945 15.7626C6.92945 15.7626 6.89357 15.7546 6.89157 15.7526C6.85171 15.7347 6.92546 15.7726 6.92546 15.7706C6.92546 15.7706 6.87563 15.7447 6.87961 15.7467C6.93144 15.7925 6.81782 15.7168 6.87961 15.7467C6.83377 15.7048 6.90553 15.7606 6.89357 15.7686C6.89157 15.7686 6.86965 15.7287 6.86766 15.7247C6.87364 15.7227 6.84174 15.6849 6.86766 15.7247C6.87164 15.7327 6.87563 15.7407 6.87762 15.7487C6.87364 15.7367 6.86965 15.7227 6.86766 15.7108C6.87364 15.6709 6.86766 15.7985 6.87164 15.7227C6.87164 15.7188 6.87164 15.7168 6.87164 15.7128C6.87164 15.6928 6.87164 15.6709 6.87164 15.651C6.87164 15.5633 6.87164 15.4736 6.87164 15.3859C6.87164 15.0789 6.87164 14.77 6.87164 14.463C6.87164 13.8352 6.87164 13.2093 6.87164 12.5814C6.87164 12.5276 6.87364 12.4758 6.87164 12.4219C6.87164 12.42 6.87164 12.416 6.87164 12.414V12.3861C6.90752 12.4299 6.84374 12.4578 6.86965 12.414C6.90553 12.3502 6.82779 12.4758 6.86766 12.412C6.86566 12.416 6.89357 12.3681 6.89357 12.3681C6.89357 12.3681 6.84374 12.4319 6.87164 12.4C6.87364 12.398 6.89955 12.3721 6.89955 12.3741C6.9135 12.3921 6.8238 12.418 6.87961 12.3901C6.88958 12.3861 6.90353 12.3781 6.9135 12.3721C6.94938 12.3462 6.87961 12.394 6.87762 12.3881C6.87563 12.3801 6.92945 12.3801 6.92745 12.3761C6.92745 12.3781 6.82181 12.3821 6.90154 12.3801C7.10884 12.3741 7.31015 12.2007 7.30019 11.9814C7.29022 11.7702 7.12478 11.5768 6.90154 11.5828C6.52283 11.5948 6.16404 11.8519 6.09229 12.2386C6.07435 12.3303 6.07236 12.414 6.07236 12.5037C6.07236 12.7488 6.07236 12.992 6.07236 13.2372C6.07236 13.9288 6.07236 14.6205 6.07236 15.3121C6.07236 15.4616 6.06438 15.6131 6.07435 15.7626C6.10624 16.223 6.47898 16.5479 6.93343 16.5519C7.19654 16.5539 7.45765 16.5519 7.72076 16.5519C8.25295 16.5519 8.78714 16.5519 9.31933 16.5519C10.015 16.5519 10.7086 16.5519 11.4043 16.5519C12.1497 16.5519 12.8972 16.5519 13.6427 16.5519C14.3383 16.5519 15.0339 16.5519 15.7316 16.5519C16.2658 16.5519 16.7999 16.5519 17.3361 16.5519C17.6012 16.5519 17.8663 16.5519 18.1314 16.5519C18.5301 16.5499 18.9068 16.2908 18.9785 15.8822C19.0104 15.7008 18.9965 15.5095 18.9965 15.3261C18.9965 14.6364 18.9965 13.9468 18.9965 13.2551C18.9965 13.008 18.9965 12.7588 18.9965 12.5116C18.9965 12.4419 18.9965 12.3761 18.9865 12.3043C18.9327 11.9037 18.5998 11.6027 18.1952 11.5828C18.0058 11.5728 17.8145 11.5828 17.6251 11.5828C17.1488 11.5828 16.6704 11.5828 16.194 11.5828C15.5322 11.5828 14.8685 11.5828 14.2067 11.5828C13.4613 11.5828 12.7138 11.5828 11.9683 11.5828C11.2488 11.5828 10.5312 11.5828 9.81166 11.5828C9.22764 11.5828 8.64363 11.5828 8.0616 11.5828C7.72076 11.5828 7.37992 11.5828 7.04107 11.5828C6.99522 11.5828 6.95137 11.5828 6.90553 11.5828C6.69624 11.5828 6.49691 11.7662 6.50688 11.9814C6.51286 12.1967 6.6783 12.3801 6.90154 12.3801Z" fill="#5B61F3"/>
</svg>
