<svg width="18" height="21" viewBox="0 0 18 21" fill="none" xmlns="http://www.w3.org/2000/svg">
<path d="M9.74158 19.3417H2.82368C2.04727 19.3417 1.41199 18.7064 1.41199 17.93V2.82368C1.41199 2.04727 2.04727 1.41199 2.82368 1.41199H9.74158C10.1298 1.41199 10.4476 1.09423 10.4476 0.705996C10.4476 0.317779 10.1298 0 9.74158 0H2.82368C1.27055 0 0 1.27055 0 2.82368V17.93C0 19.4832 1.27055 20.7537 2.82368 20.7537H9.74158C10.1298 20.7537 10.4476 20.4359 10.4476 20.0477C10.4476 19.6595 10.1298 19.342 9.74158 19.342V19.3417Z" fill="#192339"/>
<path d="M17.9648 10.271C17.9648 10.2358 17.9648 10.2358 17.9296 10.2004C17.9296 10.1651 17.9296 10.1297 17.8944 10.1297C17.8592 10.1297 17.8944 10.0944 17.8592 10.059C17.8592 10.0237 17.8592 10.0237 17.8239 10.0237V9.95305L13.3058 5.0474C13.0235 4.7651 12.5646 4.7651 12.2823 5.01217C12 5.29447 12 5.71817 12.2471 6.00044L15.6706 9.67101H5.8935C5.50528 9.67101 5.1875 9.98876 5.1875 10.377C5.1875 10.7652 5.50526 11.083 5.8935 11.083H15.6706L12.2468 14.7538C11.9998 15.0361 11.9998 15.4598 12.2821 15.7421C12.4232 15.8832 12.5998 15.9539 12.7762 15.9539C12.988 15.9539 13.1644 15.848 13.3056 15.7069L17.788 10.8714V10.8007C17.8232 10.8007 17.8232 10.8007 17.8232 10.7655C17.8939 10.7303 17.8939 10.7303 17.8939 10.6948C17.9291 10.6948 17.9291 10.6596 17.9291 10.6241C17.9644 10.5889 17.9644 10.5889 17.9644 10.5534C17.9644 10.5182 17.9996 10.4475 17.9996 10.4123C18.0001 10.3771 17.9648 10.3064 17.9648 10.2711L17.9648 10.271Z" fill="#192339"/>
</svg>
