<svg width="18" height="21" viewBox="0 0 18 21" fill="none" xmlns="http://www.w3.org/2000/svg">
<path d="M9.74158 19.3417H2.82368C2.04727 19.3417 1.41199 18.7064 1.41199 17.93V2.82368C1.41199 2.04727 2.04727 1.41199 2.82368 1.41199H9.74158C10.1298 1.41199 10.4476 1.09423 10.4476 0.705996C10.4476 0.317779 10.1298 0 9.74158 0H2.82368C1.27055 0 0 1.27055 0 2.82368V17.93C0 19.4832 1.27055 20.7537 2.82368 20.7537H9.74158C10.1298 20.7537 10.4476 20.4359 10.4476 20.0477C10.4476 19.6595 10.1298 19.342 9.74158 19.342V19.3417Z" fill="white"/>
<path d="M17.9648 10.2713C17.9648 10.2361 17.9648 10.2361 17.9296 10.2006C17.9296 10.1654 17.9296 10.1299 17.8944 10.1299C17.8592 10.1299 17.8944 10.0947 17.8592 10.0592C17.8592 10.024 17.8592 10.024 17.8239 10.024V9.9533L13.3058 5.04764C13.0235 4.76535 12.5646 4.76535 12.2823 5.01242C12 5.29471 12 5.71841 12.2471 6.00069L15.6706 9.67125H5.8935C5.50528 9.67125 5.1875 9.98901 5.1875 10.3772C5.1875 10.7655 5.50526 11.0832 5.8935 11.0832H15.6706L12.2468 14.7541C11.9998 15.0363 11.9998 15.46 12.2821 15.7423C12.4232 15.8835 12.5998 15.9542 12.7762 15.9542C12.988 15.9542 13.1644 15.8482 13.3056 15.7071L17.788 10.8717V10.801C17.8232 10.801 17.8232 10.801 17.8232 10.7658C17.8939 10.7305 17.8939 10.7305 17.8939 10.6951C17.9291 10.6951 17.9291 10.6598 17.9291 10.6244C17.9644 10.5891 17.9644 10.5891 17.9644 10.5537C17.9644 10.5184 17.9996 10.4478 17.9996 10.4125C18.0001 10.3773 17.9648 10.3066 17.9648 10.2714L17.9648 10.2713Z" fill="white"/>
</svg>
