<svg width="20" height="20" viewBox="0 0 20 20" fill="none" xmlns="http://www.w3.org/2000/svg">
<path d="M1.48419 1.48423L1.48423 1.4842C1.85835 1.11028 2.36565 0.9 2.89475 0.9H6.54117C7.07009 0.9 7.5776 1.11027 7.95154 1.48422L7.95154 1.48422C8.32563 1.85835 8.53592 2.36566 8.53592 2.89477V5.59374C8.53592 6.12284 8.32564 6.63018 7.95155 7.00428L1.48419 1.48423ZM1.48419 1.48423C1.11027 1.85833 0.9 2.36567 0.9 2.89477V5.59374C0.9 6.12285 1.11028 6.63015 1.48419 7.00428L1.48421 7.0043M1.48419 1.48423L1.48421 7.0043M1.48421 7.0043C1.85832 7.37841 2.36567 7.58851 2.89475 7.58851M1.48421 7.0043L2.89475 7.58851M7.14048 17.7044C7.29936 17.5454 7.38861 17.3299 7.38861 17.1052V10.6166C7.38861 10.3919 7.29938 10.1764 7.14055 10.0174C7.14052 10.0174 7.1405 10.0174 7.14048 10.0173M7.14048 17.7044L2.89489 9.66929H6.54131C6.79259 9.66929 7.03347 9.76907 7.21123 9.94667L7.14048 10.0173M7.14048 17.7044C6.98146 17.8633 6.76604 17.9525 6.54131 17.9525H2.89489C2.67017 17.9525 2.45473 17.8633 2.29572 17.7044C2.13685 17.5454 2.0476 17.33 2.0476 17.1052V10.6166C2.0476 10.3919 2.13682 10.1764 2.29566 10.0174C2.29568 10.0174 2.2957 10.0174 2.29572 10.0173M7.14048 17.7044L2.29572 10.0173M7.14048 10.0173C6.98147 9.85851 6.76603 9.76929 6.54131 9.76929H2.89489C2.67016 9.76929 2.45474 9.85851 2.29572 10.0173M7.14048 10.0173L2.29572 10.0173M2.89475 7.58851H6.54117M2.89475 7.58851H6.54117M6.54117 7.58851C7.07006 7.58851 7.57756 7.37842 7.95154 7.0043L6.54117 7.58851ZM10.1537 18.5156L10.1537 18.5156C10.5278 18.8895 11.0352 19.0998 11.5641 19.0998H17.1053C17.6344 19.0998 18.1417 18.8895 18.5158 18.5156L18.5158 18.5156C18.8897 18.1415 19.1 17.6342 19.1 17.1051V14.4061C19.1 13.877 18.8897 13.3697 18.5158 12.9956L18.5158 12.9955C18.1417 12.6214 17.6343 12.4113 17.1053 12.4113H11.5641C11.0352 12.4113 10.5279 12.6214 10.1537 12.9955L10.2244 13.0662L10.1537 12.9955C9.7796 13.3697 9.5695 13.877 9.5695 14.4061V17.1051C9.5695 17.6341 9.77961 18.1415 10.1537 18.5156ZM10.965 13.807L10.9651 13.807C11.1239 13.648 11.3395 13.5587 11.5641 13.5587H17.1052C17.33 13.5587 17.5454 13.648 17.7044 13.807C17.8633 13.9658 17.9525 14.1814 17.9525 14.4062V17.1052C17.9525 17.3299 17.8633 17.5454 17.7044 17.7044C17.5454 17.8633 17.33 17.9525 17.1052 17.9525H11.5641C11.3395 17.9525 11.1238 17.8632 10.965 17.7044C10.806 17.5454 10.7168 17.3299 10.7168 17.1052V14.4062C10.7168 14.1814 10.806 13.9658 10.965 13.807ZM1.4844 9.20606L1.48436 9.2061C1.11044 9.58019 0.900169 10.0875 0.900169 10.6166V17.1052C0.900169 17.6343 1.11045 18.1416 1.48436 18.5158L1.48439 18.5158C1.85849 18.8897 2.36582 19.1 2.89492 19.1H6.54134C7.07026 19.1 7.57774 18.8897 7.9517 18.5158C8.3258 18.1417 8.53609 17.6343 8.53609 17.1052V10.6166C8.53609 10.0875 8.3258 9.58021 7.95171 9.20608L7.881 9.27679L7.95171 9.20608C7.57777 8.83213 7.07026 8.62186 6.54134 8.62186H2.89492C2.36582 8.62186 1.85852 8.83215 1.4844 9.20606ZM10.1536 1.4842L10.1535 1.48422C9.77943 1.85833 9.56933 2.36569 9.56933 2.89477V9.38337C9.56933 9.91245 9.77944 10.4198 10.1535 10.7939L10.1536 10.7939C10.5276 11.1679 11.035 11.3781 11.5639 11.3781H17.1051C17.6342 11.3781 18.1415 11.1679 18.5156 10.7939L18.5156 10.7939C18.8896 10.4198 19.0998 9.91247 19.0998 9.38337V2.89477C19.0998 2.36567 18.8896 1.85836 18.5156 1.48424L18.5156 1.4842C18.1415 1.11028 17.6342 0.9 17.1051 0.9H11.5639C11.035 0.9 10.5277 1.11029 10.1536 1.4842ZM10.9649 9.98254L10.8941 10.0532L10.9649 9.98254C10.8058 9.82352 10.7166 9.60808 10.7166 9.38333V2.89473C10.7166 2.66998 10.8058 2.45453 10.9649 2.29552C11.1237 2.13668 11.3393 2.04742 11.5639 2.04742H17.1051C17.3298 2.04742 17.5452 2.13665 17.7042 2.29548C17.8631 2.45451 17.9523 2.66997 17.9523 2.89473V9.38333C17.9523 9.60808 17.8631 9.82355 17.7042 9.98257C17.5452 10.1414 17.3298 10.2306 17.1051 10.2306H11.5639C11.3393 10.2306 11.1237 10.1414 10.9649 9.98254ZM7.14035 6.19308L7.21106 6.26379L7.14035 6.19308C6.98133 6.3521 6.7659 6.44134 6.54114 6.44134H2.89472C2.66998 6.44134 2.45453 6.3521 2.29552 6.19308C2.13669 6.03425 2.04743 5.81866 2.04743 5.59387V2.8949C2.04743 2.67014 2.13668 2.45467 2.29555 2.29565L2.22481 2.22498L2.29549 2.29572C2.45451 2.13684 2.66996 2.04759 2.89472 2.04759H6.54114C6.76589 2.04759 6.98136 2.13684 7.14038 2.29572C7.29921 2.45474 7.38844 2.67017 7.38844 2.8949V5.59387C7.38844 5.81865 7.29917 6.03426 7.14035 6.19308Z" fill="#192339" stroke="#192339" stroke-width="0.2"/>
</svg>
