<svg width="14" height="13" viewBox="0 0 14 13" fill="none" xmlns="http://www.w3.org/2000/svg">
<path d="M1.16665 0C0.526957 0 0 0.526957 0 1.16665V11.2776C0 12.2037 0.759132 12.9628 1.68517 12.9628H9.2036C9.72952 12.9702 9.72952 12.1776 9.2036 12.185H3.10204C3.27125 11.9225 3.37044 11.6115 3.37044 11.2776V5.0555C3.37044 4.83617 3.54 4.66661 3.75932 4.66661H12.8333C13.0526 4.66661 13.2222 4.83617 13.2222 5.0555V8.16657C13.2148 8.69249 14.0074 8.69249 13.9999 8.16657V5.0555C13.9999 4.4158 13.473 3.88884 12.8333 3.88884H3.75932C3.11963 3.88884 2.59267 4.4158 2.59267 5.0555V11.2776C2.59267 11.787 2.19463 12.185 1.68527 12.185C1.1795 12.185 0.777876 11.7834 0.777876 11.2776V1.16665C0.777876 0.947329 0.947435 0.777769 1.16676 0.777769H4.69146C4.80697 0.777769 4.91611 0.829042 4.99018 0.918046L5.81957 1.91353C6.04098 2.17927 6.36966 2.33332 6.71585 2.33332H11.7961C12.0154 2.33332 12.185 2.50288 12.185 2.7222C12.1776 3.24812 12.9702 3.24812 12.9627 2.7222C12.9627 2.08251 12.4358 1.55555 11.7961 1.55555H6.71585C6.60035 1.55555 6.4912 1.50428 6.41713 1.41527L5.58775 0.419788C5.36634 0.154049 5.03765 0 4.69146 0H1.16665Z" fill="#192339"/>
<path d="M12.1747 9.32206C12.0715 9.32357 11.9732 9.36593 11.9013 9.43989C11.8294 9.51385 11.7898 9.61338 11.7913 9.7165V10.7535H10.7543C10.6503 10.752 10.5499 10.7924 10.4757 10.8654C10.4016 10.9386 10.3599 11.0382 10.3599 11.1424C10.3599 11.2465 10.4016 11.3462 10.4757 11.4194C10.5499 11.4924 10.6503 11.5328 10.7543 11.5313H11.7913V12.5683C11.7898 12.6724 11.8302 12.7727 11.9032 12.8469C11.9764 12.921 12.076 12.9628 12.1802 12.9628C12.2843 12.9628 12.384 12.921 12.4572 12.8469C12.5302 12.7727 12.5706 12.6724 12.5691 12.5683V11.5313H13.6061C13.7102 11.5328 13.8105 11.4924 13.8847 11.4194C13.9588 11.3462 14.0006 11.2465 14.0006 11.1424C14.0006 11.0382 13.9588 10.9386 13.8847 10.8654C13.8105 10.7924 13.7102 10.752 13.6061 10.7535H12.5691V9.7165C12.5706 9.61141 12.5295 9.51026 12.4552 9.43595C12.3809 9.36164 12.2797 9.32056 12.1747 9.32206Z" fill="#192339"/>
</svg>
