<svg width="18" height="18" viewBox="0 0 18 18" fill="none" xmlns="http://www.w3.org/2000/svg">
<path d="M9 7.55897e-05C6.61304 7.55897e-05 4.32372 0.948264 2.63601 2.63609C0.948189 4.32406 0 6.61315 0 9.00008C0 11.387 0.948189 13.6764 2.63601 15.3641C4.32399 17.0519 6.61308 18.0001 9 18.0001C11.3869 18.0001 13.6763 17.0519 15.364 15.3641C17.0518 13.6761 18 11.387 18 9.00008C17.9972 6.61399 17.0481 4.32645 15.3609 2.63911C13.6737 0.951894 11.3861 0.00279835 8.99992 0L9 7.55897e-05ZM9 16.9415C6.89386 16.9415 4.87394 16.1048 3.38476 14.6155C1.89547 13.1262 1.0588 11.1063 1.0588 9.00027C1.0588 6.8942 1.89547 4.8742 3.38476 3.38503C4.87405 1.89573 6.89394 1.05906 9 1.05906C11.1061 1.05906 13.1261 1.89573 14.6152 3.38503C16.1045 4.87432 16.9412 6.8942 16.9412 9.00027C16.939 11.1057 16.1016 13.1244 14.6127 14.6132C13.1241 16.1021 11.1053 16.9395 8.99977 16.9417L9 16.9415Z" fill="#192339"/>
<path d="M8.99995 2.75098C7.99387 2.75216 7.02927 3.15231 6.31784 3.86374C5.60642 4.57516 5.20614 5.53973 5.20508 6.546C5.20508 6.83833 5.44202 7.07542 5.7345 7.07542C6.02683 7.07542 6.26392 6.83833 6.26392 6.546C6.26392 5.56839 6.78535 4.66528 7.63193 4.17647C8.47851 3.68767 9.52139 3.68767 10.368 4.17647C11.2145 4.66528 11.736 5.56843 11.736 6.546C11.736 7.64295 10.9693 8.43912 10.1584 9.28408C9.34725 10.129 8.46418 11.0397 8.46418 12.2954C8.46418 12.5878 8.70126 12.8249 8.9936 12.8249C9.28593 12.8249 9.52302 12.5878 9.52302 12.2954C9.52302 11.4653 10.1584 10.7961 10.9144 10.019C11.7931 9.10623 12.7885 8.07072 12.7885 6.54808C12.7879 5.54271 12.3889 4.57857 11.6788 3.86688C10.9686 3.15504 10.0053 2.75377 8.99995 2.75098Z" fill="#192339"/>
<path d="M9.68158 14.0363C9.68158 14.4129 9.37625 14.7182 8.99972 14.7182C8.6232 14.7182 8.31787 14.4129 8.31787 14.0363C8.31787 13.6598 8.6232 13.3545 8.99972 13.3545C9.37625 13.3545 9.68158 13.6598 9.68158 14.0363Z" fill="#192339"/>
</svg>
