<svg width="20" height="27" viewBox="0 0 20 27" fill="none" xmlns="http://www.w3.org/2000/svg">
<path d="M16.3991 0H3.38867V3.66119H4.29643V0.907759H15.7638V4.11493H19.0921V21.1193H17.307V22.027H19.9999L19.9997 3.44933L16.3991 0ZM16.6714 1.51284L18.4263 3.17702H16.6714V1.51284Z" fill="#192339"/>
<path d="M0 4.38721V26.3839H16.611V7.83649L13.0104 4.38721H0ZM13.2828 5.90005L15.0377 7.56423H13.2828V5.90005ZM0.907705 25.4762V5.29491H12.375V8.50208H15.7034V25.5064L0.907813 25.5066L0.907705 25.4762Z" fill="#192339"/>
<path d="M3.87305 12.2239H12.2542V13.1316H3.87305V12.2239Z" fill="#192339"/>
<path d="M3.87305 15.8242H12.2542V16.732H3.87305V15.8242Z" fill="#192339"/>
<path d="M3.87305 19.3945H12.2542V20.3023H3.87305V19.3945Z" fill="#192339"/>
</svg>
