<svg width="22" height="22" viewBox="0 0 22 22" fill="none" xmlns="http://www.w3.org/2000/svg">
<path d="M8.67673 0.956241L8.67647 0.900011C8.42828 0.901159 8.33141 1.11781 8.29288 1.2202L8.28872 1.23123L8.28725 1.24293L8.04084 3.19937C7.13647 3.53797 6.3033 4.02622 5.5743 4.63439L3.7614 3.8644L3.76141 3.86439L3.7602 3.8639C3.58346 3.79154 3.36543 3.86853 3.2723 4.03491C3.2722 4.03509 3.2721 4.03528 3.27199 4.03546L0.949516 8.08581L0.949491 8.08579L0.948348 8.0879C0.858686 8.25335 0.906742 8.47642 1.05763 8.58951C1.05776 8.58961 1.0579 8.58972 1.05803 8.58982L2.61531 9.77523C2.53584 10.2434 2.47892 10.7282 2.47892 11.2197C2.47892 11.7109 2.53605 12.1881 2.61532 12.6552L1.05821 13.8404C0.901681 13.9546 0.853134 14.1861 0.949569 14.3538M8.67673 0.956241L3.72231 18.4739L3.76176 18.5658C3.76168 18.5659 3.76159 18.5659 3.76151 18.5659C3.5876 18.6404 3.37019 18.5691 3.27341 18.4066L3.27258 18.4051L0.949569 14.3538M8.67673 0.956241V0.90001H8.67693L8.67673 0.956241ZM0.949569 14.3538L0.949516 14.3537L1.03627 14.304L0.949569 14.3538ZM13.2056 3.52152L13.2056 3.52152L12.9804 1.68395H9.01942L8.79421 3.52152L8.79397 3.52345L8.79396 3.52345C8.77325 3.6689 8.66649 3.79659 8.52654 3.84162C7.54335 4.17514 6.64718 4.70602 5.88465 5.38189L5.88288 5.38345L5.88286 5.38343C5.77291 5.47636 5.6126 5.50082 5.48002 5.44479L5.47978 5.44469L3.78295 4.72225L1.80189 8.18244L3.2564 9.28829L3.25659 9.28843C3.37397 9.37813 3.4325 9.53502 3.40287 9.67976C3.30471 10.1732 3.25962 10.6922 3.25962 11.2204C3.25962 11.7483 3.30491 12.2585 3.40294 12.7521L3.30485 12.7716M13.2056 3.52152L3.25669 13.1431C3.3742 13.0534 3.43254 12.8964 3.40281 12.7515L3.30485 12.7716M13.2056 3.52152L13.2058 3.52345C13.2265 3.66881 13.333 3.79658 13.4733 3.84163C14.4565 4.17513 15.3528 4.70582 16.1151 5.38187L16.1151 5.38189L16.1169 5.38343C16.2269 5.47635 16.3872 5.50083 16.5198 5.44479L16.52 5.44469L18.2168 4.72225L20.1979 8.18244L18.7434 9.28829L18.7433 9.28834C18.6257 9.37797 18.5672 9.53514 18.597 9.68008L18.6949 9.65997M13.2056 3.52152L3.25647 13.1432L1.80181 14.2577L3.78286 17.7091L5.47978 16.9866L5.4825 16.9855L5.48252 16.9855C5.61707 16.9329 5.77737 16.9621 5.88487 17.0588C6.64682 17.7343 7.54311 18.2562 8.52681 18.5898C8.67011 18.6366 8.77764 18.7699 8.79428 18.9195C8.79431 18.9198 8.79434 18.92 8.79436 18.9203L9.01942 20.7565H12.9804L13.2054 18.9203C13.2054 18.92 13.2055 18.9198 13.2055 18.9195C13.2221 18.7698 13.33 18.6365 13.473 18.5898C14.4566 18.2562 15.3526 17.7344 16.1148 17.0589C16.2223 16.9621 16.3826 16.9329 16.5173 16.9855L16.52 16.9866L16.52 16.9866L18.2169 17.7091L20.198 14.2577L18.7432 13.1431C18.6258 13.0534 18.5673 12.8965 18.5969 12.7518C18.6951 12.2583 18.7402 11.7482 18.7402 11.2204C18.7402 10.6921 18.6951 10.173 18.5969 9.67949L18.6949 9.65997M3.30485 12.7716C3.32693 12.8792 3.28277 12.9975 3.19588 13.0637L3.30485 9.65997C3.2052 10.1609 3.15962 10.6865 3.15962 11.2204C3.15962 11.754 3.2054 12.2708 3.30485 12.7716ZM18.6949 9.65997C18.7946 10.1608 18.8402 10.6865 18.8402 11.2204C18.8402 11.754 18.7946 12.2708 18.6949 12.7716M18.6949 9.65997V12.7716M18.6949 12.7716C18.6729 12.879 18.717 12.9973 18.8039 13.0637L18.6949 12.7716ZM5.59167 17.68L5.52701 17.7563C5.54272 17.7696 5.55847 17.7828 5.57426 17.796L5.63076 17.772L5.59167 17.68ZM20.9418 13.8404C20.9414 13.8402 20.9411 13.8399 20.9407 13.8397L20.8821 13.9207L20.9427 13.8411L20.9418 13.8404ZM19.2759 12.6982L19.3744 12.7153C19.3778 12.6954 19.3813 12.6754 19.3847 12.6554L19.3364 12.6186L19.2759 12.6982ZM20.9421 8.5899C20.9422 8.58982 20.9424 8.58974 20.9425 8.58965L20.9427 8.58949L20.8821 8.50992L20.9421 8.5899ZM18.6405 4.08436L18.7278 4.03567C18.7277 4.0355 18.7276 4.03533 18.7275 4.03517L18.7272 4.03462L18.6405 4.08436ZM13.6133 1.25542L13.7126 1.24296C13.6887 1.05296 13.5143 0.898594 13.3225 0.90001C13.3223 0.900011 13.3222 0.900012 13.322 0.900013L13.3229 1.00001L13.6133 1.25542ZM13.9665 3.25979L13.959 3.19958C13.9399 3.19245 13.9208 3.18538 13.9017 3.17838L13.8673 3.27229L13.9665 3.25979ZM16.4727 4.6743C16.457 4.66101 16.4413 4.64778 16.4255 4.6346L16.369 4.65858L16.4081 4.75062L16.4727 4.6743ZM19.3364 9.81218L19.3847 9.77543C19.3813 9.7554 19.3778 9.7354 19.3744 9.71543L19.2759 9.73261L19.3364 9.81218ZM21.0504 14.3538L21.0505 14.3537L20.9637 14.304L21.0504 14.3538ZM8.03325 19.1707L8.0408 19.231C8.05986 19.2381 8.07895 19.2452 8.09808 19.2522L8.13247 19.1583L8.03325 19.1707ZM10.9998 6.156C8.2211 6.156 5.9634 8.42715 5.9634 11.2199C5.9634 14.0126 8.22115 16.2838 10.9998 16.2838C13.7784 16.2838 16.0361 14.0126 16.0361 11.2199C16.0361 8.42715 13.7784 6.156 10.9998 6.156ZM10.9998 6.93994C13.353 6.93994 15.2554 8.85222 15.2554 11.2199C15.2554 13.5876 13.353 15.4998 10.9998 15.4998C8.64657 15.4998 6.7441 13.5876 6.7441 11.2199C6.7441 8.85222 8.64657 6.93994 10.9998 6.93994Z" fill="#9196A2" stroke="white" stroke-width="0.2"/>
</svg>
