<svg width="20" height="21" viewBox="0 0 20 21" fill="none" xmlns="http://www.w3.org/2000/svg">
<path d="M8.60454 0C7.8395 0 7.2091 0.630401 7.2091 1.39544V2.57995C6.1873 2.9417 5.2787 3.51239 4.4838 4.21513L3.42271 3.62643C2.75323 3.2551 1.89671 3.50281 1.52586 4.17149L0.174066 6.6134C-0.195308 7.27947 0.0413708 8.13828 0.711818 8.51025L1.7656 9.09165C1.69179 9.54003 1.62771 9.99634 1.62771 10.4652C1.62771 10.9333 1.69179 11.3835 1.76576 11.8314L0.71198 12.4201C0.0415036 12.7919 -0.195333 13.6508 0.174229 14.3169L1.52602 16.7588C1.89686 17.4275 2.75339 17.6752 3.42287 17.3039L4.48396 16.7152C5.27819 17.4166 6.18891 17.9818 7.20927 18.3431V19.5349C7.20927 20.2999 7.83967 20.9303 8.6047 20.9303H11.3954C12.1604 20.9303 12.7908 20.2999 12.7908 19.5349V18.3431C13.8112 17.9818 14.7219 17.4166 15.5161 16.7152L16.5772 17.3039C17.2467 17.6752 18.1032 17.4275 18.4741 16.7588L19.8258 14.3169C20.1952 13.6508 19.9585 12.792 19.2881 12.4201L18.2343 11.8314C18.3083 11.3833 18.3724 10.9333 18.3724 10.4652C18.3724 9.99634 18.3084 9.54003 18.2343 9.09165L19.2881 8.51025C19.9586 8.13844 20.1954 7.27947 19.8258 6.6134L18.4741 4.17149C18.1032 3.5028 17.2467 3.25512 16.5772 3.62643L15.5161 4.21513C14.721 3.51239 13.8125 2.94171 12.7906 2.57995V1.39544C12.7906 0.630401 12.1602 0 11.3952 0H8.60454ZM8.60454 0.930153H11.3952C11.6609 0.930153 11.8603 1.12952 11.8603 1.39523V2.90678L11.8604 2.90694C11.8608 3.11037 11.9933 3.28995 12.1875 3.3503C13.3146 3.69615 14.3298 4.30367 15.1598 5.1018C15.3062 5.24228 15.5268 5.27165 15.7049 5.17448L17.0277 4.44042C17.2596 4.31178 17.5309 4.38932 17.66 4.62211L19.0116 7.06402C19.1421 7.29924 19.0681 7.56822 18.8373 7.69637L17.5145 8.43043V8.43027C17.3354 8.52825 17.241 8.73167 17.282 8.93168C17.3857 9.42612 17.442 9.93808 17.442 10.4652C17.442 10.9922 17.3857 11.4969 17.282 11.9913C17.2374 12.1938 17.3323 12.4013 17.5145 12.5001L18.8373 13.2341C19.0681 13.3621 19.1422 13.6311 19.0116 13.8665L17.6598 16.3084C17.5307 16.541 17.2595 16.6187 17.0275 16.4901L15.7047 15.756L15.7049 15.7558C15.5284 15.6567 15.3079 15.6832 15.1598 15.8214C14.3298 16.6195 13.3146 17.227 12.1875 17.5729V17.5727C11.9907 17.634 11.8575 17.8173 11.8604 18.0234V19.5349C11.8604 19.8006 11.6611 20 11.3954 20H8.6047C8.33898 20 8.13962 19.8006 8.13962 19.5349V18.0234H8.13946C8.14238 17.8174 8.0092 17.6341 7.81242 17.5727C6.6853 17.2269 5.67014 16.6193 4.84007 15.8212V15.8214C4.69196 15.6832 4.47151 15.6567 4.29501 15.7558L2.97225 16.4899C2.74027 16.6185 2.46905 16.541 2.33989 16.3082L0.988102 13.8663C0.857678 13.6311 0.931649 13.3621 1.16249 13.2339L2.48525 12.4999L2.48541 12.5001C2.66759 12.4013 2.76249 12.1938 2.71788 11.9913C2.61438 11.4969 2.55809 10.9922 2.55809 10.4652C2.55809 9.93812 2.61438 9.42612 2.71804 8.93168H2.71788C2.75892 8.73166 2.6645 8.52824 2.48541 8.43027L1.16265 7.69621C0.931811 7.56822 0.857674 7.29926 0.988264 7.06386L2.34006 4.62195C2.46918 4.38916 2.74041 4.31162 2.97241 4.44026L4.29517 5.17431L4.29501 5.17448C4.47313 5.27165 4.69375 5.24228 4.84007 5.1018C5.67014 4.30367 6.68534 3.69615 7.81242 3.3503C8.0066 3.28979 8.13914 3.11038 8.13946 2.90694V1.39539C8.13946 1.12968 8.33883 0.930315 8.60454 0.930315L8.60454 0.930153ZM9.99998 5.58133C7.30827 5.58133 5.11624 7.77341 5.11624 10.4651C5.11624 13.1567 7.30832 15.3488 9.99998 15.3488C12.6916 15.3488 14.8837 13.1567 14.8837 10.4651C14.8837 7.77341 12.6916 5.58133 9.99998 5.58133ZM9.99998 6.51149C12.189 6.51149 13.9534 8.27595 13.9534 10.465C13.9534 12.654 12.189 14.4184 9.99998 14.4184C7.81098 14.4184 6.04652 12.654 6.04652 10.465C6.04652 8.27595 7.81098 6.51149 9.99998 6.51149Z" fill="#9196A2"/>
</svg>
