<svg width="20" height="24" viewBox="0 0 20 24" fill="none" xmlns="http://www.w3.org/2000/svg">
<path d="M1.70934 19.2388V23.1357V23.1354C1.70934 23.613 1.32722 23.9999 0.856065 23.9999C0.384669 23.9999 0.00279344 23.613 0.00279344 23.1354V19.2388C0.00279344 18.7612 0.384669 18.3743 0.856065 18.3743C1.32722 18.3743 1.70934 18.7612 1.70934 19.2388ZM6.95348 15.9851C6.48232 15.9851 6.10021 16.372 6.10021 16.8495V23.1358V23.1356C6.10021 23.6131 6.48232 24 6.95348 24C7.42464 24 7.80675 23.6131 7.80675 23.1356V16.8499C7.80675 16.6205 7.71676 16.4006 7.55677 16.2385C7.39678 16.0764 7.17965 15.9855 6.95348 15.9855V15.9851ZM13.0495 13.5956C12.5783 13.5956 12.1962 13.9827 12.1962 14.4601V23.1353C12.1962 23.6128 12.5783 23.9997 13.0495 23.9997C13.5207 23.9997 13.9028 23.6128 13.9028 23.1353V14.4601C13.9028 14.2309 13.8128 14.011 13.6528 13.8489C13.4928 13.6868 13.2759 13.5956 13.0495 13.5956ZM19.1467 11.2064C18.6756 11.2064 18.2935 11.5935 18.2935 12.0708V23.1356C18.2935 23.6131 18.6756 24 19.1467 24C19.6181 24 20 23.6131 20 23.1356V12.0708C20 11.8417 19.9102 11.6217 19.7503 11.4597C19.59 11.2976 19.3731 11.2064 19.1467 11.2064ZM0.855638 13.627L0.855876 13.6268C1.07014 13.627 1.27656 13.5457 1.43441 13.3986L7.19899 8.02028L12.8562 9.34805C13.1735 9.42137 13.5047 9.30536 13.7094 9.04897L19.8067 1.39504C20.0924 1.02288 20.031 0.487696 19.6691 0.191752C19.3072 -0.104193 18.7777 -0.0518516 18.4792 0.309209L12.7213 7.54636L7.14591 6.23742C6.8707 6.17471 6.58262 6.25213 6.37455 6.44509L0.273665 12.1329C0.0160621 12.3743 -0.0691674 12.7511 0.0586832 13.0822C0.186296 13.4134 0.501269 13.6314 0.852226 13.6319L0.855638 13.627Z" fill="#192339"/>
</svg>
