<svg width="18" height="12" viewBox="0 0 18 12" fill="none" xmlns="http://www.w3.org/2000/svg">
<path fill-rule="evenodd" clip-rule="evenodd" d="M8.9993 0C7.47808 0 6.23934 1.25598 6.23934 2.7968C6.23934 4.33744 7.47808 5.592 8.9993 5.592C10.5205 5.592 11.7608 4.33744 11.7608 2.7968C11.7608 1.25616 10.5207 0 8.9993 0ZM8.9993 0.613551C10.1928 0.613551 11.1529 1.58792 11.1529 2.79662C11.1529 4.00531 10.1928 4.97772 8.9993 4.97772C7.80585 4.97772 6.84515 4.00531 6.84515 2.79662C6.84515 1.58792 7.80585 0.613551 8.9993 0.613551ZM3.77069 1.73142C2.44772 1.73142 1.36686 2.82412 1.36686 4.16379C1.36686 5.50364 2.44772 6.59616 3.77069 6.59616C4.65347 6.59616 5.42773 6.11148 5.84431 5.38943V5.38961C5.88519 5.31929 5.89665 5.23524 5.87638 5.15618C5.85594 5.07713 5.80537 5.00949 5.73577 4.96844C5.66599 4.92722 5.583 4.9158 5.50511 4.93668C5.42723 4.95774 5.36062 5.00913 5.32027 5.0798C5.00891 5.6193 4.43464 5.98067 3.77054 5.98067C2.77547 5.98067 1.97465 5.17154 1.97465 4.16377C1.97465 3.156 2.77552 2.34546 3.77054 2.34546C4.08683 2.34546 4.38005 2.42737 4.63749 2.57174V2.57192C4.70798 2.61136 4.79114 2.62081 4.8685 2.59815C4.94586 2.57549 5.01106 2.52249 5.04999 2.45092C5.13088 2.3028 5.07819 2.11614 4.93194 2.03369C4.58745 1.84042 4.19097 1.73138 3.77055 1.73138L3.77069 1.73142ZM14.2297 1.73142C13.8093 1.73142 13.4109 1.84046 13.0664 2.03373H13.0662C12.9201 2.11635 12.8676 2.30302 12.9489 2.45096C13.0296 2.59962 13.2141 2.65387 13.3608 2.57195C13.6181 2.42758 13.9134 2.34567 14.2297 2.34567C15.2248 2.34567 16.0256 3.15622 16.0256 4.16398C16.0256 5.17175 15.2248 5.98088 14.2297 5.98088C13.5656 5.98088 12.99 5.6195 12.6786 5.08002L12.6784 5.07984C12.638 5.00899 12.5714 4.95742 12.4934 4.93654C12.4153 4.91566 12.3321 4.92708 12.2625 4.96848C12.1929 5.00971 12.1424 5.07734 12.1221 5.1564C12.1018 5.23546 12.1135 5.31933 12.1545 5.38965C12.5711 6.1117 13.3469 6.59637 14.2297 6.59637C15.5527 6.59637 16.6314 5.50367 16.6314 4.164C16.6314 2.82415 15.5525 1.73164 14.2297 1.73164V1.73142ZM8.9993 7.19536C8.24584 7.19536 7.49238 7.39345 6.8175 7.78803C5.46792 8.57715 4.63534 10.0362 4.63534 11.6145V11.6147C4.63516 11.6964 4.66723 11.775 4.72433 11.8326C4.78142 11.8904 4.85895 11.9227 4.93965 11.9224H13.0589C13.1396 11.9225 13.2169 11.8902 13.274 11.8324C13.3309 11.7748 13.363 11.6963 13.3628 11.6147C13.3628 10.0364 12.5308 8.57737 11.181 7.78821C10.5062 7.39364 9.75269 7.19554 8.99923 7.19554L8.9993 7.19536ZM8.9993 7.80891C9.64775 7.80891 10.2957 7.97862 10.8772 8.31858C11.9458 8.94337 12.5697 10.0753 12.6745 11.3067L8.9993 11.3068H5.32556C5.4304 10.0755 6.05294 8.94355 7.12145 8.31876C7.70277 7.97879 8.35086 7.80909 8.9993 7.80909V7.80891ZM3.78918 7.87441C3.13194 7.87155 2.47415 8.04216 1.88525 8.38658C0.719087 9.06848 0 10.3298 0 11.6934V11.6936C0.000352439 11.8624 0.135152 11.9991 0.301845 12H3.29669C3.46339 11.9991 3.59819 11.8624 3.59872 11.6938C3.59907 11.5244 3.46391 11.3866 3.29669 11.3859H0.687754C0.790482 10.3694 1.30201 9.43503 2.1871 8.91751C2.84646 8.53187 3.60894 8.40822 4.33525 8.54168C4.5 8.57184 4.65771 8.4612 4.68766 8.29434C4.70246 8.21403 4.68502 8.13087 4.63921 8.06359C4.59339 7.99613 4.52291 7.95009 4.44344 7.93563C4.22706 7.89584 4.00838 7.87567 3.78918 7.87478L3.78918 7.87441ZM14.2094 7.87441C13.9902 7.8753 13.7712 7.89564 13.5546 7.93526V7.93544C13.4751 7.95007 13.4047 7.99611 13.3589 8.06339C13.313 8.13067 13.2956 8.21384 13.3104 8.29414C13.3404 8.461 13.4981 8.57164 13.6626 8.54148C14.389 8.40782 15.1514 8.53167 15.8108 8.91732C16.6959 9.43484 17.2074 10.3692 17.3101 11.3857H14.7031C14.6226 11.3856 14.5451 11.418 14.4882 11.4757C14.4311 11.5335 14.3992 11.6118 14.3993 11.6936C14.3997 11.8631 14.5357 12.0002 14.7031 11.9998H17.696C17.8634 12.0002 17.9995 11.8631 18 11.6936C18 10.33 17.2809 9.06846 16.1147 8.38674C15.5258 8.04232 14.867 7.87155 14.2092 7.87457L14.2094 7.87441Z" fill="#9196A2"/>
</svg>
