<svg width="18" height="17" viewBox="0 0 18 17" fill="none" xmlns="http://www.w3.org/2000/svg">
<path d="M10.6647 1.01448C10.3214 0.3867 9.6868 0 9.00016 0C8.31353 0 7.67899 0.386738 7.33566 1.01448L0.257502 13.9567C0.0315597 14.3698 -0.0492433 14.8537 0.0291874 15.3236C0.107618 15.7932 0.340398 16.2187 0.686486 16.5255C1.03259 16.832 1.47011 17 1.92184 17H16.0782C16.5299 17 16.9674 16.832 17.3135 16.5255C17.6596 16.2187 17.8924 15.7932 17.9708 15.3236C18.0492 14.8537 17.9684 14.3698 17.7425 13.9567L10.6647 1.01448Z" fill="#BE4B49"/>
<path d="M8.99999 11C9.26511 11 9.51953 10.9415 9.70721 10.8375C9.89465 10.7336 10 10.5925 10 10.4454V5.55452C10 5.35644 9.80954 5.17332 9.5 5.07428C9.1907 4.97524 8.80928 4.97524 8.5 5.07428C8.19046 5.17332 8 5.35644 8 5.55452V10.4454C8 10.5925 8.10535 10.7336 8.29279 10.8375C8.48046 10.9415 8.73487 11 8.99999 11Z" fill="#FFEEEE"/>
<path d="M9 13C8.73478 13 8.48032 13.1055 8.29291 13.2929C8.10525 13.4805 8 13.7347 8 13.9999C8 14.2651 8.10525 14.5195 8.29291 14.7071C8.48034 14.8945 8.7348 15 9 15C9.26522 14.9998 9.51968 14.8945 9.70709 14.7069C9.89475 14.5195 10 14.2651 10 13.9999C10 13.7347 9.89475 13.4805 9.70709 13.2929C9.51966 13.1052 9.2652 13 9 13Z" fill="#FFEEEE"/>
</svg>
