<svg width="26" height="17" viewBox="0 0 26 17" fill="none" xmlns="http://www.w3.org/2000/svg">
<path opacity="0.3" d="M12.9997 0C18.2112 0 23.0254 2.98935 25.7504 7.90143L26 8.35153L25.7504 8.80163C23.0262 13.7136 18.2117 16.7031 12.9997 16.7031C7.7887 16.7031 2.97408 13.7135 0.249594 8.80163L0 8.35153L0.249594 7.90143C2.97424 2.98924 7.78832 0 12.9997 0ZM12.9997 1.85592C8.74253 1.85592 4.76689 4.17125 2.30913 8.06369L2.13203 8.3514L2.30913 8.63911C4.76657 12.5318 8.74279 14.8469 12.9997 14.8469C17.3609 14.8469 21.4272 12.4172 23.8674 8.35118C21.4266 4.28492 17.3611 1.85547 12.9997 1.85547V1.85592ZM12.9997 3.71183C15.5622 3.71183 17.6395 5.78918 17.6395 8.35162C17.6395 10.9141 15.5622 12.9914 12.9997 12.9914C10.4373 12.9914 8.35995 10.9141 8.35995 8.35162C8.35995 5.78918 10.4373 3.71183 12.9997 3.71183ZM12.9997 5.56775C11.4622 5.56775 10.2159 6.81407 10.2159 8.35162C10.2159 9.88917 11.4622 11.1355 12.9997 11.1355C14.5373 11.1355 15.7836 9.88917 15.7836 8.35162C15.7836 6.81407 14.5373 5.56775 12.9997 5.56775Z" fill="#03014C"/>
</svg>
