<svg width="26" height="20" viewBox="0 0 26 20" fill="none" xmlns="http://www.w3.org/2000/svg">
<g opacity="0.3">
<path fill-rule="evenodd" clip-rule="evenodd" d="M24.144 9.53475C23.6943 8.76074 22.533 6.95467 20.6644 5.33663C20.303 5.02286 20.264 4.47517 20.577 4.11384C20.8898 3.75248 21.4376 3.71262 21.7997 4.02641C24.541 6.40027 25.9069 9.14566 25.9069 9.14566C26.0292 9.38922 26.0292 9.6769 25.9069 9.92046C25.9069 9.92046 21.5928 18.488 12.9991 18.488C11.278 18.488 9.72669 18.1474 8.34602 17.5997C7.90147 17.4238 7.68384 16.9193 7.85988 16.4748C8.03669 16.0302 8.54023 15.8126 8.98575 15.9886C10.1766 16.461 11.5138 16.7547 12.9993 16.7547C19.5433 16.7547 23.2512 11.0887 24.1446 9.53465L24.144 9.53475ZM16.3069 8.49302C16.41 8.8215 16.4655 9.1707 16.4655 9.53301C16.4655 11.4467 14.9125 12.9997 12.9989 12.9997C12.6366 12.9997 12.2874 12.9441 11.9589 12.841C11.5031 12.6971 11.016 12.9511 10.8721 13.4078C10.7282 13.8636 10.9822 14.3507 11.4389 14.4946C11.9312 14.6488 12.4555 14.733 12.9989 14.733C15.8683 14.733 18.1989 12.4024 18.1989 9.53298C18.1989 8.98956 18.1147 8.4653 17.9605 7.97299C17.8166 7.51625 17.3297 7.26223 16.8737 7.40619C16.417 7.55012 16.163 8.03705 16.3069 8.49302Z" fill="#03014C"/>
<path fill-rule="evenodd" clip-rule="evenodd" d="M19.141 2.16612L21.0537 0.253469C21.3916 -0.0844897 21.9412 -0.0844897 22.2792 0.253469C22.6172 0.591428 22.6172 1.14103 22.2792 1.47898L19.9053 3.85284C19.8993 3.85981 19.8924 3.86677 19.8854 3.87277L7.33811 16.4201C7.33211 16.427 7.32515 16.434 7.31818 16.44L4.9461 18.8121C4.60814 19.15 4.05854 19.15 3.72059 18.8121C3.38264 18.4741 3.38263 17.9245 3.72059 17.5866L5.35507 15.9521C1.84429 13.4328 0.0916979 9.92011 0.0916979 9.92011C-0.030566 9.67655 -0.030566 9.38887 0.0916979 9.14531C0.0916979 9.14531 4.40585 0.577734 12.9995 0.577734C15.3707 0.577734 17.4187 1.22426 19.1405 2.16635L19.141 2.16612ZM17.8557 3.45141C16.4639 2.7658 14.8458 2.31083 12.9999 2.31083C6.45487 2.31083 2.74753 7.97781 1.85462 9.53087C2.39705 10.4678 3.97968 12.9143 6.59883 14.7086L8.76203 12.5454C8.15615 11.6952 7.79998 10.6552 7.79998 9.53295C7.79998 6.66351 10.1305 4.33297 13 4.33297C14.1224 4.33297 15.1624 4.68912 16.0124 5.29502L17.8558 3.4516L17.8557 3.45141ZM14.7599 6.54623C14.2442 6.24116 13.642 6.06609 12.9997 6.06609C11.0861 6.06609 9.53306 7.6191 9.53306 9.53274C9.53306 10.175 9.70813 10.7772 10.0132 11.293L14.7599 6.54623Z" fill="#03014C"/>
</g>
</svg>
