 <svg  width="26" height="25" viewBox="0 0 26 25" fill="none" xmlns="http://www.w3.org/2000/svg">
                      <path opacity="0.3" d="M12.9304 15.9667C13.7797 15.9667 14.5942 15.5925 15.1947 14.9264C15.7952 14.2602 16.1326 13.3568 16.1326 12.4147C16.1326 12.3107 16.1283 12.2077 16.1203 12.1059L12.652 15.9531C12.7437 15.9619 12.8364 15.9667 12.9304 15.9667ZM23.5295 1.4278L22.3081 0.0742512C22.2652 0.0267071 22.2071 0 22.1464 0C22.0858 0 22.0277 0.0267071 21.9848 0.0742512L18.8593 3.54216C17.1351 2.56474 15.1969 2.07603 13.0448 2.07603C7.54971 2.07603 3.44983 5.25059 0.745175 11.5997C0.63646 11.8551 0.580078 12.1339 0.580078 12.4163C0.580078 12.6987 0.63646 12.9776 0.745175 13.233C1.8259 15.758 3.12724 17.7819 4.64921 19.3046L1.62462 22.6583C1.58176 22.7059 1.55768 22.7704 1.55768 22.8377C1.55768 22.9049 1.58176 22.9694 1.62462 23.017L2.84515 24.3709C2.88804 24.4184 2.94619 24.4451 3.00683 24.4451C3.06746 24.4451 3.12561 24.4184 3.1685 24.3709L23.5295 1.7868C23.5508 1.76324 23.5676 1.73526 23.5792 1.70446C23.5907 1.67366 23.5966 1.64064 23.5966 1.6073C23.5966 1.57396 23.5907 1.54094 23.5792 1.51014C23.5676 1.47934 23.5508 1.45136 23.5295 1.4278ZM7.89851 12.4147C7.89844 11.4507 8.12348 10.503 8.55172 9.66406C8.97995 8.82513 9.59679 8.12354 10.3421 7.62763C11.0875 7.13173 11.9359 6.85842 12.8048 6.83434C13.6736 6.81026 14.5333 7.03622 15.3 7.49022L13.91 9.03215C13.3493 8.83303 12.7501 8.80905 12.1781 8.96284C11.606 9.11662 11.0831 9.44223 10.6669 9.90393C10.2507 10.3656 9.95713 10.9456 9.8185 11.5802C9.67986 12.2147 9.70148 12.8794 9.88098 13.5013L8.49091 15.0432C8.10082 14.2347 7.8973 13.3317 7.89851 12.4147V12.4147Z" fill="#03014C"/>
                      <path opacity="0.3" d="M25.8085 11.7537C24.7808 9.44719 23.5576 7.56643 22.1388 6.11139L17.9305 10.5963C18.2853 11.5845 18.3639 12.661 18.1569 13.6958C17.9499 14.7305 17.4662 15.6793 16.7641 16.4275C16.0621 17.1756 15.1718 17.6911 14.2007 17.9117C13.2297 18.1322 12.2195 18.0484 11.2922 17.6704L7.72266 21.4742C9.37866 22.2908 11.2206 22.6992 13.2483 22.6992C18.8598 22.6992 23.0466 19.5848 25.8085 13.356C25.9195 13.1055 25.9771 12.8319 25.9771 12.5548C25.9771 12.2778 25.9195 12.0042 25.8085 11.7537Z" fill="#03014C"/>
                      </svg>