<svg width="19" height="18" viewBox="0 0 19 18" fill="none" xmlns="http://www.w3.org/2000/svg">
<path d="M12.1234 9.00446C12.1234 10.6794 10.77 12.0329 9.09503 12.0329C7.42011 12.0329 6.06665 10.6794 6.06665 9.00446C6.06665 7.32953 7.42011 5.97607 9.09503 5.97607C10.77 5.97607 12.1234 7.32953 12.1234 9.00446Z" stroke="#FE5D34" stroke-width="1.26" stroke-linecap="round" stroke-linejoin="round"/>
<path d="M9.09469 16C12.0808 16 14.8639 14.2405 16.801 11.1952C17.5624 10.0024 17.5624 7.99758 16.801 6.80484C14.8639 3.75952 12.0808 2 9.09469 2C6.10862 2 3.32554 3.75952 1.38838 6.80484C0.62705 7.99758 0.62705 10.0024 1.38838 11.1952C3.32554 14.2405 6.10862 16 9.09469 16Z" stroke="#6D737E" stroke-width="1.26" stroke-linecap="round" stroke-linejoin="round"/>
</svg>
