<svg width="14" height="14" viewBox="0 0 14 14" fill="none" xmlns="http://www.w3.org/2000/svg">
<path d="M6.1798 0.651879C4.86062 0.789817 3.73203 1.25128 2.73136 2.05383C2.42037 2.30463 1.88868 2.85387 1.65293 3.16736C0.973276 4.07023 0.554447 5.09348 0.388921 6.25717C0.34127 6.60076 0.348794 7.54376 0.403969 7.91243C0.471684 8.3764 0.564478 8.74256 0.634701 8.82533C0.714956 8.92063 0.822799 8.96326 0.95572 8.94822C1.1062 8.93066 1.20902 8.85041 1.26169 8.71247C1.30182 8.60463 1.30182 8.59209 1.25166 8.35634C1.0109 7.26788 1.05604 6.26219 1.38709 5.26151C1.66798 4.41633 2.12192 3.68902 2.76396 3.04698C3.26054 2.55291 3.70194 2.23691 4.3189 1.94097C6.398 0.942802 8.84828 1.30144 10.5712 2.85387C10.6841 2.9567 10.7744 3.04698 10.7669 3.052C10.7593 3.05952 10.5662 3.07457 10.333 3.08711C9.83641 3.1147 9.76619 3.13727 9.67841 3.31784C9.63076 3.41064 9.62324 3.45578 9.63578 3.53854C9.65835 3.66896 9.77622 3.80439 9.8941 3.83448C10.0245 3.86959 11.7951 3.78181 11.8804 3.73667C11.9155 3.71912 11.9682 3.6815 11.9983 3.65391C12.1111 3.55359 12.1136 3.4934 12.0685 2.52533C12.0334 1.76792 12.0183 1.59989 11.9807 1.51211C11.8654 1.24627 11.4867 1.23122 11.3261 1.48452C11.2785 1.56227 11.276 1.58986 11.2935 2.03126L11.3086 2.49523L11.2083 2.40745C10.6365 1.91088 10.2853 1.65757 9.83641 1.40928C9.18183 1.05064 8.45954 0.80988 7.66703 0.689498C7.35102 0.641847 6.48828 0.621783 6.1798 0.651879Z" fill="#192339"/>
<path d="M6.39042 3.70155C6.05936 3.78933 5.71828 4.05016 5.54022 4.34359C5.24679 4.83515 5.27186 5.47468 5.60542 5.91608C5.68066 6.0164 5.70323 5.98881 5.37469 6.19697C5.02859 6.41767 4.67999 6.82396 4.50443 7.21019C4.36649 7.51365 4.30379 7.78451 4.28874 8.12559C4.27871 8.37388 4.28373 8.4742 4.31884 8.60211C4.44925 9.1037 4.85554 9.5125 5.34961 9.6404C5.58034 9.70059 7.94786 9.70059 8.17859 9.6404C8.68018 9.50999 9.09149 9.09116 9.21187 8.58706C9.24197 8.45665 9.24949 8.34128 9.23946 8.11305C9.20435 7.31803 8.778 6.59072 8.09332 6.15684C7.97043 6.07659 7.86761 6.00637 7.86761 6.00135C7.86761 5.99634 7.89519 5.9537 7.9278 5.91106C8.25383 5.47468 8.27891 4.83013 7.98799 4.34359C7.80741 4.04514 7.46633 3.78682 7.12525 3.69904C6.94217 3.65139 6.57099 3.65139 6.39042 3.70155ZM7.05252 4.474C7.28074 4.57934 7.41617 4.78248 7.43624 5.04331C7.44627 5.18376 7.43874 5.23141 7.38608 5.34427C7.26319 5.61262 7.0475 5.75306 6.7641 5.75306C6.4807 5.75306 6.26502 5.61262 6.14213 5.34427C6.03178 5.10099 6.09448 4.7875 6.29261 4.59689C6.48823 4.4088 6.80423 4.35864 7.05252 4.474ZM7.30331 6.60577C7.98297 6.8365 8.44444 7.4334 8.48707 8.13061C8.49961 8.33125 8.4946 8.39645 8.45698 8.49176C8.39679 8.64976 8.25885 8.79773 8.10586 8.86795L7.98046 8.92814H6.7641H5.54774L5.42234 8.86795C5.16151 8.74506 5.03612 8.53188 5.03361 8.21588C5.0311 7.43841 5.60793 6.73869 6.40045 6.55561C6.64121 6.50044 7.05753 6.52301 7.30331 6.60577Z" fill="#192339"/>
<path d="M12.4317 5.18627C12.3765 5.21637 12.3188 5.27656 12.2812 5.34929L12.2185 5.46466L12.2637 5.67282C12.4242 6.41518 12.4643 6.97445 12.4041 7.5889C12.2737 8.93317 11.6392 10.2323 10.6561 11.1627C9.80586 11.9653 8.75252 12.4744 7.56625 12.655C7.21012 12.7102 6.385 12.7177 6.0364 12.67C4.87521 12.5095 3.82437 12.0205 2.95662 11.2405C2.84376 11.1377 2.75348 11.0474 2.761 11.0424C2.76852 11.0348 2.96164 11.0198 3.19237 11.0073C3.48329 10.9922 3.63377 10.9721 3.69396 10.9446C3.77672 10.9044 3.85698 10.8016 3.89209 10.6887C3.93974 10.5307 3.8018 10.3025 3.63377 10.2599C3.57107 10.2423 3.24504 10.2498 2.62557 10.2799C1.64245 10.3276 1.60984 10.3326 1.49949 10.4731C1.47191 10.5082 1.44181 10.5759 1.43178 10.621C1.41673 10.7063 1.48695 12.329 1.51203 12.4895C1.56721 12.8255 2.01613 12.9033 2.20172 12.6098C2.24937 12.5321 2.25188 12.5045 2.23433 12.0631C2.21928 11.6117 2.21928 11.5991 2.26442 11.6393C2.29201 11.6593 2.40236 11.7571 2.51271 11.8549C4.25324 13.3873 6.67342 13.8688 8.86287 13.1139C10.2297 12.6424 11.4235 11.6894 12.206 10.4455C12.8756 9.3846 13.2217 8.09551 13.1741 6.84655C13.1515 6.20702 13.0211 5.44961 12.9082 5.29161C12.8004 5.14113 12.5997 5.0985 12.4317 5.18627Z" fill="#192339"/>
</svg>
