<svg width="15" height="15" viewBox="0 0 15 15" fill="none" xmlns="http://www.w3.org/2000/svg">
<path d="M0.342193 0.342196C0.798451 -0.114065 1.53795 -0.114065 1.99397 0.342196L7.5 5.84826L13.006 0.342196C13.4623 -0.114065 14.2018 -0.114065 14.6578 0.342196C15.1141 0.798456 15.1141 1.53796 14.6578 1.99398L9.15177 7.50005L14.6578 13.0061C15.1141 13.4624 15.1141 14.2019 14.6578 14.6579C14.2015 15.1142 13.462 15.1139 13.006 14.6579L7.5 9.15184L1.99397 14.6579C1.53771 15.1139 0.798208 15.1139 0.342193 14.6579C-0.114064 14.2016 -0.114064 13.4621 0.342193 13.0061L5.84822 7.50005L0.342193 1.99398C-0.114064 1.53772 -0.114064 0.798213 0.342193 0.342196Z" fill="#727272"/>
</svg>
