<svg width="16" height="18" viewBox="0 0 16 18" fill="none" xmlns="http://www.w3.org/2000/svg">
<path d="M13.8333 2.33332H13V0.666656H11.3333V2.33332H4.66667V0.666656H3V2.33332H2.16667C1.24167 2.33332 0.508333 3.08332 0.508333 3.99999L0.5 15.6667C0.5 16.5833 1.24167 17.3333 2.16667 17.3333H13.8333C14.75 17.3333 15.5 16.5833 15.5 15.6667V3.99999C15.5 3.08332 14.75 2.33332 13.8333 2.33332ZM13.8333 15.6667H2.16667V7.33332H13.8333V15.6667ZM13.8333 5.66666H2.16667V3.99999H13.8333V5.66666ZM5.5 10.6667H3.83333V8.99999H5.5V10.6667ZM8.83333 10.6667H7.16667V8.99999H8.83333V10.6667ZM12.1667 10.6667H10.5V8.99999H12.1667V10.6667ZM5.5 14H3.83333V12.3333H5.5V14ZM8.83333 14H7.16667V12.3333H8.83333V14ZM12.1667 14H10.5V12.3333H12.1667V14Z" fill="#9196A2"/>
</svg>
