<svg width="15" height="15" viewBox="0 0 15 15" fill="none" xmlns="http://www.w3.org/2000/svg">
<path d="M6.16099 3.21439H8.83956C8.83956 2.85919 8.69846 2.51854 8.4473 2.26737C8.19613 2.01621 7.85548 1.8751 7.50028 1.8751C7.14508 1.8751 6.80443 2.01621 6.55326 2.26737C6.3021 2.51854 6.16099 2.85919 6.16099 3.21439ZM5.35742 3.21439C5.35742 2.64607 5.58319 2.10103 5.98505 1.69916C6.38691 1.2973 6.93196 1.07153 7.50028 1.07153C8.0686 1.07153 8.61364 1.2973 9.01551 1.69916C9.41737 2.10103 9.64314 2.64607 9.64314 3.21439H12.9914C13.0979 3.21439 13.2001 3.25672 13.2755 3.33207C13.3508 3.40742 13.3931 3.50962 13.3931 3.61618C13.3931 3.72274 13.3508 3.82493 13.2755 3.90028C13.2001 3.97563 13.0979 4.01796 12.9914 4.01796H12.2896L11.6376 11.841C11.5902 12.4101 11.3306 12.9406 10.9104 13.3273C10.4901 13.714 9.93993 13.9286 9.36885 13.9287H5.63171C5.06063 13.9286 4.51042 13.714 4.09019 13.3273C3.66996 12.9406 3.41039 12.4101 3.36296 11.841L2.71099 4.01796H2.00921C1.90265 4.01796 1.80045 3.97563 1.7251 3.90028C1.64975 3.82493 1.60742 3.72274 1.60742 3.61618C1.60742 3.50962 1.64975 3.40742 1.7251 3.33207C1.80045 3.25672 1.90265 3.21439 2.00921 3.21439H5.35742ZM4.16385 11.774C4.19449 12.1423 4.3624 12.4856 4.63429 12.7358C4.90617 12.9861 5.26218 13.125 5.63171 13.1251H9.36885C9.73838 13.125 10.0944 12.9861 10.3663 12.7358C10.6382 12.4856 10.8061 12.1423 10.8367 11.774L11.4839 4.01796H3.51724L4.16385 11.774ZM6.29492 5.89296C6.40148 5.89296 6.50368 5.93529 6.57903 6.01064C6.65438 6.08599 6.69671 6.18819 6.69671 6.29475V10.8483C6.69671 10.9549 6.65438 11.0571 6.57903 11.1324C6.50368 11.2078 6.40148 11.2501 6.29492 11.2501C6.18836 11.2501 6.08617 11.2078 6.01082 11.1324C5.93547 11.0571 5.89314 10.9549 5.89314 10.8483V6.29475C5.89314 6.18819 5.93547 6.08599 6.01082 6.01064C6.08617 5.93529 6.18836 5.89296 6.29492 5.89296ZM9.10742 6.29475C9.10742 6.18819 9.06509 6.08599 8.98974 6.01064C8.91439 5.93529 8.8122 5.89296 8.70564 5.89296C8.59908 5.89296 8.49688 5.93529 8.42153 6.01064C8.34618 6.08599 8.30385 6.18819 8.30385 6.29475V10.8483C8.30385 10.9549 8.34618 11.0571 8.42153 11.1324C8.49688 11.2078 8.59908 11.2501 8.70564 11.2501C8.8122 11.2501 8.91439 11.2078 8.98974 11.1324C9.06509 11.0571 9.10742 10.9549 9.10742 10.8483V6.29475Z" fill="#192339"/>
</svg>
