<svg width="141" height="109" viewBox="0 0 141 109" fill="none" xmlns="http://www.w3.org/2000/svg">
<path d="M72.5997 90.1979C77.1449 90.1979 77.1449 97.0766 72.5997 97.0766H3.45603C1.5472 97.0766 0 95.5367 0 93.6386V3.43999C0 1.54002 1.54709 0 3.45603 0H49.9212C51.0074 0 51.9743 0.498675 52.6087 1.27662L68.0979 18.4074H119.965C121.874 18.4074 123.421 19.9473 123.421 21.8474V39.1577C123.421 43.6818 116.509 43.6818 116.509 39.1577V25.2874L66.566 25.2824C65.6231 25.2824 64.6832 24.8994 64.0008 24.1454L48.3895 6.87906H6.9136V90.1967H72.602L72.5997 90.1979ZM71.9264 13.3706C67.3812 13.3706 67.3812 6.49087 71.9264 6.49087H112.353C116.898 6.49087 116.898 13.3706 112.353 13.3706H71.9264ZM118.235 60.4704C121.448 57.2719 126.336 62.136 123.122 65.3356L112.572 75.8369L123.122 86.3391C126.337 89.5376 121.449 94.4018 118.235 91.2033L107.684 80.7021L97.1336 91.2033C93.9182 94.4018 89.0323 89.5378 92.2457 86.3391L102.797 75.8369L92.2457 65.3356C89.0323 62.1351 93.9191 57.2719 97.1336 60.4704L107.684 70.9727L118.235 60.4704ZM107.684 109C89.284 109 74.3676 94.1523 74.3676 75.8384C74.3676 57.5239 89.2845 42.6768 107.684 42.6768C126.083 42.6768 141 57.5244 141 75.8384C141 94.1529 126.083 109 107.684 109ZM107.684 102.121C122.268 102.121 134.092 90.3534 134.092 75.8356C134.092 61.3191 122.269 49.5524 107.684 49.5524C93.1014 49.5524 81.2781 61.3183 81.2781 75.8356C81.2781 90.3521 93.1009 102.121 107.684 102.121Z" fill="#ADADAD"/>
</svg>
