<svg width="14" height="14" viewBox="0 0 14 14" fill="none" xmlns="http://www.w3.org/2000/svg">
<path d="M6.63642 10.8267C4.51642 10.7267 2.82975 8.98 2.82975 6.83333C2.82975 4.62667 4.62309 2.83333 6.82975 2.83333C8.97642 2.83333 10.7231 4.52 10.8231 6.64L9.42309 6.22C9.14975 5.04 8.08975 4.16667 6.82975 4.16667C5.35642 4.16667 4.16309 5.36 4.16309 6.83333C4.16309 8.09333 5.03642 9.15333 6.21642 9.42667L6.63642 10.8267ZM13.4964 6.83333C13.4964 7.03333 13.4898 7.23333 13.4698 7.43333L12.1564 7.04C12.1631 6.97333 12.1631 6.9 12.1631 6.83333C12.1631 3.88667 9.77642 1.5 6.82975 1.5C3.88309 1.5 1.49642 3.88667 1.49642 6.83333C1.49642 9.78 3.88309 12.1667 6.82975 12.1667C6.89642 12.1667 6.96975 12.1667 7.03642 12.16L7.42975 13.4733C7.22975 13.4933 7.02975 13.5 6.82975 13.5C3.14975 13.5 0.163086 10.5133 0.163086 6.83333C0.163086 3.15333 3.14975 0.166668 6.82975 0.166668C10.5098 0.166668 13.4964 3.15333 13.4964 6.83333ZM10.9831 9.67333L13.4964 8.83333L6.82975 6.83333L8.82975 13.5L9.66975 10.9867L12.5164 13.8333L13.8364 12.5133L10.9831 9.67333Z" fill="#9196A2"/>
</svg>
