<svg width="16" height="14" viewBox="0 0 16 14" fill="none" xmlns="http://www.w3.org/2000/svg">
<path d="M4.00033 5.66667C4.00033 5.11333 4.44699 4.66667 5.00033 4.66667C5.55366 4.66667 6.00033 5.11333 6.00033 5.66667C6.00033 6.22 5.55366 6.66667 5.00033 6.66667C4.44699 6.66667 4.00033 6.22 4.00033 5.66667ZM7.33366 11C8.88699 11 10.207 10.0267 10.7403 8.66667H3.92699C4.46033 10.0267 5.78033 11 7.33366 11ZM9.66699 6.66667C10.2203 6.66667 10.667 6.22 10.667 5.66667C10.667 5.11333 10.2203 4.66667 9.66699 4.66667C9.11366 4.66667 8.66699 5.11333 8.66699 5.66667C8.66699 6.22 9.11366 6.66667 9.66699 6.66667ZM14.0003 0H12.667V1.33333H11.3337V2.66667H12.667V4H14.0003V2.66667H15.3337V1.33333H14.0003V0ZM12.667 7.33333C12.667 10.28 10.2803 12.6667 7.33366 12.6667C4.38699 12.6667 2.00033 10.28 2.00033 7.33333C2.00033 4.38667 4.38699 2 7.33366 2C8.30699 2 9.21366 2.26667 10.0003 2.72V1.22667C9.18032 0.866667 8.28032 0.666667 7.32699 0.666667C3.64699 0.666667 0.666992 3.65333 0.666992 7.33333C0.666992 11.0133 3.64699 14 7.32699 14C11.0137 14 14.0003 11.0133 14.0003 7.33333C14.0003 6.63333 13.887 5.96667 13.687 5.33333H12.267C12.5203 5.95333 12.667 6.62667 12.667 7.33333Z" fill="#9196A2"/>
</svg>
