<svg width="14" height="16" viewBox="0 0 14 16" fill="none" xmlns="http://www.w3.org/2000/svg">
<path d="M9.2594 4.02634C8.88527 4.02634 8.58225 4.32663 8.58225 4.69735C8.58225 5.06807 8.88528 5.36835 9.2594 5.36835H13.4717C13.5085 5.36016 13.5449 5.34892 13.5798 5.33488L13.6509 5.30469L13.6847 5.28128L13.6849 5.28105C13.8862 5.1549 14.0057 4.93325 13.9998 4.69733V0.671015C13.9998 0.492902 13.9285 0.322284 13.8014 0.196364C13.6746 0.0706772 13.5021 0 13.3226 0C12.9485 0 12.6455 0.300283 12.6455 0.671003V2.76478V2.76455C11.1529 1.32518 9.12028 0.570349 7.04064 0.683651C4.96093 0.796929 3.02392 1.76778 1.69985 3.36095C0.375541 4.95389 -0.215448 7.02358 0.0706133 9.06798C0.356645 11.1124 1.49342 12.9448 3.20514 14.1206C4.91685 15.2965 7.04729 15.7086 9.07971 15.2569C11.1119 14.8054 12.8607 13.5313 13.9016 11.7436C14.07 11.4248 13.9547 11.0314 13.6406 10.8514C13.3262 10.6714 12.9247 10.769 12.73 11.0723C11.8677 12.5566 10.4099 13.6085 8.71949 13.9656C7.02906 14.323 5.26493 13.9523 3.86642 12.9457C2.46792 11.9393 1.56638 10.3917 1.38613 8.68832C1.20615 6.9849 1.76451 5.28574 2.92208 4.01389C4.07968 2.74205 5.72779 2.017 7.45625 2.01934C9.18472 2.02191 10.8309 2.75121 11.985 4.02629L9.2594 4.02634Z" fill="#9196A2"/>
</svg>
