<svg width="52" height="39" viewBox="0 0 52 39" fill="none" xmlns="http://www.w3.org/2000/svg">
<path d="M4.95 7.99973C4.95 11.416 7.69401 14.161 11.0555 14.161C14.4165 14.161 17.1609 11.4159 17.1609 7.99973C17.1609 4.58343 14.4169 1.83843 11.0555 1.83843C7.69441 1.83843 4.95 4.58353 4.95 7.99973ZM6.27222 8.00003C6.27222 5.30495 8.41687 3.16105 11.0555 3.16105C13.6937 3.16105 15.8387 5.35994 15.8387 8.00003C15.8387 10.6951 13.694 12.839 11.0555 12.839C8.41724 12.839 6.27222 10.6397 6.27222 8.00003Z" fill="#727272" stroke="#727272" stroke-width="0.1"/>
<path d="M21.1111 23.8834H21.173L21.16 23.8229L20.9933 23.0452L20.993 23.0441C19.8767 18.3552 15.8015 15.1167 11.0555 15.1167C6.30975 15.1167 2.17875 18.4107 1.1179 23.0445L1.11789 23.0445L1.11775 23.0452L0.95111 23.8229L0.938153 23.8834H1H21.1111ZM19.4304 22.5612H2.6242C3.80272 18.9505 7.10078 16.4945 11 16.4945C14.8985 16.4945 18.197 18.9502 19.4304 22.5612Z" fill="#727272" stroke="#727272" stroke-width="0.1"/>
<path d="M34.8387 21.3332C34.8387 24.7495 37.5827 27.4945 40.9441 27.4945C44.3055 27.4945 47.05 24.7498 47.0496 21.3332C47.0496 17.9169 44.3056 15.1719 40.9441 15.1719C37.5831 15.1719 34.8387 17.9169 34.8387 21.3332ZM36.1609 21.3335C36.1609 18.6384 38.3055 16.4945 40.9441 16.4945C43.5831 16.4945 45.7277 18.6385 45.7274 21.3335C45.7274 24.0286 43.5827 26.1725 40.9441 26.1725C38.3055 26.1725 36.1609 24.0286 36.1609 21.3335Z" fill="#727272" stroke="#727272" stroke-width="0.1"/>
<path d="M50.9998 37.2166H51.0616L51.0487 37.1562L50.882 36.3784L50.8817 36.3773C49.7653 31.6885 45.6901 28.45 40.9442 28.45C36.1984 28.45 32.0674 31.7439 31.0066 36.3777L31.0066 36.3777L31.0064 36.3784L30.8398 37.1562L30.8268 37.2166H30.8887H50.9998ZM40.889 29.7723C44.7873 29.7725 48.0857 32.2281 49.319 35.839H32.5141C33.7478 32.2834 37.0457 29.8272 40.889 29.7723Z" fill="#727272" stroke="#727272" stroke-width="0.1"/>
<path d="M43.0022 11.5993L43.0001 11.6039C40.0285 5.30624 33.7052 0.95 26.3337 0.95C24.2164 0.95 22.1 1.34016 20.1508 2.00836L20.1039 2.02443L20.1196 2.07147L20.5086 3.23833L20.5249 3.28706L20.5732 3.26951C22.4008 2.60503 24.3392 2.27272 26.3336 2.27272C32.9804 2.27272 38.7417 6.09472 41.6225 11.6899L41.6225 11.69L41.6235 11.6918C41.7941 11.9908 41.9317 12.3218 42.0631 12.6381C42.1013 12.73 42.1389 12.8207 42.1767 12.909L42.1897 12.9393H42.2227H43.5561H43.6423L43.5995 12.8645C43.3787 12.4779 43.2131 12.0918 43.0464 11.7023L43.0022 11.5993Z" fill="#727272" stroke="#727272" stroke-width="0.1"/>
<path d="M26.2777 36.7278H25.6682C19.9076 36.5063 14.5342 33.3486 11.543 28.3077L11.5177 28.2652L11.4749 28.29L10.4193 28.9011L10.3754 28.9265L10.4014 28.97C13.6322 34.3733 19.4253 37.827 25.6648 38.05L25.6648 38.05H25.6666H26.2777H26.8888H26.9388V38V36.7778V36.7278H26.8888H26.2777Z" fill="#727272" stroke="#727272" stroke-width="0.1"/>
</svg>
