<svg width="44" height="49" viewBox="0 0 44 49" fill="none" xmlns="http://www.w3.org/2000/svg">
<path d="M7.13503 0C4.8435 0 2.97297 1.87053 2.97297 4.16248C2.97297 5.83807 3.97337 7.2943 5.4072 7.95292C2.30437 8.72768 0 11.521 0 14.8649V19.6217H14.2703V14.8649C14.2703 11.5211 11.9659 8.72769 8.86307 7.95292C10.2969 7.29429 11.2973 5.83807 11.2973 4.16248C11.2973 1.87053 9.42677 0 7.13524 0H7.13503ZM36.8648 0C34.5732 0 32.7027 1.87053 32.7027 4.16248C32.7027 5.83807 33.7031 7.2943 35.1369 7.95292C32.0341 8.72768 29.7297 11.521 29.7297 14.8649V19.6217H44V14.8649C44 11.5211 41.6956 8.72769 38.5928 7.95292C40.0266 7.29429 41.027 5.83807 41.027 4.16248C41.027 1.87053 39.1565 0 36.865 0H36.8648ZM7.13503 1.18951C8.78407 1.18951 10.108 2.51344 10.108 4.16248C10.108 5.8111 8.78407 7.13545 7.13503 7.13545C5.48599 7.13545 4.16206 5.8111 4.16206 4.16248C4.16206 2.51344 5.48599 1.18951 7.13503 1.18951ZM36.8648 1.18951C38.5138 1.18951 39.8377 2.51344 39.8377 4.16248C39.8377 5.8111 38.5138 7.13545 36.8648 7.13545C35.2157 7.13545 33.8918 5.8111 33.8918 4.16248C33.8918 2.51344 35.2157 1.18951 36.8648 1.18951ZM7.13503 8.91892C10.4394 8.91892 13.081 11.5605 13.081 14.8649V18.4326H1.18908V14.8649C1.18908 11.5605 3.83068 8.91892 7.13503 8.91892ZM36.8648 8.91892C40.1691 8.91892 42.8107 11.5605 42.8107 14.8649V18.4326H30.9188V14.8649C30.9188 11.5605 33.5604 8.91892 36.8648 8.91892ZM17.5595 17.9125L16.9279 18.9344L21.4056 21.7399V26.7568H22.5951V21.7399L27.0728 18.9344L26.4412 17.9125L22.0004 20.681L17.5595 17.9125ZM22.0003 29.1355C19.7088 29.1355 17.8383 31.006 17.8383 33.2975C17.8383 34.9731 18.8387 36.4293 20.2725 37.0879C17.1697 37.8627 14.8653 40.6565 14.8653 44.0003V48.7572H29.1356V44.0003C29.1356 40.6566 26.8312 37.8627 23.7284 37.0879C25.1622 36.4293 26.1626 34.9731 26.1626 33.2975C26.1626 31.006 24.2921 29.1355 22.0005 29.1355H22.0003ZM22.0003 30.3245C23.6494 30.3245 24.9733 31.6485 24.9733 33.2975C24.9733 34.9466 23.6494 36.2705 22.0003 36.2705C20.3513 36.2705 19.0273 34.9466 19.0273 33.2975C19.0273 31.6485 20.3513 30.3245 22.0003 30.3245ZM22.0003 38.0544C25.3047 38.0544 27.9463 40.696 27.9463 44.0003V47.5677H16.0544V44.0003C16.0544 40.696 18.696 38.0544 22.0003 38.0544Z" fill="#727272"/>
</svg>
