<svg width="50" height="44" viewBox="0 0 50 44" fill="none" xmlns="http://www.w3.org/2000/svg">
<path d="M42.2039 20.9036C42.2039 20.472 41.8542 20.1223 41.4227 20.1223C40.9912 20.1223 40.6415 20.472 40.6415 20.9036V41.5771H9.3574V20.9036C9.3574 20.472 9.0077 20.1223 8.57616 20.1223C8.14462 20.1223 7.79492 20.472 7.79492 20.9036V42.3592C7.79492 42.7907 8.14462 43.1404 8.57616 43.1404H41.4221C41.8537 43.1404 42.2034 42.7907 42.2034 42.3592L42.2039 20.9036Z" fill="#727272"/>
<path d="M0.228791 24.4475C-0.0762638 24.7525 -0.0762638 25.2473 0.228791 25.5524C0.533846 25.8574 1.02864 25.8574 1.33368 25.5524L25 1.88605L48.6663 25.5524C48.9714 25.8574 49.4662 25.8574 49.7712 25.5524C50.0763 25.2473 50.0763 24.7525 49.7712 24.4475L25.5525 0.228791C25.2475 -0.0762638 24.7527 -0.0762638 24.4476 0.228791L0.228791 24.4475Z" fill="#727272"/>
<path d="M25.0004 8.91553C26.0983 8.91553 27.092 9.36056 27.8109 10.0799C28.5303 10.7993 28.9753 11.7931 28.9753 12.8905C28.9753 13.9879 28.5303 14.9821 27.8109 15.701C27.0915 16.4204 26.0977 16.8655 25.0004 16.8655C23.9024 16.8655 22.9087 16.4204 22.1898 15.701C21.4704 14.9817 21.0254 13.9879 21.0254 12.8905C21.0254 11.7926 21.4704 10.7989 22.1898 10.0799C22.9092 9.36055 23.903 8.91553 25.0004 8.91553ZM26.7065 11.1848C26.2699 10.7481 25.6667 10.4779 25.0004 10.4779C24.334 10.4779 23.7309 10.7481 23.2942 11.1848C22.8575 11.6214 22.5874 12.2246 22.5874 12.8909C22.5874 13.5573 22.8575 14.1605 23.2942 14.5971C23.7309 15.0338 24.334 15.3039 25.0004 15.3039C25.6667 15.3039 26.2699 15.0338 26.7065 14.5971C27.1432 14.1605 27.4134 13.5573 27.4134 12.8909C27.4134 12.2246 27.1432 11.6214 26.7065 11.1848Z" fill="#727272"/>
<path d="M19.1729 42.3578C19.1729 42.7894 19.5225 43.139 19.9541 43.139C20.3856 43.139 20.7353 42.7894 20.7353 42.3578V28.4913H29.2639V42.3578C29.2639 42.7894 29.6136 43.139 30.0451 43.139C30.4767 43.139 30.8264 42.7894 30.8264 42.3578V27.7092C30.8264 27.2777 30.4767 26.928 30.0451 26.928H19.9541C19.5225 26.928 19.1729 27.2777 19.1729 27.7092V42.3578Z" fill="#727272"/>
</svg>
