<svg width="51" height="51" viewBox="0 0 51 51" fill="none" xmlns="http://www.w3.org/2000/svg">
<path d="M50.0299 49.3969H47.7028V0.633472C47.7028 0.283601 47.4196 0 47.0693 0H25.3315C24.9817 0 24.6981 0.28316 24.6981 0.633472V15.9015H3.59362C3.24375 15.9015 2.96015 16.1846 2.96015 16.5349L2.96059 49.3971H0.633472C0.283601 49.3971 0 49.6803 0 50.0306C0 50.3805 0.28316 50.6641 0.633472 50.6641H50.0302C50.3801 50.6641 50.6637 50.3809 50.6637 50.0306C50.6633 49.6803 50.3801 49.3971 50.0298 49.3971L50.0299 49.3969ZM46.4363 34.1301H31.7733V26.7687H46.4363V34.1301ZM31.7733 35.397H46.4363V42.7592L31.7733 42.7588V35.397ZM46.4363 25.5023H31.7733V18.14H46.4363V25.5023ZM31.7733 44.0249H46.4363V49.397H31.7733V44.0249ZM46.4363 1.26642V8.24519H25.9651V1.26642H46.4363ZM25.9651 9.51166H46.4363V16.873H31.7733V16.5346C31.7733 16.1847 31.4902 15.9011 31.1398 15.9011L25.9656 15.9016L25.9651 9.51166ZM4.22739 17.168H30.5067V49.3969H16.8898V39.6802C16.8898 39.3303 16.6067 39.0467 16.2564 39.0467L8.75106 39.0472C8.40119 39.0472 8.11759 39.3303 8.11759 39.6806V49.3969H4.22714L4.22739 17.168ZM15.6233 49.3969H9.38442V40.3137H15.6233V49.3969Z" fill="#727272"/>
</svg>
