<svg width="1259" height="308" viewBox="0 0 1259 308" fill="none" xmlns="http://www.w3.org/2000/svg">
<path d="M74.426 299.602V74.9004H297.704V187.251H186.065V299.602H74.426ZM223.278 299.602V224.701H297.704L223.278 299.602ZM33.0782 33.2891V266.312H0V0H264.626V33.2891H33.0782Z" fill="#5B61F3"/>
<path d="M404.297 246.748V56.8973H446.701V137.018L507.985 56.8973H560.555L484.459 149.791L563.459 246.748H509.437L446.701 164.305V246.748H404.297Z" fill="#192339"/>
<path d="M647.79 250.522C602.481 250.522 570.532 218.59 570.532 175.046C570.532 131.502 602.481 99.5702 647.79 99.5702C693.099 99.5702 725.048 131.502 725.048 175.046C725.048 218.59 693.099 250.522 647.79 250.522ZM647.79 213.945C670.154 213.945 685.257 197.979 685.257 175.046C685.257 152.113 670.154 136.147 647.79 136.147C625.426 136.147 610.323 152.113 610.323 175.046C610.323 197.979 625.426 213.945 647.79 213.945Z" fill="#192339"/>
<path d="M747.657 308V176.498C747.657 128.89 779.606 99.5702 824.043 99.5702C869.643 99.5702 901.592 130.631 901.592 176.788C901.592 226.138 864.706 250.522 831.014 250.522C812.135 250.522 796.451 242.975 786.867 228.46V308H747.657ZM824.334 213.945C846.698 213.945 861.801 197.979 861.801 175.046C861.801 152.113 846.698 136.147 824.334 136.147C801.97 136.147 786.867 152.113 786.867 175.046C786.867 197.979 801.97 213.945 824.334 213.945Z" fill="#192339"/>
<path d="M948.759 87.6682C933.947 87.6682 923.2 76.9274 923.2 62.1225C923.2 47.3176 933.947 36.5768 948.759 36.5768C963.572 36.5768 974.318 47.3176 974.318 62.1225C974.318 76.9274 963.572 87.6682 948.759 87.6682ZM929.009 246.748V103.344H968.219V246.748H929.009Z" fill="#192339"/>
<path d="M1056.7 250.522C1020.1 250.522 996.573 230.782 995.702 203.785H1034.91C1035.2 212.204 1042.17 217.429 1056.4 217.429C1071.8 217.429 1077.9 211.333 1077.9 204.075C1077.9 193.915 1066.28 192.754 1051.76 190.722C1030.85 187.819 998.316 183.465 998.316 148.63C998.316 119.31 1020.97 99.5702 1056.4 99.5702C1091.84 99.5702 1113.62 119.891 1114.49 145.436H1075.86C1074.99 137.598 1068.02 132.664 1056.99 132.664C1043.92 132.664 1038.11 139.05 1038.11 146.307C1038.11 155.887 1049.72 157.338 1064.25 159.37C1084 162.273 1117.4 166.918 1117.4 201.753C1117.4 231.073 1093.58 250.522 1056.7 250.522Z" fill="#192339"/>
<path d="M1199.75 250.522C1164.32 250.522 1140.21 231.073 1140.21 190.722V52.5429H1179.42V103.344H1250.29V138.76H1179.42V190.722C1179.42 207.849 1187.84 213.945 1199.75 213.945C1211.37 213.945 1219.79 208.14 1219.79 190.722V186.658H1259V190.722C1259 231.073 1234.89 250.522 1199.75 250.522Z" fill="#192339"/>
</svg>
